<?xml version="1.0" encoding="utf-8"?>
<svg version="1.1" xmlns="http://www.w3.org/2000/svg" xmlns:xlink="http://www.w3.org/1999/xlink" viewBox="0 0 2440 1640">
<style type="text/css">
	.st0{fill:#C4282D;}
	.st1{fill:#0075BB;}
	.st2{fill:#00934C;}
	.st3{fill:#FDB845;}
</style>
<path id="block_20" data-char=" " class="st0" d="M20,20v183.539551h183.539551V20H20zM188.539551,188.539551H35V35h153.539551V188.539551z"/>
<path id="block_21" data-char="!" class="st1" d="M220,20v183.539551h183.539551V20H220zM388.539551,188.539551H235V35h153.539551V188.539551zM309.10977540000005 129.48000000000002H314.42977540000004C314.5697754 119.68 316.5297754 108.06 319.8897754 94.34C321.5697754 87.62 323.3897754 81.04 323.3897754 74.04C323.3897754 64.24000000000001 318.3497754 58.22 311.7697754 58.22C305.18977540000003 58.22 300.1497754 64.24000000000001 300.1497754 74.04C300.1497754 81.04 301.9697754 87.62 303.6497754 94.34C307.0097754 108.06 308.9697754 119.68 309.10977540000005 129.48000000000002ZM299.4497754 152.72C299.4497754 159.44 305.04977540000004 165.04000000000002 311.7697754 165.04000000000002C318.6297754 165.04000000000002 324.0897754 159.58 324.0897754 152.72C324.0897754 145.86 318.6297754 140.4 311.7697754 140.4C304.9097754 140.4 299.4497754 146.0 299.4497754 152.72Z"/>
<path id="block_22" data-char="&quot;" class="st2" d="M420,20v183.539551h183.539551V20H420zM588.539551,188.539551H435V35h153.539551V188.539551zM501.4797754 104.98 507.3597754 73.34C507.49977540000003 72.5 507.6397754 71.52 507.6397754 70.68C507.6397754 65.78 504.55977540000004 62.7 499.93977540000003 62.7C495.3197754 62.7 492.3797754 65.78 492.3797754 70.82000000000001C492.3797754 71.66 492.5197754 72.5 492.6597754 73.34L498.5397754 104.98ZM525.1397754 104.98 531.0197754000001 73.34C531.1597754000001 72.5 531.1597754000001 71.52 531.1597754000001 70.68C531.1597754000001 65.78 528.2197754 62.7 523.5997754 62.7C518.9797754 62.7 516.0397754 65.78 516.0397754 70.82000000000001C516.0397754 71.66 516.1797754 72.5 516.3197754 73.34L522.0597754 104.98Z"/>
<path id="block_23" data-char="#" class="st3" d="M620,20v183.539551h183.539551V20H620zM788.539551,188.539551H635V35h153.539551V188.539551zM704.6997754 62.56 695.1797754 89.44H675.9997754000001L670.1197754 105.12H689.5797754L683.9797754 121.08000000000001H665.3597754L659.4797754 136.76000000000002H678.3797754000001L668.7197754 163.64000000000001H685.6597754000001L695.3197754 136.76000000000002H711.8397754L702.1797754 163.64000000000001H719.1197754L728.7797754000001 136.76000000000002H747.5397754L753.2797754000001 121.08000000000001H734.3797754000001L739.9797754 105.12H758.1797754L764.0597754 89.44H745.5797754L755.0997754 62.56H738.1597754000001L728.6397754000001 89.44H712.1197754L721.6397754000001 62.56ZM706.0997754 105.12H723.4597754L717.7197754 121.08000000000001H700.3597754Z"/>
<path id="block_24" data-char="$" class="st0" d="M820,20v183.539551h183.539551V20H820zM988.539551,188.539551H835V35h153.539551V188.539551zM907.5697754 183.24H914.7097754V162.24C932.9097754000001 159.72 942.8497754 149.36 942.8497754 133.96C942.8497754 126.4 940.4697754 120.24000000000001 935.7097754 115.76C929.6897754 110.16 923.1097754 108.2 918.3497754 105.68L914.7097754 103.72V74.88000000000001H916.3897754000001C922.5497754 74.88000000000001 926.0497754 77.12 926.0497754 79.64C926.0497754 82.16 921.5697754 83.7 921.5697754 88.74000000000001C921.5697754 93.64 925.3497754 97.0 931.5097754000001 97.0C936.8297754 97.0 940.7497754000001 93.08 940.7497754000001 87.2C940.7497754000001 76.84 931.5097754000001 69.7 914.7097754 69.0V59.06H907.5697754V69.0C891.3297754 71.38000000000001 882.2297754 80.62 882.2297754 93.92C882.2297754 105.26 888.8097754 113.24000000000001 902.5297754000001 119.4L907.7097754 121.78L907.5697754 155.38000000000002C899.1697754 155.38000000000002 894.4097754000001 152.58 894.4097754000001 149.78C894.4097754000001 148.52 896.5097754000001 148.52 898.1897754 146.98000000000002C899.4497754 145.72 900.1497754000001 143.9 900.1497754000001 141.52C900.1497754000001 135.92000000000002 896.5097754000001 132.28 890.9097754000001 132.28C884.8897754000001 132.28 880.6897754 136.62 880.6897754 142.92000000000002C880.6897754 153.0 890.0697754 160.42000000000002 907.5697754 162.24ZM907.8497754 101.2C899.4497754 97.14 895.1097754 92.24000000000001 895.1097754 87.34C895.1097754 81.32000000000001 899.5897754 77.26 907.8497754 75.58ZM914.5697754 155.10000000000002V124.58000000000001C924.9297754 128.64000000000001 930.1097754 134.24 930.1097754 140.54000000000002C930.1097754 148.10000000000002 924.7897754 153.14000000000001 914.5697754 155.10000000000002Z"/>
<path id="block_25" data-char="%" class="st1" d="M1020,20v183.539551h183.539551V20H1020zM1188.539551,188.539551H1035V35h153.539551V188.539551zM1079.2897754 166.16000000000003 1084.0497754 169.10000000000002 1144.5297754 64.24000000000001 1139.4897753999999 61.86C1131.2297753999999 69.98 1121.5697754 73.9 1109.8097754 73.9C1107.5697754 73.9 1104.9097754 73.48 1101.9697754 72.64C1098.7497754 68.02 1093.9897753999999 65.64 1087.6897754 65.64C1079.7097754 65.64 1072.0097754 69.14 1066.4097754 75.44C1059.4097754 83.42 1055.6297754 92.52000000000001 1055.6297754 100.64000000000001C1055.6297754 113.10000000000001 1064.1697754 121.92000000000002 1075.7897754 121.92000000000002C1083.0697754 121.92000000000002 1090.3497754 118.14000000000001 1096.2297753999999 111.0C1102.8097754 103.16 1106.3097754 93.5 1106.3097754 84.96000000000001C1106.3097754 82.58 1105.8897754 80.06 1104.9097754 77.4C1107.2897754 77.82000000000001 1109.3897754 77.96000000000001 1111.3497754 77.96000000000001C1120.1697754 77.96000000000001 1127.1697754 76.42 1133.0497754 72.64ZM1100.4297754 77.4C1101.5497754 79.64 1102.1097754 81.88000000000001 1102.1097754 84.26C1102.1097754 90.7 1099.4497754 99.24000000000001 1094.1297754 107.08000000000001C1089.2297753999999 114.22 1083.6297754 117.72 1077.8897754 117.72C1073.4097754 117.72 1069.9097754 113.52000000000001 1069.9097754 107.64000000000001C1069.9097754 101.62 1072.4297754 92.66000000000001 1077.8897754 84.54C1082.5097754 77.68 1087.1297754 73.76 1092.4497754 72.92C1094.5497754 75.3 1097.0697754 76.7 1100.4297754 77.4ZM1131.5097754 151.04000000000002C1131.5097754 145.02 1134.1697754 136.20000000000002 1139.4897753999999 128.22C1144.8097754 120.24000000000001 1149.4297754 116.18 1155.3097754 116.18C1159.9297754 116.18 1163.7097754 120.66000000000001 1163.7097754 126.96000000000001C1163.7097754 134.66 1160.9097754 142.92000000000002 1156.0097754 150.06C1150.8297754 157.48000000000002 1145.5097754 161.26000000000002 1139.6297754 161.26000000000002C1135.1497754 161.26000000000002 1131.5097754 156.92000000000002 1131.5097754 151.04000000000002ZM1137.3897754 165.32000000000002C1144.6697754 165.32000000000002 1152.0897754 161.68 1157.9697754 154.54000000000002C1164.5497754 146.70000000000002 1167.9097754 137.46 1167.9097754 128.78C1167.9097754 117.02000000000001 1160.0697754 109.04 1148.8697754 109.04C1141.1697754 109.04 1133.7497754 112.54 1128.0097754 118.98C1121.0097754 126.96000000000001 1117.3697754 135.92000000000002 1117.3697754 144.04000000000002C1117.3697754 156.5 1125.9097754 165.32000000000002 1137.3897754 165.32000000000002Z"/>
<path id="block_26" data-char="&amp;" class="st2" d="M1220,20v183.539551h183.539551V20H1220zM1388.539551,188.539551H1235V35h153.539551V188.539551zM1305.6097754 93.78C1301.1297754 86.5 1298.4697754 80.76 1298.4697754 75.3C1298.4697754 69.56 1302.6697754 65.22 1307.2897754 65.22C1312.8897754 65.22 1316.2497754 69.42 1316.2497754 76.56C1316.2497754 83.42 1312.7497754 88.88000000000001 1305.6097754 93.78ZM1315.8297754 149.08C1311.4897754 152.16000000000003 1307.5697754 153.56 1303.6497754 153.56C1297.3497754 153.56 1291.0497754 149.36 1285.8697754 140.82000000000002C1282.5097754 135.22 1280.5497754 128.5 1280.5497754 123.04C1280.5497754 116.32000000000001 1283.6297754 111.98 1290.0697754 109.32000000000001C1297.4897754 122.9 1306.0297754 136.06 1315.8297754 149.08ZM1287.1297754 103.02000000000001C1269.4897754 111.28 1260.8097754 121.78 1260.8097754 135.92000000000002C1260.8097754 152.72 1273.8297754 165.18 1292.8697754 165.18C1303.0897754 165.18 1312.3297754 161.68 1321.0097754 154.68C1326.6097754 161.4 1332.9097754 164.62 1340.6097754 164.62C1349.9897754 164.62 1357.9697754 158.88000000000002 1362.7297754 148.10000000000002L1357.4097754 144.60000000000002C1354.4697754 149.78 1352.7897754 152.02 1348.7297754 152.02C1344.9497754 152.02 1341.3097754 148.52 1337.2497754 141.8C1344.1097754 131.58 1346.6297754 122.06 1349.7097754 116.04C1351.8097754 111.84 1355.4497754 110.30000000000001 1361.6097754 110.30000000000001V103.44H1330.1097754V110.30000000000001C1336.9697754 110.58000000000001 1339.9097754 111.98 1339.9097754 116.88000000000001C1339.9097754 121.36000000000001 1337.8097754 127.94 1332.9097754 134.8C1324.7897754 123.04 1317.0897754 111.28 1309.9497754 99.52000000000001C1322.6897754 94.76 1329.1297754 87.48 1329.1297754 77.54C1329.1297754 65.78 1321.0097754 58.22 1307.5697754 58.22C1291.1897754 58.22 1280.8297754 67.88 1280.8297754 81.88000000000001C1280.8297754 88.46000000000001 1282.9297754 95.32000000000001 1287.1297754 103.02000000000001Z"/>
<path id="block_27" data-char="'" class="st3" d="M1420,20v183.539551h183.539551V20H1420zM1588.539551,188.539551H1435V35h153.539551V188.539551zM1513.2397754 104.98 1519.1197754 73.34C1519.2597754 72.5 1519.3997754 71.52 1519.3997754 70.68C1519.3997754 65.78 1516.4597754 62.7 1511.8397754 62.7C1507.2197754 62.7 1504.1397754 65.92 1504.1397754 70.82000000000001C1504.1397754 71.66 1504.2797754 72.5 1504.4197754 73.34L1510.2997754 104.98Z"/>
<path id="block_28" data-char="(" class="st0" d="M1620,20v183.539551h183.539551V20H1620zM1788.539551,188.539551H1635V35h153.539551V188.539551zM1731.2297753999999 174.98000000000002V169.94C1717.7897753999998 161.12 1713.0297753999998 144.04000000000002 1713.0297753999998 116.32000000000001C1713.0297753999998 88.60000000000001 1717.7897753999998 71.38000000000001 1731.2297753999999 62.56V57.66C1705.6097754 71.38000000000001 1692.3097753999998 92.10000000000001 1692.3097753999998 116.32000000000001C1692.3097753999998 140.54000000000002 1705.6097754 161.26000000000002 1731.2297753999999 174.98000000000002Z"/>
<path id="block_29" data-char=")" class="st1" d="M1820,20v183.539551h183.539551V20H1820zM1988.539551,188.539551H1835V35h153.539551V188.539551zM1892.2397753999999 57.66V62.56C1905.6797754 71.38000000000001 1910.5797754 88.60000000000001 1910.5797754 116.32000000000001C1910.5797754 144.04000000000002 1905.6797754 161.12 1892.2397753999999 169.94V174.98000000000002C1917.8597754 161.26000000000002 1931.2997753999998 140.54000000000002 1931.2997753999998 116.32000000000001C1931.2997753999998 92.10000000000001 1917.8597754 71.38000000000001 1892.2397753999999 57.66Z"/>
<path id="block_2A" data-char="*" class="st2" d="M2020,20v183.539551h183.539551V20H2020zM2188.539551,188.539551H2035V35h153.539551V188.539551zM2112.7497754 88.88000000000001C2116.6697754 91.12 2119.6097754 93.5 2122.2697754 97.42C2125.2097754 101.62 2127.0297754000003 105.26 2131.5097754 105.26C2134.7297754 105.26 2137.9497754 101.62 2137.9497754 97.98C2137.9497754 94.34 2135.0097754 91.68 2129.6897754 91.26C2125.7697754 90.98 2120.5897754000002 91.12 2114.0097754 87.2C2119.6097754 83.28 2125.0697754000003 83.42 2130.5297754000003 83.0C2134.5897754000002 82.72 2137.9497754 79.78 2137.9497754 76.42C2137.9497754 72.78 2134.7297754 69.0 2131.6497754 69.0C2127.4497754 69.0 2125.3497754 72.36 2122.1297754 76.84C2118.6297754 81.74000000000001 2115.2697754 83.56 2112.8897754 85.38000000000001V84.4C2112.8897754 74.60000000000001 2118.4897754 69.56 2118.4897754 64.66C2118.4897754 60.739999999999995 2115.9697754 58.22 2111.7697754 58.22C2107.7097754 58.22 2105.1897754 60.879999999999995 2105.1897754 64.66C2105.1897754 69.42 2110.7897754 74.88000000000001 2110.7897754 84.82000000000001V85.24000000000001C2106.7297754 82.86 2103.9297754 80.62 2101.2697754 76.84C2098.3297754 72.64 2096.5097754 69.0 2092.0297754000003 69.0C2088.8097754 69.0 2085.5897754000002 72.5 2085.5897754000002 76.28C2085.5897754000002 79.78 2088.6697754 82.44 2093.5697754000003 82.86C2097.7697754 83.14 2102.9497754 83.0 2109.5297754000003 86.92C2103.6497754 90.84 2098.1897754 90.84 2093.0097754 91.26C2088.8097754 91.54 2085.5897754000002 94.34 2085.5897754000002 97.84C2085.5897754000002 101.48 2088.9497754 105.12 2091.8897754 105.12C2096.0897754000002 105.12 2098.1897754 101.9 2101.4097754 97.28C2104.9097754 92.24000000000001 2108.4097754 90.56 2110.6497754 88.74000000000001V89.72C2110.6497754 99.52000000000001 2105.0497754000003 104.7 2105.0497754000003 109.60000000000001C2105.0497754000003 113.52000000000001 2107.5697754000003 115.9 2111.7697754 115.9C2115.8297754 115.9 2118.3497754 113.38000000000001 2118.3497754 109.60000000000001C2118.3497754 104.84 2112.7497754 99.24000000000001 2112.7497754 89.30000000000001Z"/>
<path id="block_2B" data-char="+" class="st3" d="M2220,20v183.539551h183.539551V20H2220zM2388.539551,188.539551H2235V35h153.539551V188.539551zM2303.7197754000003 79.36V113.10000000000001H2270.8197754000003V128.92000000000002H2303.7197754000003V162.8H2319.9597754V128.92000000000002H2352.7197754000003V113.10000000000001H2319.9597754V79.36Z"/>
<path id="block_2C" data-char="," class="st0" d="M20,220v183.539551h183.539551V220H20zM188.539551,388.539551H35V235h153.539551V388.539551zM98.9597754 376.94 100.35977539999999 382.40000000000003C115.7597754 378.2 124.57977539999999 367.56 124.57977539999999 355.8C124.57977539999999 346.84000000000003 119.2597754 341.24 111.6997754 341.24C104.9797754 341.24 100.35977539999999 346.0 100.35977539999999 352.72C100.35977539999999 357.06 102.4597754 360.28000000000003 106.3797754 361.54C110.57977539999999 362.94 112.9597754 363.36 112.9597754 364.90000000000003C112.9597754 367.98 108.3397754 373.3 98.9597754 376.94Z"/>
<path id="block_2D" data-char="-" class="st1" d="M220,220v183.539551h183.539551V220H220zM388.539551,388.539551H235V235h153.539551V388.539551zM293.5697754 333.40000000000003H329.96977540000006V317.72H293.5697754Z"/>
<path id="block_2E" data-char="." class="st2" d="M420,220v183.539551h183.539551V220H420zM588.539551,388.539551H435V235h153.539551V388.539551zM499.4497754 352.72C499.4497754 359.44 505.0497754 365.04 511.7697754 365.04C518.6297754 365.04 524.0897754 359.58 524.0897754 352.72C524.0897754 345.86 518.6297754 340.40000000000003 511.7697754 340.40000000000003C504.9097754 340.40000000000003 499.4497754 346.0 499.4497754 352.72Z"/>
<path id="block_2F" data-char="/" class="st3" d="M620,220v183.539551h183.539551V220H620zM788.539551,388.539551H635V235h153.539551V388.539551zM689.4397754 375.82H698.8197754L734.0997754 258.22H724.7197754Z"/>
<path id="block_30" data-char="0" class="st0" d="M820,220v183.539551h183.539551V220H820zM988.539551,388.539551H835V235h153.539551V388.539551zM911.7697754000001 365.04C929.9697754 365.04 944.5297754000001 346.0 944.5297754000001 315.34000000000003C944.5297754000001 300.08 940.6097754 287.06 933.6097754 277.26C928.4297754 269.98 920.4497754 265.92 911.7697754000001 265.92C903.5097754000001 265.92 895.5297754000001 270.12 890.0697754 277.54C882.9297754 287.34000000000003 879.0097754000001 300.22 879.0097754000001 315.62C879.0097754000001 330.88 882.7897754 343.76 889.9297754 353.42C895.3897754000001 360.98 903.3697754 365.04 911.7697754000001 365.04ZM921.5697754 315.48V322.06C921.5697754 347.54 921.1497754000001 358.6 911.7697754000001 358.6C902.3897754000001 358.6 901.9697754 347.54 901.9697754 322.06V308.9C901.9697754 283.42 902.3897754000001 272.36 911.7697754000001 272.36C921.1497754000001 272.36 921.5697754 283.42 921.5697754 308.9Z"/>
<path id="block_31" data-char="1" class="st1" d="M1020,220v183.539551h183.539551V220H1020zM1188.539551,388.539551H1035V235h153.539551V388.539551zM1101.6197754 291.54V344.6C1101.6197754 353.14 1099.9397754000001 356.36 1087.1997754000001 356.36H1083.6997754000001V362.8H1139.8397754V356.36H1136.6197754C1124.7197754000001 356.36 1122.8997754000002 353.14 1122.8997754000002 344.6V265.92H1116.3197754C1109.3197754 272.5 1098.8197754 275.15999999999997 1083.8397754 275.44V281.88H1092.9397754000001C1101.4797754 281.88 1101.6197754 282.86 1101.6197754 290.7Z"/>
<path id="block_32" data-char="2" class="st2" d="M1220,220v183.539551h183.539551V220H1220zM1388.539551,388.539551H1235V235h153.539551V388.539551zM1281.5297754 362.8H1338.2297754L1342.0097754 335.22H1335.9897754C1334.7297754 343.62 1333.0497754 345.02 1325.0697754 345.02H1295.2497754C1297.4897754 338.16 1303.0897754 331.86 1312.0497754 325.7C1318.6297754 321.22 1326.8897754 317.3 1333.7497754 310.02C1338.5097754 304.98 1341.0297754 298.68 1341.0297754 291.26C1341.0297754 276.14 1328.9897754 265.92 1310.2297754 265.92C1293.4297754 265.92 1282.6497754 275.15999999999997 1282.6497754 287.06C1282.6497754 294.76 1287.4097754 299.8 1294.4097754 299.8C1300.7097754 299.8 1305.0497754 295.18 1305.0497754 289.44C1305.0497754 285.94 1303.2297754 283.0 1300.7097754 281.88L1296.6497754 280.06C1295.3897754 279.5 1294.8297754 278.8 1294.8297754 278.1C1294.8297754 276.0 1298.8897754 272.36 1305.0497754 272.36C1314.0097754 272.36 1318.7697754 278.1 1318.7697754 289.44C1318.7697754 296.58 1316.6697754 303.58 1313.0297754 309.32C1307.1497754 318.56 1299.1697754 325.84000000000003 1292.7297754 333.96000000000004C1285.7297754 342.92 1281.9497754 351.18 1281.5297754 362.8Z"/>
<path id="block_33" data-char="3" class="st3" d="M1420,220v183.539551h183.539551V220H1420zM1588.539551,388.539551H1435V235h153.539551V388.539551zM1515.4097754 313.66C1532.6297754 309.46000000000004 1540.7497754 302.04 1540.7497754 289.86C1540.7497754 275.15999999999997 1529.9697754000001 265.92 1511.4897754 265.92C1494.4097754 265.92 1484.3297754 273.62 1484.3297754 284.26C1484.3297754 291.12 1488.8097754 295.74 1495.5297754 295.74C1501.4097754 295.74 1505.7497754 291.54 1505.7497754 286.08C1505.7497754 278.94 1499.3097754 276.56 1499.3097754 275.15999999999997C1499.3097754 273.76 1501.9697754000001 271.94 1506.3097754 271.94C1515.1297754 271.94 1520.7297754 279.22 1520.7297754 292.24C1520.7297754 303.72 1515.8297754 310.3 1508.8297754 310.3C1507.7097754000001 310.3 1505.7497754 310.02 1503.0897754 310.02C1501.5497754 310.02 1500.0097754 311.56 1500.0097754 313.38C1500.0097754 315.34000000000003 1501.5497754 316.74 1504.2097754000001 316.74C1506.0297754 316.74 1507.4297754000002 316.46000000000004 1508.4097754 316.46000000000004C1516.8097754 316.46000000000004 1521.4297754000002 323.88 1521.4297754000002 338.16C1521.4297754000002 351.18 1515.5497754 358.46000000000004 1505.8897754 358.46000000000004C1500.5697754 358.46000000000004 1497.2097754000001 355.94 1497.2097754000001 354.26C1497.2097754000001 353.0 1503.9297754000002 350.90000000000003 1503.9297754000002 343.2C1503.9297754000002 337.18 1499.4497754000001 333.12 1492.5897754 333.12C1485.7297754 333.12 1480.8297754 338.02 1480.8297754 344.88C1480.8297754 355.66 1492.3097754 365.04 1510.0897754 365.04C1530.1097754 365.04 1542.7097754000001 354.68 1542.7097754000001 339.98C1542.7097754000001 325.42 1533.7497754 316.88 1515.4097754 313.66Z"/>
<path id="block_34" data-char="4" class="st0" d="M1620,220v183.539551h183.539551V220H1620zM1788.539551,388.539551H1635V235h153.539551V388.539551zM1731.7897754 344.6V337.74H1743.2697754V329.2H1731.7897754V265.92H1717.3697754L1680.2697754 327.8V337.74H1711.0697754V344.6C1711.0697754 353.84000000000003 1709.6697754000002 355.66 1697.9097754000002 356.36V362.8H1743.2697754V356.36C1732.7697754 355.8 1731.7897754 353.56 1731.7897754 344.6ZM1711.0697754 329.2H1685.5897754L1714.2897754 281.74C1712.4697754000001 303.58 1711.4897754 319.26 1711.0697754 329.2Z"/>
<path id="block_35" data-char="5" class="st1" d="M1820,220v183.539551h183.539551V220H1820zM1988.539551,388.539551H1835V235h153.539551V388.539551zM1884.8897754000002 313.8 1890.6297754000002 317.3C1896.5097754 312.96000000000004 1900.8497754 310.3 1905.7497754 310.3C1914.9897754 310.3 1920.1697754000002 318.28000000000003 1920.1697754000002 333.54C1920.1697754000002 350.62 1914.8497754 359.3 1904.9097754000002 359.3C1900.0097754 359.3 1896.9297754000002 356.78000000000003 1896.9297754000002 355.24C1896.9297754000002 354.82 1897.6297754000002 354.40000000000003 1898.6097754000002 353.56L1901.1297754000002 351.46000000000004C1902.8097754 350.06 1904.0697754 347.40000000000003 1904.0697754 343.90000000000003C1904.0697754 337.88 1899.3097754 333.12 1892.4497754000001 333.12C1886.1497754000002 333.12 1881.3897754000002 338.16 1881.3897754000002 345.86C1881.3897754000002 357.2 1891.4697754000001 365.04 1907.9897754 365.04C1929.4097754000002 365.04 1942.1497754000002 352.58 1942.1497754000002 332.42C1942.1497754000002 314.22 1930.5297754 301.9 1912.7497754 301.9C1905.7497754 301.9 1898.4697754000001 304.42 1892.4497754000001 309.04L1894.8297754 283.42C1898.0497754 285.1 1901.4097754000002 285.24 1904.9097754000002 285.24H1908.9697754000001C1921.1497754000002 285.24 1929.6897754000001 283.56 1936.1297754000002 275.02C1938.6497754000002 272.78 1939.9097754000002 269.14 1939.9097754000002 265.78C1939.9097754000002 265.78 1938.9297754000002 263.68 1937.5297754 263.68C1936.2697754 263.68 1930.1097754000002 268.15999999999997 1916.8097754 268.15999999999997C1909.2497754 268.15999999999997 1900.4297754000002 268.15999999999997 1889.7897754 263.82C1889.5097754 281.6 1887.8297754 297.7 1884.8897754000002 313.8Z"/>
<path id="block_36" data-char="6" class="st2" d="M2020,220v183.539551h183.539551V220H2020zM2188.539551,388.539551H2035V235h153.539551V388.539551zM2102.6697754 309.32V306.1C2102.6697754 283.42 2108.2697754 271.94 2118.6297754 271.94C2123.1097754 271.94 2125.6297754 273.62 2125.6297754 275.72C2125.6297754 277.26 2123.6697754 277.96000000000004 2121.0097754000003 279.92C2119.3297754 281.18 2118.2097754 283.42 2118.2097754 286.22C2118.2097754 291.68 2122.4097754 295.6 2128.5697754000003 295.6C2135.8497754 295.6 2140.7497754 290.84000000000003 2140.7497754 283.42C2140.7497754 273.48 2132.0697754000003 265.92 2118.4897754 265.92C2095.3897754 265.92 2080.4097754 284.68 2080.4097754 317.58C2080.4097754 348.1 2093.2897754 365.04 2112.8897754 365.04C2131.3697754 365.04 2143.1297754 353.0 2143.1297754 333.54C2143.1297754 315.76 2132.3497754 303.86 2117.6497754 303.86C2111.9097754 303.86 2107.2897754 305.54 2102.6697754 309.32ZM2111.9097754 358.32C2104.0697754000003 358.32 2102.5297754000003 350.62 2102.5297754000003 334.66C2102.5297754000003 318.7 2104.0697754000003 311.14 2111.9097754 311.14C2120.0297754000003 311.14 2121.0097754000003 318.84000000000003 2121.0097754000003 334.66C2121.0097754000003 350.48 2120.0297754000003 358.32 2111.9097754 358.32Z"/>
<path id="block_37" data-char="7" class="st3" d="M2220,220v183.539551h183.539551V220H2220zM2388.539551,388.539551H2235V235h153.539551V388.539551zM2328.4297754 285.8C2308.2697754 317.3 2297.7697754 339.0 2297.7697754 351.88C2297.7697754 360.28000000000003 2302.2497754 365.04 2310.2297754 365.04C2319.0497754000003 365.04 2323.3897754 359.86 2323.3897754 349.36C2323.3897754 344.46000000000004 2322.5497754000003 338.16 2322.5497754000003 330.74C2322.5497754000003 309.46000000000004 2328.9897754000003 290.98 2341.8697754 275.02V268.15999999999997H2284.4697754000003L2281.6697754 300.92H2286.9897754000003C2289.5097754000003 288.46000000000004 2291.7497754 285.8 2302.1097754 285.8Z"/>
<path id="block_38" data-char="8" class="st0" d="M20,420v183.539551h183.539551V420H20zM188.539551,588.539551H35V435h153.539551V588.539551zM100.6397754 517.16C86.7797754 523.4599999999999 80.33977540000001 531.02 80.33977540000001 541.9399999999999C80.33977540000001 555.9399999999999 91.6797754 565.04 110.8597754 565.04C130.8797754 565.04 143.19977540000002 554.54 143.19977540000002 538.8599999999999C143.19977540000002 526.8199999999999 136.19977540000002 517.4399999999999 122.19977540000001 508.61999999999995C134.0997754 503.0199999999999 139.9797754 496.02 139.9797754 486.2199999999999C139.9797754 474.73999999999995 129.0597754 465.91999999999996 111.4197754 465.91999999999996C93.9197754 465.91999999999996 82.8597754 475.99999999999994 82.8597754 489.85999999999996C82.8597754 500.0799999999999 88.8797754 509.17999999999995 100.6397754 517.16ZM117.4397754 505.25999999999993C105.2597754 498.11999999999995 99.2397754 491.67999999999995 99.2397754 483.8399999999999C99.2397754 476.8399999999999 103.9997754 472.2199999999999 111.69977540000001 472.2199999999999C119.95977540000001 472.2199999999999 125.97977540000001 478.09999999999997 125.97977540000001 487.3399999999999C125.97977540000001 494.05999999999995 123.17977540000001 499.65999999999997 117.4397754 505.25999999999993ZM105.2597754 520.66C119.2597754 528.64 126.2597754 535.78 126.2597754 545.02C126.2597754 553.14 120.3797754 558.74 111.5597754 558.74C101.4797754 558.74 94.89977540000001 551.5999999999999 94.89977540000001 541.38C94.89977540000001 534.0999999999999 98.2597754 527.52 105.2597754 520.66Z"/>
<path id="block_39" data-char="9" class="st1" d="M220,420v183.539551h183.539551V420H220zM388.539551,588.539551H235V435h153.539551V588.539551zM321.0097754 521.64V524.8599999999999C321.0097754 547.54 315.2697754 559.02 304.9097754 559.02C300.4297754 559.02 297.9097754 557.4799999999999 297.9097754 555.38C297.9097754 553.8399999999999 299.8697754 553.0 302.5297754 551.04C304.2097754 549.78 305.3297754 547.54 305.3297754 544.74C305.3297754 539.28 301.12977539999997 535.3599999999999 294.9697754 535.3599999999999C287.6897754 535.3599999999999 282.7897754 540.12 282.7897754 547.54C282.7897754 557.4799999999999 291.6097754 565.04 305.1897754 565.04C328.2897754 565.04 343.12977539999997 546.28 343.12977539999997 513.38C343.12977539999997 482.85999999999996 330.3897754 465.91999999999996 310.7897754 465.91999999999996C292.3097754 465.91999999999996 280.4097754 477.9599999999999 280.4097754 497.41999999999996C280.4097754 515.1999999999999 291.1897754 527.0999999999999 305.8897754 527.0999999999999C311.62977539999997 527.0999999999999 316.3897754 525.42 321.0097754 521.64ZM311.7697754 472.63999999999993C319.6097754 472.63999999999993 321.1497754 480.3399999999999 321.1497754 496.29999999999995C321.1497754 512.26 319.6097754 519.9599999999999 311.7697754 519.9599999999999C303.7897754 519.9599999999999 302.5297754 512.1199999999999 302.5297754 496.29999999999995C302.5297754 480.47999999999996 303.6497754 472.63999999999993 311.7697754 472.63999999999993Z"/>
<path id="block_3A" data-char=":" class="st2" d="M420,420v183.539551h183.539551V420H420zM588.539551,588.539551H435V435h153.539551V588.539551zM499.51977539999996 552.7199999999999C499.51977539999996 559.4399999999999 505.1197754 565.04 511.8397754 565.04C518.6997754 565.04 524.0197754 559.5799999999999 524.0197754 552.7199999999999C524.0197754 545.8599999999999 518.6997754 540.4 511.8397754 540.4C504.9797754 540.4 499.51977539999996 546.0 499.51977539999996 552.7199999999999ZM499.51977539999996 504.55999999999995C499.51977539999996 511.28 505.1197754 516.74 511.8397754 516.74C518.6997754 516.74 524.0197754 511.41999999999996 524.0197754 504.55999999999995C524.0197754 497.69999999999993 518.6997754 492.09999999999997 511.8397754 492.09999999999997C504.9797754 492.09999999999997 499.51977539999996 497.8399999999999 499.51977539999996 504.55999999999995Z"/>
<path id="block_3B" data-char=";" class="st3" d="M620,420v183.539551h183.539551V420H620zM788.539551,588.539551H635V435h153.539551V588.539551zM700.0097754 504.55999999999995C700.0097754 511.28 705.6097754 516.74 712.3297753999999 516.74C719.1897753999999 516.74 724.5097754 511.41999999999996 724.5097754 504.55999999999995C724.5097754 497.69999999999993 719.1897753999999 492.09999999999997 712.3297753999999 492.09999999999997C705.4697753999999 492.09999999999997 700.0097754 497.8399999999999 700.0097754 504.55999999999995ZM699.0297754 576.9399999999999 700.2897753999999 582.4C715.6897753999999 578.1999999999999 724.5097754 567.56 724.5097754 555.8C724.5097754 546.8399999999999 719.1897753999999 541.24 711.6297754 541.24C704.9097754 541.24 700.2897753999999 546.0 700.2897753999999 552.7199999999999C700.2897753999999 557.06 702.3897754 560.28 706.3097753999999 561.54C710.5097754 562.9399999999999 712.8897754 563.3599999999999 712.8897754 564.9C712.8897754 567.9799999999999 708.4097754 573.3 699.0297754 576.9399999999999Z"/>
<path id="block_3C" data-char="&lt;" class="st0" d="M820,420v183.539551h183.539551V420H820zM988.539551,588.539551H835V435h153.539551V588.539551zM952.0197754000001 479.78 871.5197754000001 513.0999999999999V529.06L952.0197754000001 562.24V544.88L893.6397754 521.0799999999999L952.0197754000001 497.13999999999993Z"/>
<path id="block_3D" data-char="=" class="st1" d="M1020,420v183.539551h183.539551V420H1020zM1188.539551,588.539551H1035V435h153.539551V588.539551zM1070.8197753999998 497.8399999999999V513.66H1152.7197754V497.8399999999999ZM1070.8197753999998 528.5V544.18H1152.7197754V528.5Z"/>
<path id="block_3E" data-char="&gt;" class="st2" d="M1220,420v183.539551h183.539551V420H1220zM1388.539551,588.539551H1235V435h153.539551V588.539551zM1271.5197753999998 479.78V497.13999999999993L1329.8997754 521.0799999999999L1271.5197753999998 544.88V562.24L1352.0197753999998 529.06V513.0999999999999Z"/>
<path id="block_3F" data-char="?" class="st3" d="M1420,420v183.539551h183.539551V420H1420zM1588.539551,588.539551H1435V435h153.539551V588.539551zM1496.8597754 552.7199999999999C1496.8597754 559.4399999999999 1502.4597754000001 565.04 1509.1797754 565.04C1516.0397754 565.04 1521.4997754 559.5799999999999 1521.4997754 552.7199999999999C1521.4997754 545.8599999999999 1516.0397754 540.4 1509.1797754 540.4C1502.3197754 540.4 1496.8597754 546.0 1496.8597754 552.7199999999999ZM1506.3797754 529.4799999999999H1512.2597754V528.64C1512.2597754 519.26 1514.4997754 515.1999999999999 1520.6597754 510.71999999999997C1524.7197754000001 507.63999999999993 1530.7397754 504.8399999999999 1535.9197754 498.9599999999999C1540.1197754 494.19999999999993 1542.2197754000001 488.59999999999997 1542.2197754000001 482.7199999999999C1542.2197754000001 468.43999999999994 1530.7397754 458.2199999999999 1512.3997754 458.2199999999999C1493.2197754000001 458.2199999999999 1481.3197754 468.29999999999995 1481.3197754 482.43999999999994C1481.3197754 490.97999999999996 1486.4997754 496.29999999999995 1493.0797754 496.29999999999995C1499.3797754 496.29999999999995 1503.9997754 491.67999999999995 1503.9997754 485.79999999999995C1503.9997754 481.31999999999994 1501.7597754 478.65999999999997 1497.4197754 475.99999999999994C1494.8997754 474.4599999999999 1492.0997754 474.31999999999994 1492.0997754 472.91999999999996C1492.0997754 471.09999999999997 1497.4197754 465.91999999999996 1504.8397754 465.91999999999996C1513.5197754 465.91999999999996 1519.3997754 472.63999999999993 1519.3997754 483.8399999999999C1519.3997754 496.7199999999999 1512.3997754 504.13999999999993 1508.8997754 511.97999999999996C1507.0797754 516.04 1506.2397754 520.66 1506.2397754 525.9799999999999C1506.2397754 527.0999999999999 1506.2397754 528.2199999999999 1506.3797754 529.4799999999999Z"/>
<path id="block_40" data-char="@" class="st0" d="M1620,420v183.539551h183.539551V420H1620zM1788.539551,588.539551H1635V435h153.539551V588.539551zM1719.8197754 498.4C1724.4397754 498.4 1727.0997754 501.75999999999993 1727.0997754 507.91999999999996C1727.0997754 512.9599999999999 1725.2797753999998 522.4799999999999 1720.7997753999998 532.8399999999999C1716.0397754 543.9 1710.8597754 549.3599999999999 1705.5397753999998 549.3599999999999C1700.7797753999998 549.3599999999999 1697.4197754 545.4399999999999 1697.4197754 538.7199999999999C1697.4197754 532.0 1699.9397754 522.06 1705.5397753999998 510.99999999999994C1709.7397753999999 502.59999999999997 1714.0797754 498.4 1719.8197754 498.4ZM1722.7597753999999 541.38C1723.3197754 549.78 1729.0597754 554.8199999999999 1737.8797754 554.8199999999999C1744.1797754 554.8199999999999 1750.7597753999999 552.3 1756.2197754 547.4C1766.4397754 538.3 1772.0397754 525.56 1772.0397754 510.43999999999994C1772.0397754 481.87999999999994 1751.3197754 462.97999999999996 1719.3997754 462.97999999999996C1702.4597754 462.97999999999996 1687.1997754 468.29999999999995 1674.7397753999999 478.52C1659.6197754 490.8399999999999 1651.4997753999999 507.63999999999993 1651.4997753999999 525.9799999999999C1651.4997753999999 559.8599999999999 1675.9997753999999 582.4 1715.8997754 582.4C1732.4197754 582.4 1748.0997754 577.0799999999999 1761.8197754 566.8599999999999L1759.0197753999998 562.9399999999999C1744.7397753999999 572.3199999999999 1731.4397754 577.0799999999999 1715.8997754 577.0799999999999C1683.8397754 577.0799999999999 1663.8197754 558.04 1663.8197754 527.38C1663.8197754 507.21999999999997 1672.2197754 489.99999999999994 1687.3397754 479.0799999999999C1697.1397754 471.93999999999994 1708.7597753999999 468.29999999999995 1721.3597754 468.29999999999995C1736.1997754 468.29999999999995 1748.9397754 473.61999999999995 1757.8997754 483.55999999999995C1764.0597754 490.28 1767.1397754 499.23999999999995 1767.1397754 510.29999999999995C1767.1397754 523.88 1762.3797754 535.5 1753.5597754 543.4799999999999C1748.6597754 547.8199999999999 1743.0597754 550.06 1740.8197754 550.06C1738.0197753999998 550.06 1736.0597754 547.54 1736.0597754 543.3399999999999C1736.0597754 541.38 1736.4797753999999 539.56 1737.0397754 537.3199999999999L1748.9397754 494.61999999999995H1734.6597754L1731.4397754 505.4C1730.1797754 497.28 1725.2797753999998 493.35999999999996 1716.5997754 493.35999999999996C1708.8997754 493.35999999999996 1701.1997754 496.43999999999994 1694.8997754 502.17999999999995C1686.0797754 510.29999999999995 1681.4597754 520.38 1681.4597754 530.88C1681.4597754 545.8599999999999 1689.4397754 554.54 1703.7197754 554.54C1710.7197754 554.54 1717.1597754 550.1999999999999 1722.7597753999999 541.38Z"/>
<path id="block_41" data-char="A" class="st1" d="M1820,420v183.539551h183.539551V420H1820zM1988.539551,588.539551H1835V435h153.539551V588.539551zM1859.8297754 562.8H1891.1897754000001V555.66C1883.4897754 554.68 1880.4097754 553.14 1880.4097754 548.8C1880.4097754 546.56 1881.2497754 544.18 1882.2297754 541.24L1886.4297754000002 528.5H1919.7497754L1924.7897754 544.5999999999999C1925.3497754 546.42 1925.9097754 548.0999999999999 1925.9097754 549.5C1925.9097754 553.8399999999999 1922.2697754 555.24 1914.1497754 555.66V562.8H1963.7097754000001V555.66C1956.1497754000002 554.54 1953.3497754 551.18 1950.5497754 543.4799999999999L1920.3097754 460.73999999999995H1903.9297754000002L1872.8497754 541.8C1869.7697754 549.78 1866.9697754000001 554.26 1859.8297754 555.66ZM1888.9497754000001 521.3599999999999 1903.6497754 481.31999999999994 1916.6697754000002 521.3599999999999Z"/>
<path id="block_42" data-char="B" class="st2" d="M2020,420v183.539551h183.539551V420H2020zM2188.539551,588.539551H2035V435h153.539551V588.539551zM2100.2897754 510.99999999999994H2108.2697754C2125.2097754 510.99999999999994 2133.6097753999998 518.56 2133.6097753999998 534.0999999999999C2133.6097753999998 547.8199999999999 2125.9097754 555.66 2112.6097753999998 555.66C2101.5497754 555.66 2100.2897754 552.5799999999999 2100.2897754 543.1999999999999ZM2100.2897754 478.79999999999995C2100.2897754 470.53999999999996 2101.9697754 467.31999999999994 2111.9097754 467.31999999999994C2123.2497754 467.31999999999994 2129.6897754 474.31999999999994 2129.6897754 486.35999999999996C2129.6897754 498.67999999999995 2122.4097754 503.99999999999994 2107.1497753999997 503.99999999999994H2100.2897754ZM2062.9097754 562.8H2114.8497754C2145.3697754 562.8 2160.6297753999997 553.6999999999999 2160.6297753999997 535.78C2160.6297753999997 519.68 2149.1497753999997 511.13999999999993 2124.7897754 507.49999999999994C2145.2297754 504.13999999999993 2155.0297754 496.99999999999994 2155.0297754 484.4C2155.0297754 467.59999999999997 2140.6097753999998 460.73999999999995 2111.2097754 460.73999999999995H2062.9097754V467.87999999999994C2073.2697754 468.7199999999999 2074.9497754 470.67999999999995 2074.9497754 479.63999999999993V543.9C2074.9497754 552.8599999999999 2073.2697754 554.8199999999999 2062.9097754 555.66Z"/>
<path id="block_43" data-char="C" class="st3" d="M2220,420v183.539551h183.539551V420H2220zM2388.539551,588.539551H2235V435h153.539551V588.539551zM2355.5197754 497.69999999999993 2353.8397754000002 458.35999999999996H2346.2797754000003C2345.7197754000003 462.8399999999999 2344.0397754 465.0799999999999 2341.5197754 465.0799999999999C2338.4397754 465.0799999999999 2335.2197754000003 463.11999999999995 2330.8797754 461.7199999999999C2325.2797754000003 459.75999999999993 2319.9597754 458.2199999999999 2314.3597754 458.2199999999999C2301.8997754 458.2199999999999 2290.8397754000002 462.8399999999999 2281.8797754 471.5199999999999C2271.6597754 481.4599999999999 2266.3397754000002 495.17999999999995 2266.3397754000002 511.69999999999993C2266.3397754000002 533.4 2275.7197754000003 550.62 2292.2397754000003 559.7199999999999C2298.6797754 563.3599999999999 2306.7997754000003 565.18 2316.0397754 565.18C2337.1797754 565.18 2351.4597754 554.12 2357.1997754000004 532.8399999999999L2349.2197754000003 530.4599999999999C2343.0597754 547.8199999999999 2333.5397754 556.64 2321.3597754 556.64C2314.0797754 556.64 2307.7797754000003 553.6999999999999 2303.1597754 548.0999999999999C2295.8797754 539.42 2294.6197754 528.2199999999999 2294.6197754 512.26C2294.6197754 482.43999999999994 2303.0197754 467.31999999999994 2319.2597754000003 467.31999999999994C2332.5597754 467.31999999999994 2342.3597754 477.67999999999995 2348.0997754 497.97999999999996Z"/>
<path id="block_44" data-char="D" class="st0" d="M20,620v183.539551h183.539551V620H20zM188.539551,788.539551H35V635h153.539551V788.539551zM58.4297754 762.8H107.4297754C145.0897754 762.8 165.1097754 744.4599999999999 165.1097754 711.6999999999999C165.1097754 678.9399999999999 145.0897754 660.7399999999999 107.4297754 660.7399999999999H58.4297754V667.8799999999999C68.7897754 668.8599999999999 70.4697754 670.68 70.4697754 679.64V743.9C70.4697754 752.8599999999999 68.7897754 754.68 58.4297754 755.66ZM95.8097754 679.64C95.8097754 670.54 97.3497754 667.8799999999999 108.82977539999999 667.8799999999999C131.0897754 667.8799999999999 137.38977540000002 680.76 137.38977540000002 711.6999999999999C137.38977540000002 742.5 131.0897754 755.52 108.82977539999999 755.52C97.3497754 755.52 95.8097754 753.0 95.8097754 743.76Z"/>
<path id="block_45" data-char="E" class="st1" d="M220,620v183.539551h183.539551V620H220zM388.539551,788.539551H235V635h153.539551V788.539551zM262.2097754 762.8H359.0897754L361.3297754 725.56H353.4897754C350.8297754 747.26 339.9097754 755.8 316.5297754 755.8C301.5497754 755.8 299.5897754 753.6999999999999 299.5897754 743.9V713.66H305.7497754C317.6497754 713.66 323.2497754 719.9599999999999 324.50977539999997 733.9599999999999H331.50977539999997V685.9399999999999H324.50977539999997C323.2497754 699.9399999999999 317.6497754 706.24 305.7497754 706.24H299.5897754V679.64C299.5897754 669.9799999999999 301.5497754 667.74 315.9697754 667.74C337.6697754 667.74 348.4497754 675.5799999999999 352.0897754 695.04H359.9297754L357.8297754 660.7399999999999H262.2097754V667.8799999999999C272.56977539999997 668.7199999999999 274.2497754 670.68 274.2497754 679.64V743.9C274.2497754 752.8599999999999 272.56977539999997 754.8199999999999 262.2097754 755.66Z"/>
<path id="block_46" data-char="F" class="st2" d="M420,620v183.539551h183.539551V620H420zM588.539551,788.539551H435V635h153.539551V788.539551zM501.6197754 743.9V713.66H507.3597754C519.2597754 713.66 524.8597754 719.9599999999999 526.1197754 733.9599999999999H533.1197754V685.9399999999999H526.1197754C524.8597754 699.9399999999999 519.2597754 706.24 507.3597754 706.24H501.6197754V679.64C501.6197754 670.1199999999999 503.4397754 667.8799999999999 517.1597754 667.8799999999999C537.4597754 667.8799999999999 548.2397754 676.42 551.5997754 695.04H559.2997753999999L557.3397754 660.7399999999999H464.2397754V667.8799999999999C474.59977539999994 668.7199999999999 476.27977539999995 670.68 476.27977539999995 679.64V743.9C476.27977539999995 752.8599999999999 474.59977539999994 754.8199999999999 464.2397754 755.66V762.8H515.0597753999999V755.66C503.57977539999996 754.8199999999999 501.6197754 753.0 501.6197754 743.9Z"/>
<path id="block_47" data-char="G" class="st3" d="M620,620v183.539551h183.539551V620H620zM788.539551,788.539551H635V635h153.539551V788.539551zM741.9397754 693.64H749.3597754V658.3599999999999H741.2397754C740.5397753999999 662.6999999999999 738.5797754 665.0799999999999 736.0597754 665.0799999999999C733.6797753999999 665.0799999999999 730.8797754 663.9599999999999 727.0997754 662.56C720.3797754 660.04 713.7997754 658.2199999999999 706.5197754 658.2199999999999C694.0597754 658.2199999999999 682.8597754 662.8399999999999 674.1797753999999 671.38C663.9597754 681.4599999999999 658.4997754 695.18 658.4997754 711.6999999999999C658.4997754 728.2199999999999 663.9597754 742.2199999999999 674.3197754 752.4399999999999C682.9997754 760.9799999999999 693.9197753999999 765.18 707.4997754 765.18C715.8997754 765.18 724.0197754 763.0799999999999 730.4597754 759.02C735.0797754 756.2199999999999 737.7397754 753.9799999999999 739.2797754 753.9799999999999C741.7997754 753.9799999999999 742.4997754 756.2199999999999 743.6197754 759.7199999999999L745.1597754 765.04H753.4197753999999V731.7199999999999C753.4197753999999 722.76 754.8197754 721.0799999999999 765.0397754 719.9599999999999V712.8199999999999H717.1597754V719.9599999999999C727.7997754 720.66 729.6197754 722.3399999999999 729.6197754 731.7199999999999C729.6197754 749.2199999999999 723.8797754 757.62 709.4597754 757.62C692.0997754 757.62 686.4997754 743.3399999999999 686.4997754 711.9799999999999C686.4997754 681.74 694.7597754 666.9 712.6797753999999 666.9C726.1197754 666.9 736.4797754 676.0 741.9397754 693.64Z"/>
<path id="block_48" data-char="H" class="st0" d="M820,620v183.539551h183.539551V620H820zM988.539551,788.539551H835V635h153.539551V788.539551zM906.2397754 660.7399999999999H856.9597754V667.8799999999999C867.3197754 668.8599999999999 868.9997754 670.68 868.9997754 679.64V743.9C868.9997754 752.8599999999999 867.3197754 754.8199999999999 856.9597754 755.66V762.8H906.2397754V755.66C895.8797754 754.68 894.3397754 752.8599999999999 894.3397754 743.9V714.5H929.1997754V743.9C929.1997754 752.8599999999999 927.6597754 754.68 917.2997754 755.66V762.8H966.5797754V755.66C956.2197754 754.8199999999999 954.5397754 752.8599999999999 954.5397754 743.9V679.64C954.5397754 670.68 956.2197754 668.7199999999999 966.5797754 667.8799999999999V660.7399999999999H917.2997754V667.8799999999999C927.6597754 668.8599999999999 929.1997754 670.68 929.1997754 679.64V706.38H894.3397754V679.64C894.3397754 670.68 895.8797754 668.8599999999999 906.2397754 667.8799999999999Z"/>
<path id="block_49" data-char="I" class="st1" d="M1020,620v183.539551h183.539551V620H1020zM1188.539551,788.539551H1035V635h153.539551V788.539551zM1099.1697754 679.64V743.9C1099.1697754 752.8599999999999 1097.4897753999999 754.8199999999999 1087.1297754 755.66V762.8H1136.4097754V755.66C1126.0497754 754.8199999999999 1124.5097753999999 752.8599999999999 1124.5097753999999 743.9V679.64C1124.5097753999999 670.68 1126.0497754 668.7199999999999 1136.4097754 667.8799999999999V660.7399999999999H1087.1297754V667.8799999999999C1097.4897753999999 668.7199999999999 1099.1697754 670.68 1099.1697754 679.64Z"/>
<path id="block_4A" data-char="J" class="st2" d="M1220,620v183.539551h183.539551V620H1220zM1388.539551,788.539551H1235V635h153.539551V788.539551zM1338.0197753999998 727.38V679.64C1338.0197753999998 670.68 1339.6997754 668.7199999999999 1350.0597754 667.8799999999999V660.7399999999999H1299.2397753999999V667.8799999999999C1310.8597754 668.8599999999999 1312.6797754 670.54 1312.6797754 679.64V734.8C1312.6797754 750.1999999999999 1308.0597753999998 757.9 1298.8197753999998 757.9C1295.1797754 757.9 1292.5197753999998 755.9399999999999 1292.5197753999998 754.4C1292.5197753999998 752.8599999999999 1299.0997754 750.76 1299.0997754 742.92C1299.0997754 735.78 1293.9197754 730.4599999999999 1286.6397754 730.4599999999999C1278.9397754 730.4599999999999 1273.4797753999999 736.4799999999999 1273.4797753999999 744.3199999999999C1273.4797753999999 756.92 1283.8397754 765.3199999999999 1301.6197754 765.3199999999999C1315.4797753999999 765.3199999999999 1325.9797753999999 760.9799999999999 1331.9997753999999 753.56C1337.4597754 746.8399999999999 1338.0197753999998 738.5799999999999 1338.0197753999998 727.38Z"/>
<path id="block_4B" data-char="K" class="st3" d="M1420,620v183.539551h183.539551V620H1420zM1588.539551,788.539551H1435V635h153.539551V788.539551zM1467.4597754 679.64V743.9C1467.4597754 752.8599999999999 1465.7797753999998 754.8199999999999 1455.4197754 755.66V762.8H1504.4197754V755.66C1494.0597754 754.8199999999999 1492.3797754 752.8599999999999 1492.3797754 743.9V719.4L1500.3597754 712.1199999999999L1526.1197754 747.4C1527.0997754 748.8 1527.9397754 749.92 1527.9397754 752.02C1527.9397754 755.0999999999999 1524.9997753999999 755.38 1517.7197754 755.66V762.8H1568.1197754V755.66C1563.2197754 754.26 1558.3197754 750.4799999999999 1553.8397754 744.4599999999999L1518.6997754 696.8599999999999L1540.2597753999999 676.8399999999999C1546.5597754 671.0999999999999 1553.8397754 667.8799999999999 1560.4197754 667.8799999999999H1561.2597753999999V660.7399999999999H1515.6197754V667.8799999999999H1516.4597754C1524.0197753999998 667.8799999999999 1527.7997753999998 669.6999999999999 1527.7997753999998 672.92C1527.7997753999998 675.3 1525.9797753999999 678.8 1521.9197754 682.5799999999999L1492.3797754 710.5799999999999V679.64C1492.3797754 670.68 1494.0597754 668.7199999999999 1504.4197754 667.8799999999999V660.7399999999999H1455.4197754V667.8799999999999C1465.7797753999998 668.7199999999999 1467.4597754 670.68 1467.4597754 679.64Z"/>
<path id="block_4C" data-char="L" class="st0" d="M1620,620v183.539551h183.539551V620H1620zM1788.539551,788.539551H1635V635h153.539551V788.539551zM1701.8997754 743.9V679.64C1701.8997754 670.68 1703.4397754000001 668.7199999999999 1713.7997754 667.8799999999999V660.7399999999999H1664.5197754V667.8799999999999C1674.8797754 668.7199999999999 1676.5597754 670.68 1676.5597754 679.64V743.9C1676.5597754 752.8599999999999 1674.8797754 754.8199999999999 1664.5197754 755.66V762.8H1756.7797754L1759.0197754 723.18H1751.1797754000002C1749.2197754000001 744.74 1737.7397754 755.66 1717.9997754 755.66C1703.9997754 755.66 1701.8997754 753.56 1701.8997754 743.9Z"/>
<path id="block_4D" data-char="M" class="st1" d="M1820,620v183.539551h183.539551V620H1820zM1988.539551,788.539551H1835V635h153.539551V788.539551zM1868.7197754 667.74 1899.7997754 762.8H1910.0197754L1938.9997754 667.74H1940.1197754V743.9C1940.1197754 753.42 1938.2997754 754.9599999999999 1926.5397754 755.66V762.8H1978.1997754V755.66C1966.2997754 754.9599999999999 1964.4797754 753.28 1964.4797754 743.9V679.64C1964.4797754 670.1199999999999 1966.4397754 668.5799999999999 1978.1997754 667.8799999999999V660.7399999999999H1933.2597754L1912.2597754 729.3399999999999L1889.8597754 660.7399999999999H1845.3397754V667.8799999999999C1857.0997754 668.5799999999999 1858.9197754 670.1199999999999 1858.9197754 679.64V743.9C1858.9197754 753.42 1857.0997754 754.9599999999999 1845.3397754 755.66V762.8H1881.0397754V755.66C1869.2797754 754.9599999999999 1867.4597754 753.42 1867.4597754 743.9V667.74Z"/>
<path id="block_4E" data-char="N" class="st2" d="M2020,620v183.539551h183.539551V620H2020zM2188.539551,788.539551H2035V635h153.539551V788.539551zM2144.2497753999996 729.62 2090.9097754 660.7399999999999H2057.3097753999996V667.8799999999999C2069.2097753999997 668.7199999999999 2070.7497753999996 670.26 2070.7497753999996 679.64V743.9C2070.7497753999996 753.28 2069.2097753999997 754.8199999999999 2057.3097753999996 755.66V762.8H2092.7297753999997V755.66C2081.1097753999998 754.9599999999999 2079.1497753999997 753.42 2079.1497753999997 743.9V683.8399999999999L2141.3097754 764.4799999999999H2152.6497753999997V679.64C2152.6497753999997 670.1199999999999 2154.6097753999998 668.5799999999999 2166.2297753999997 667.8799999999999V660.7399999999999H2130.6697753999997V667.8799999999999C2142.5697754 668.5799999999999 2144.2497753999996 670.4 2144.2497753999996 679.64Z"/>
<path id="block_4F" data-char="O" class="st3" d="M2220,620v183.539551h183.539551V620H2220zM2388.539551,788.539551H2235V635h153.539551V788.539551zM2311.7697753999996 765.18C2324.9297754 765.18 2336.1297753999997 760.6999999999999 2345.0897754 752.02C2355.3097754 741.9399999999999 2360.7697754 728.2199999999999 2360.7697754 711.6999999999999C2360.7697754 695.18 2355.3097754 681.4599999999999 2344.9497754 671.38C2336.1297753999997 662.8399999999999 2324.9297754 658.2199999999999 2311.7697753999996 658.2199999999999C2298.6097753999998 658.2199999999999 2287.4097754 662.8399999999999 2278.5897754 671.38C2268.2297753999997 681.4599999999999 2262.7697753999996 695.18 2262.7697753999996 711.6999999999999C2262.7697753999996 728.2199999999999 2268.2297753999997 742.0799999999999 2278.4497754 752.02C2287.4097754 760.6999999999999 2298.6097753999998 765.18 2311.7697753999996 765.18ZM2311.7697753999996 757.9C2295.1097753999998 757.9 2291.1897753999997 743.1999999999999 2291.1897753999997 711.6999999999999C2291.1897753999997 680.1999999999999 2295.2497753999996 665.64 2311.7697753999996 665.64C2328.2897754 665.64 2332.3497754 680.1999999999999 2332.3497754 711.6999999999999C2332.3497754 743.1999999999999 2328.4297754 757.9 2311.7697753999996 757.9Z"/>
<path id="block_50" data-char="P" class="st0" d="M20,820v183.539551h183.539551V820H20zM188.539551,988.539551H35V835h153.539551V988.539551zM74.38977539999999 879.64V943.9C74.38977539999999 952.8599999999999 72.7097754 954.8199999999999 62.3497754 955.66V962.8H114.0097754V955.66C101.9697754 954.8199999999999 99.7297754 953.28 99.7297754 943.9V917.16H114.7097754C146.0697754 917.16 161.1897754 909.04 161.1897754 888.18C161.1897754 869.6999999999999 146.76977540000001 860.7399999999999 117.5097754 860.7399999999999H62.3497754V867.8799999999999C72.7097754 868.7199999999999 74.38977539999999 870.68 74.38977539999999 879.64ZM99.7297754 880.6199999999999C99.7297754 869.9799999999999 102.10977539999999 867.3199999999999 113.7297754 867.3199999999999C127.58977540000001 867.3199999999999 134.3097754 874.3199999999999 134.3097754 888.88C134.3097754 903.7199999999999 125.9097754 909.88 107.8497754 909.88H99.7297754Z"/>
<path id="block_51" data-char="Q" class="st1" d="M220,820v183.539551h183.539551V820H220zM388.539551,988.539551H235V835h153.539551V988.539551zM328.3597754 943.4799999999999C325.8397754 933.8199999999999 317.8597754 927.8 308.6197754 927.8C299.6597754 927.8 292.7997754 933.26 291.8197754 941.52C290.4197754 933.12 289.8597754 923.18 289.8597754 911.6999999999999C289.8597754 880.1999999999999 293.9197754 865.64 310.4397754 865.64C326.9597754 865.64 331.0197754 880.1999999999999 331.0197754 911.6999999999999C331.0197754 924.4399999999999 330.5997754 934.9399999999999 328.3597754 943.4799999999999ZM321.3597754 954.54C317.2997754 956.92 313.37977539999997 958.18 309.4597754 958.18C301.6197754 958.18 296.4397754 953.56 296.4397754 946.56C296.4397754 939.6999999999999 300.7797754 935.3599999999999 307.0797754 935.3599999999999C316.0397754 935.3599999999999 320.0997754 941.38 321.3597754 954.54ZM322.6197754 963.78C324.5797754 976.8 330.4597754 983.0999999999999 340.6797754 983.0999999999999C350.75977539999997 983.0999999999999 358.3197754 977.2199999999999 362.0997754 966.02L356.7797754 962.38C353.9797754 965.5999999999999 351.0397754 967.28 347.8197754 967.28C343.05977540000004 967.28 338.7197754 963.92 336.4797754 957.9C351.0397754 948.66 359.43977540000003 932.14 359.43977540000003 911.6999999999999C359.43977540000003 895.04 353.9797754 881.4599999999999 343.6197754 871.38C334.7997754 862.8399999999999 323.5997754 858.2199999999999 310.4397754 858.2199999999999C297.2797754 858.2199999999999 286.0797754 862.8399999999999 277.25977539999997 871.38C266.8997754 881.4599999999999 261.4397754 895.18 261.4397754 911.6999999999999C261.4397754 933.26 270.6797754 950.1999999999999 287.4797754 959.7199999999999C293.4997754 963.2199999999999 301.6197754 965.18 310.5797754 965.18C314.4997754 965.18 318.5597754 964.76 322.6197754 963.78Z"/>
<path id="block_52" data-char="R" class="st2" d="M420,820v183.539551h183.539551V820H420zM588.539551,988.539551H435V835h153.539551V988.539551zM494.5497754 943.9V912.68H500.70977539999996C508.12977539999997 912.68 513.4497754 913.9399999999999 517.0897754 917.3C522.4097754 922.1999999999999 522.8297754 928.78 523.3897754 937.4599999999999C523.9497754 946.14 524.0897754 953.14 528.2897753999999 958.4599999999999C531.7897753999999 962.9399999999999 537.6697753999999 965.3199999999999 545.5097754 965.3199999999999C558.8097754 965.3199999999999 566.3697754 957.4799999999999 566.3697754 943.4799999999999C566.3697754 942.3599999999999 566.3697754 941.24 566.2297754 940.12H559.6497754C559.6497754 948.9399999999999 557.2697754 953.42 553.2097754 953.42C550.1297754 953.42 549.2897753999999 951.4599999999999 548.5897754 947.12C547.8897754 942.2199999999999 547.8897754 935.78 545.7897753999999 928.0799999999999C543.2697754 918.56 535.1497754 912.54 521.1497754 909.3199999999999C542.8497754 906.9399999999999 553.6297754 899.2399999999999 553.6297754 885.8C553.6297754 868.4399999999999 538.7897753999999 860.7399999999999 508.5497754 860.7399999999999H457.1697754V867.8799999999999C467.52977539999995 868.7199999999999 469.20977539999996 870.68 469.20977539999996 879.64V943.9C469.20977539999996 952.8599999999999 467.52977539999995 954.8199999999999 457.1697754 955.66V962.8H508.12977539999997V955.66C496.50977539999997 954.68 494.5497754 953.14 494.5497754 943.9ZM494.5497754 879.3599999999999C494.5497754 869.42 497.06977539999997 867.3199999999999 508.12977539999997 867.3199999999999C520.8697754 867.3199999999999 527.5897754 874.3199999999999 527.5897754 887.06C527.5897754 900.78 519.7497754 905.68 502.2497754 905.68H494.5497754Z"/>
<path id="block_53" data-char="S" class="st3" d="M620,820v183.539551h183.539551V820H620zM788.539551,988.539551H635V835h153.539551V988.539551zM675.0197754 964.76H682.2997754C682.7197754 960.28 684.8197754 957.76 687.3397754 957.76C690.6997754 957.76 694.6197754 960.28 699.9397754 961.9599999999999C705.3997754 963.78 710.7197754 965.3199999999999 716.8797754 965.3199999999999C736.7597754 965.3199999999999 750.6197754 951.74 750.6197754 932.42C750.6197754 915.4799999999999 741.3797754 904.42 722.4797754 898.4L707.3597754 893.64C697.4197754 890.56 691.8197754 884.9599999999999 691.8197754 878.8C691.8197754 871.52 698.3997754 865.92 708.8997754 865.92C720.7997754 865.92 730.3197754 874.3199999999999 738.1597754 891.26H745.1597754L743.4797754 858.64H737.1797754C736.3397754 862.28 734.5197754 864.24 732.1397754 864.24C731.0197754 864.24 730.1797754 863.8199999999999 729.4797754 863.8199999999999C729.0597754 863.8199999999999 727.0997754 862.56 723.1797754 861.16C718.2797754 859.4799999999999 713.5197754 858.2199999999999 708.6197754 858.2199999999999C689.0197754 858.2199999999999 676.2797754 871.0999999999999 676.2797754 888.88C676.2797754 903.4399999999999 685.3797754 914.78 701.6197754 920.0999999999999L716.5997754 925.14C729.0597754 929.1999999999999 734.9397754 933.4 734.9397754 942.2199999999999C734.9397754 950.9 727.5197754 957.4799999999999 716.5997754 957.4799999999999C702.3197754 957.4799999999999 689.9997754 946.14 681.5997754 923.74H672.9197754Z"/>
<path id="block_54" data-char="T" class="st0" d="M820,820v183.539551h183.539551V820H820zM988.539551,988.539551H835V835h153.539551V988.539551zM899.0297754 867.8799999999999V943.9C899.0297754 953.14 896.7897753999999 954.68 884.8897754 955.66V962.8H938.5097754V955.66C926.6097754 954.68 924.3697754 953.14 924.3697754 943.9V867.8799999999999H926.3297754C941.3097754 867.8799999999999 948.7297754 877.68 950.8297754 899.38H958.1097754L956.5697754 860.7399999999999H866.8297754L865.4297754 899.38H872.5697754C874.6697753999999 877.68 882.0897754 867.8799999999999 897.0697754 867.8799999999999Z"/>
<path id="block_55" data-char="U" class="st1" d="M1020,820v183.539551h183.539551V820H1020zM1188.539551,988.539551H1035V835h153.539551V988.539551zM1071.0997754 879.64V922.6199999999999C1071.0997754 951.88 1083.2797754 965.18 1111.6997754000001 965.18C1140.2597754 965.18 1152.4397754000001 951.88 1152.4397754000001 922.6199999999999V879.64C1152.4397754000001 870.4 1153.6997754000001 868.5799999999999 1164.6197754 867.8799999999999V860.7399999999999H1132.9797754V867.8799999999999C1142.7797754 868.4399999999999 1143.8997754000002 870.8199999999999 1143.8997754000002 879.64V924.7199999999999C1143.8997754000002 945.4399999999999 1136.4797754 955.38 1119.9597754000001 955.38C1103.1597754000002 955.38 1096.4397754000001 945.5799999999999 1096.4397754000001 924.7199999999999V879.64C1096.4397754000001 870.8199999999999 1097.5597754 868.4399999999999 1107.3597754 867.8799999999999V860.7399999999999H1058.9197754000002V867.8799999999999C1069.8397754 868.5799999999999 1071.0997754 870.4 1071.0997754 879.64Z"/>
<path id="block_56" data-char="V" class="st2" d="M1220,820v183.539551h183.539551V820H1220zM1388.539551,988.539551H1235V835h153.539551V988.539551zM1304.6297754 965.18H1319.0497754L1349.7097754 881.74C1352.7897754 873.4799999999999 1356.1497754 869.14 1363.0097754 867.8799999999999V860.7399999999999H1330.9497754V867.8799999999999C1338.6497754 869.0 1342.2897754 870.68 1342.2897754 874.74C1342.2897754 876.6999999999999 1341.3097754 879.0799999999999 1340.1897754 882.3L1321.1497754 936.62L1299.8697754 878.8C1299.1697754 876.8399999999999 1298.7497754 875.3 1298.7497754 874.04C1298.7497754 869.9799999999999 1301.9697754 868.7199999999999 1308.9697754 867.8799999999999V860.7399999999999H1260.5297754V867.8799999999999C1267.8097754 869.28 1270.6097754 872.5 1273.4097754 880.06Z"/>
<path id="block_57" data-char="W" class="st3" d="M1420,820v183.539551h183.539551V820H1420zM1588.539551,988.539551H1435V835h153.539551V988.539551zM1483.3497754 860.7399999999999H1441.9097754V867.8799999999999C1449.0497754 868.5799999999999 1450.0297754 872.64 1452.1297754 880.06L1476.9097754 965.18H1489.5097754L1511.9097754 890.0L1530.5297754 965.18H1543.6897754000001L1569.4497754000001 881.74C1572.1097754 873.3399999999999 1575.7497754 868.8599999999999 1581.6297754 867.8799999999999V860.7399999999999H1550.8297754V867.8799999999999C1558.6697754 869.14 1561.7497754 870.1199999999999 1561.7497754 874.74C1561.7497754 876.9799999999999 1561.1897754000001 879.3599999999999 1560.3497754 882.3L1544.9497754000001 934.66L1530.8097754 878.8C1530.2497754 876.8399999999999 1529.9697754000001 875.3 1529.9697754000001 873.9C1529.9697754000001 870.1199999999999 1532.9097754 868.5799999999999 1539.2097754000001 867.8799999999999V860.7399999999999H1495.1097754V867.8799999999999C1502.5297754 869.0 1505.8897754 871.8 1507.0097754 878.8L1490.9097754 934.0999999999999L1476.9097754 878.8C1476.4897754 876.8399999999999 1476.0697754 875.4399999999999 1476.0697754 873.9C1476.0697754 870.68 1478.3097754 869.0 1483.3497754 867.8799999999999Z"/>
<path id="block_58" data-char="X" class="st0" d="M1620,820v183.539551h183.539551V820H1620zM1788.539551,988.539551H1635V835h153.539551V988.539551zM1705.8897754 922.6199999999999 1722.1297754 945.5799999999999C1723.8097754 947.9599999999999 1724.6497754 950.62 1724.6497754 951.3199999999999C1724.6497754 954.4 1722.4097754 955.66 1717.2297753999999 955.66H1712.4697754V962.8H1767.2097754V955.66C1756.9897753999999 955.66 1753.9097754 949.92 1748.3097754 941.8L1721.4297754 903.16L1742.5697754 877.68C1748.1697754 870.9599999999999 1753.4897753999999 867.8799999999999 1762.4497754 867.8799999999999H1763.0097753999999V860.7399999999999H1721.7097754V867.8799999999999H1723.2497753999999C1729.6897754 867.8799999999999 1732.9097754 869.56 1732.9097754 872.2199999999999C1732.9097754 873.6199999999999 1731.5097753999999 877.8199999999999 1728.1497754 881.74L1716.3897754 895.88L1703.7897754 877.8199999999999C1701.6897754 874.88 1700.5697754 872.5 1700.5697754 870.68C1700.5697754 869.0 1702.8097754 867.8799999999999 1706.5897754 867.8799999999999H1710.7897754V860.7399999999999H1656.7497753999999V867.8799999999999H1657.3097754C1666.4097754 867.8799999999999 1670.6097754 871.52 1675.2297753999999 878.24L1700.7097754 915.3399999999999L1682.3697754 937.3199999999999C1674.2497753999999 947.12 1667.6697754 953.6999999999999 1656.3297754 955.66L1656.4697754 962.8H1698.3297754V955.66C1689.9297754 955.0999999999999 1685.8697754 953.6999999999999 1685.8697754 950.06C1685.8697754 947.9599999999999 1686.9897753999999 945.02 1689.3697754 942.2199999999999Z"/>
<path id="block_59" data-char="Y" class="st1" d="M1820,820v183.539551h183.539551V820H1820zM1988.539551,988.539551H1835V835h153.539551V988.539551zM1873.9697754000001 880.06 1899.0297754 922.3399999999999V943.9C1899.0297754 953.42 1896.2297754 954.8199999999999 1883.4897754 955.66V962.8H1939.7697754V955.66C1927.0297754 954.8199999999999 1924.2297754 953.42 1924.2297754 943.9V922.3399999999999L1948.8697754000002 881.74C1954.1897754000001 873.06 1957.5497754 867.8799999999999 1964.2697754 867.8799999999999H1965.3897754000002V860.7399999999999H1928.8497754V867.8799999999999C1937.8097754 868.7199999999999 1941.5897754 870.4 1941.5897754 875.3C1941.5897754 877.1199999999999 1941.0297754 879.78 1939.4897754 882.3L1921.5697754 912.9599999999999L1901.1297754000002 878.8C1900.2897754 877.54 1899.8697754000002 876.0 1899.8697754000002 874.3199999999999C1899.8697754000002 869.8399999999999 1903.6497754000002 868.16 1911.9097754000002 867.8799999999999V860.7399999999999H1858.1497754000002V867.8799999999999H1859.2697754C1865.2897754 867.8799999999999 1869.0697754 871.9399999999999 1873.9697754000001 880.06Z"/>
<path id="block_5A" data-char="Z" class="st2" d="M2020,820v183.539551h183.539551V820H2020zM2188.539551,988.539551H2035V835h153.539551V988.539551zM2155.0297754 860.7399999999999H2075.0897754L2072.0097754 897.6999999999999H2080.2697753999996C2083.6297753999997 876.8399999999999 2092.8697754 868.16 2112.0497754 868.16H2125.9097754L2068.5097754 954.68V962.8H2152.6497753999997L2155.0297754 925.56H2147.4697754C2143.9697754 946.56 2134.8697754 954.68 2114.7097753999997 954.68H2097.4897754L2155.0297754 868.16Z"/>
<path id="block_5B" data-char="[" class="st3" d="M2220,820v183.539551h183.539551V820H2220zM2388.539551,988.539551H2235V835h153.539551V988.539551zM2291.6797754 974.8399999999999H2331.8597754V967.6999999999999H2309.8797754V867.8799999999999H2331.8597754V860.7399999999999H2291.6797754Z"/>
<path id="block_5C" data-char="\" class="st0" d="M20,1020v183.539551h183.539551V1020H20zM188.539551,1188.539551H35V1035h153.539551V1188.539551zM89.43977539999999 1058.22 124.7197754 1175.82H134.0997754L98.8197754 1058.22Z"/>
<path id="block_5D" data-char="]" class="st1" d="M220,1020v183.539551h183.539551V1020H220zM388.539551,1188.539551H235V1035h153.539551V1188.539551zM331.8597754 1060.74H291.67977540000004V1067.8799999999999H313.6597754V1167.7H291.67977540000004V1174.84H331.8597754Z"/>
<path id="block_5E" data-char="^" class="st2" d="M420,1020v183.539551h183.539551V1020H420zM588.539551,1188.539551H435V1035h153.539551V1188.539551zM502.9497754 1062.84 470.0497754 1101.48H478.30977540000004L511.7697754 1077.6799999999998L545.2297754 1101.48H553.4897754L520.7297754 1062.84Z"/>
<path id="block_5F" data-char="_" class="st3" d="M620,1020v183.539551h183.539551V1020H620zM788.539551,1188.539551H635V1035h153.539551V1188.539551zM676.7697754 1179.46V1195.84H746.7697754V1179.46Z"/>
<path id="block_60" data-char="`" class="st0" d="M820,1020v183.539551h183.539551V1020H820zM988.539551,1188.539551H835V1035h153.539551V1188.539551zM921.7097754 1080.06H927.1697753999999L907.7097754 1063.12C905.7497754 1061.44 904.3497754 1060.32 901.9697754 1060.32C898.7497754 1060.32 896.3697754 1062.7 896.3697754 1065.9199999999998C896.3697754 1068.44 897.9097754 1070.26 900.8497754 1071.52Z"/>
<path id="block_61" data-char="a" class="st1" d="M1020,1020v183.539551h183.539551V1020H1020zM1188.539551,1188.539551H1035V1035h153.539551V1188.539551zM1117.6497754 1126.26C1117.7897754 1128.6399999999999 1117.9297754 1131.02 1117.9297754 1133.12C1117.9297754 1146.4199999999998 1114.2897754 1152.86 1105.8897754 1152.86C1099.7297753999999 1152.86 1096.0897754 1149.08 1096.0897754 1142.9199999999998C1096.0897754 1133.82 1103.2297753999999 1128.36 1117.6497754 1126.26ZM1119.0497754 1153.28C1121.7097754 1160.84 1126.0497754 1164.34 1133.1897754 1164.34C1141.5897754 1164.34 1149.0097753999999 1158.6 1149.0097753999999 1155.1C1149.0097753999999 1153.84 1148.0297754 1152.72 1146.9097754 1152.72C1145.5097753999999 1152.72 1143.6897754 1154.26 1141.8697754 1154.26C1139.9097754 1154.26 1139.0697754 1153.0 1139.0697754 1150.48V1115.2C1139.0697754 1096.44 1129.4097754 1087.62 1107.8497754 1087.62C1089.3697754 1087.62 1078.1697754 1095.74 1078.1697754 1105.54C1078.1697754 1111.56 1082.6497754 1115.8999999999999 1089.5097753999999 1115.8999999999999C1096.2297753999999 1115.8999999999999 1100.5697754 1111.7 1100.5697754 1106.3799999999999C1100.5697754 1104.4199999999998 1100.0097753999999 1102.46 1099.1697754 1101.2L1097.2097754 1098.12C1096.7897754 1097.4199999999998 1096.5097753999999 1097.0 1096.5097753999999 1096.86C1096.5097753999999 1095.6 1099.7297753999999 1093.78 1104.4897753999999 1093.78C1115.2697754 1093.78 1117.6497754 1099.1 1117.6497754 1110.3V1120.3799999999999C1088.8097754 1122.62 1074.5297754 1130.8799999999999 1074.5297754 1146.4199999999998C1074.5297754 1157.2 1082.6497754 1165.04 1094.1297754 1165.04C1102.3897754 1165.04 1110.7897754 1161.12 1119.0497754 1153.28Z"/>
<path id="block_62" data-char="b" class="st2" d="M1220,1020v183.539551h183.539551V1020H1220zM1388.539551,1188.539551H1235V1035h153.539551V1188.539551zM1285.5197753999998 1165.04 1298.2597753999999 1153.4199999999998C1304.5597754 1161.26 1311.5597754 1165.04 1320.6597754 1165.04C1338.8597754 1165.04 1351.7397753999999 1150.2 1351.7397753999999 1126.3999999999999C1351.7397753999999 1102.46 1338.9997753999999 1087.62 1321.3597754 1087.62C1313.2397753999999 1087.62 1306.9397754 1091.12 1301.4797753999999 1098.3999999999999V1055.1399999999999C1290.9797753999999 1057.1 1281.0397754 1058.36 1271.7997754 1058.5V1064.94C1278.0997754 1065.08 1279.7797754 1067.04 1279.7797754 1073.48V1165.04ZM1314.6397754 1156.22C1306.2397753999999 1156.22 1301.6197754 1146.1399999999999 1301.6197754 1126.26C1301.6197754 1106.3799999999999 1306.2397753999999 1096.3 1314.6397754 1096.3C1323.0397754 1096.3 1327.5197754 1106.3799999999999 1327.5197754 1126.26C1327.5197754 1146.1399999999999 1323.0397754 1156.22 1314.6397754 1156.22Z"/>
<path id="block_63" data-char="c" class="st3" d="M1420,1020v183.539551h183.539551V1020H1420zM1588.539551,1188.539551H1435V1035h153.539551V1188.539551zM1545.2997754 1146.98 1540.1197754 1143.34C1533.5397754 1151.46 1526.9597754000001 1155.52 1520.3797754 1155.52C1508.0597754 1155.52 1502.4597754000001 1145.1599999999999 1502.4597754000001 1123.8799999999999C1502.4597754000001 1103.72 1507.3597754 1094.06 1519.3997754 1094.06C1525.5597754 1094.06 1529.4797754 1096.86 1529.4797754 1098.3999999999999C1529.4797754 1099.1 1529.1997754000001 1099.94 1528.3597754 1100.6399999999999L1525.9797754 1102.8799999999999C1523.5997754 1105.12 1522.3397754 1107.78 1522.3397754 1110.72C1522.3397754 1116.1799999999998 1526.5397754 1119.96 1532.6997754000001 1119.96C1539.6997754000001 1119.96 1544.3197754 1115.48 1544.3197754 1108.62C1544.3197754 1097.1399999999999 1533.1197754 1087.62 1516.4597754000001 1087.62C1493.4997754 1087.62 1478.2397754 1103.1599999999999 1478.2397754 1126.96C1478.2397754 1149.9199999999998 1493.0797754 1165.18 1513.7997754 1165.18C1526.8197754 1165.18 1537.5997754 1159.02 1545.2997754 1146.98Z"/>
<path id="block_64" data-char="d" class="st0" d="M1620,1020v183.539551h183.539551V1020H1620zM1788.539551,1188.539551H1635V1035h153.539551V1188.539551zM1708.1297754 1156.36C1699.7297754 1156.36 1695.1097754 1146.28 1695.1097754 1126.3999999999999C1695.1097754 1106.52 1699.7297754 1096.44 1708.1297754 1096.44C1716.5297754 1096.44 1721.0097754 1106.52 1721.0097754 1126.3999999999999C1721.0097754 1146.28 1716.5297754 1156.36 1708.1297754 1156.36ZM1708.5497754 1058.08V1064.6599999999999H1709.8097754C1718.7697754 1064.6599999999999 1721.2897754 1066.2 1721.2897754 1073.06V1098.54C1718.0697754 1091.6799999999998 1710.7897754 1087.62 1701.4097754 1087.62C1684.0497754 1087.62 1671.0297754 1102.74 1671.0297754 1126.3999999999999C1671.0297754 1150.34 1683.7697754 1165.04 1701.4097754 1165.04C1711.4897754 1165.04 1718.9097754 1159.86 1724.7897754 1149.22V1166.02C1733.3297754 1163.78 1742.5697754 1162.8 1752.5097754 1162.8V1156.22C1744.2497754 1156.22 1742.9897754 1155.1 1742.9897754 1147.82V1054.86C1731.9297754 1056.82 1720.4497754 1057.94 1708.5497754 1058.08Z"/>
<path id="block_65" data-char="e" class="st1" d="M1820,1020v183.539551h183.539551V1020H1820zM1988.539551,1188.539551H1835V1035h153.539551V1188.539551zM1946.2797754 1125.1399999999999V1124.1599999999999C1946.2797754 1101.62 1932.5597754 1087.62 1912.8197754 1087.62C1892.0997754 1087.62 1877.2597754 1103.3 1877.2597754 1126.3999999999999C1877.2597754 1138.1599999999999 1881.1797754 1148.24 1888.7397754 1155.52C1895.0397754 1161.68 1903.4397754 1165.04 1912.8197754 1165.04C1928.9197754 1165.04 1939.8397754 1157.8999999999999 1945.5797754 1143.48L1938.9997754 1141.1C1933.6797754 1151.74 1926.1197754 1157.34 1917.8597754 1157.34C1906.7997754 1157.34 1902.0397754 1148.52 1902.0397754 1130.46C1902.0397754 1128.78 1902.0397754 1126.96 1902.1797754 1125.1399999999999ZM1902.0397754 1118.7C1902.4597754000001 1101.76 1904.5597754 1094.06 1912.6797754 1094.06C1920.5197754 1094.06 1923.1797754 1101.34 1923.1797754 1117.44V1118.7Z"/>
<path id="block_66" data-char="f" class="st2" d="M2020,1020v183.539551h183.539551V1020H2020zM2188.539551,1188.539551H2035V1035h153.539551V1188.539551zM2111.6297754 1146.56V1102.1799999999998H2128.8497754V1095.46H2111.6297754V1080.62C2111.6297754 1067.46 2114.4297754 1061.1599999999999 2121.7097754 1061.1599999999999C2124.2297754 1061.1599999999999 2126.0497754 1062.56 2126.0497754 1063.6799999999998C2126.0497754 1064.24 2125.7697754 1064.94 2125.3497754 1065.5L2123.8097754 1067.32C2122.8297754 1068.44 2122.1297754 1070.26 2122.1297754 1072.36C2122.1297754 1077.96 2125.4897754 1081.04 2131.2297754 1081.04C2137.9497754 1081.04 2142.0097754 1077.12 2142.0097754 1070.96C2142.0097754 1062.0 2134.1697754 1055.1399999999999 2121.2897754 1055.1399999999999C2101.2697754 1055.1399999999999 2089.7897754 1068.1599999999999 2089.7897754 1092.1C2089.7897754 1093.22 2089.9297754 1094.34 2089.9297754 1095.46H2081.5297754V1102.1799999999998H2089.9297754V1146.56C2089.9297754 1153.1399999999999 2088.9497754 1155.3799999999999 2082.6497754 1156.36V1162.8H2123.3897754V1156.36H2119.0497754C2113.1697754 1156.36 2111.6297754 1153.1399999999999 2111.6297754 1146.56Z"/>
<path id="block_67" data-char="g" class="st3" d="M2220,1020v183.539551h183.539551V1020H2220zM2388.539551,1188.539551H2235V1035h153.539551V1188.539551zM2289.5097754 1160.28C2276.9097754 1162.6599999999999 2271.1697753999997 1166.86 2271.1697753999997 1174.98C2271.1697753999997 1185.48 2284.4697754 1194.3 2307.1497753999997 1194.3C2333.0497754 1194.3 2347.8897754 1184.36 2347.8897754 1169.3799999999999C2347.8897754 1159.58 2342.7097753999997 1153.4199999999998 2331.7897753999996 1149.78C2328.2897753999996 1148.6599999999999 2319.6097753999998 1148.1 2305.6097753999998 1147.82C2294.8297753999996 1147.54 2288.9497754 1146.98 2288.9497754 1142.36C2288.9497754 1139.84 2291.0497754 1137.6 2295.1097753999998 1135.78C2298.6097753999998 1136.8999999999999 2302.5297754 1137.32 2306.5897754 1137.32C2327.7297753999997 1137.32 2339.9097754 1128.08 2339.9097754 1113.3799999999999C2339.9097754 1105.96 2336.8297753999996 1099.52 2330.9497754 1094.48C2332.2097753999997 1092.24 2333.6097753999998 1091.26 2335.8497754 1091.26C2338.2297753999997 1091.26 2341.4497754 1093.6399999999999 2345.9297754 1093.6399999999999C2349.8497754 1093.6399999999999 2352.3697754 1091.12 2352.3697754 1087.34C2352.3697754 1082.86 2348.7297753999997 1079.5 2342.8497754 1079.5C2336.2697753999996 1079.5 2330.9497754 1083.4199999999998 2326.0497754 1091.54C2320.3097753999996 1088.8799999999999 2314.2897753999996 1087.62 2307.9897754 1087.62C2288.6697753999997 1087.62 2276.2097753999997 1098.12 2276.2097753999997 1112.12C2276.2097753999997 1121.22 2279.9897754 1127.8 2287.8297753999996 1132.4199999999998C2280.2697753999996 1136.76 2276.4897754 1141.52 2276.4897754 1147.12C2276.4897754 1153.56 2280.8297753999996 1158.04 2289.5097754 1160.28ZM2307.9897754 1130.74C2300.7097753999997 1130.74 2295.6697753999997 1124.02 2295.6697753999997 1112.3999999999999C2295.6697753999997 1100.78 2300.7097753999997 1094.2 2307.9897754 1094.2C2315.2697753999996 1094.2 2320.3097753999996 1100.9199999999998 2320.3097753999996 1112.3999999999999C2320.3097753999996 1123.8799999999999 2315.2697753999996 1130.74 2307.9897754 1130.74ZM2284.1897753999997 1175.12C2284.1897753999997 1168.3999999999999 2292.5897754 1163.36 2308.1297753999997 1163.36C2323.6697753999997 1163.36 2332.2097753999997 1168.3999999999999 2332.2097753999997 1175.12C2332.2097753999997 1181.98 2323.6697753999997 1187.02 2308.1297753999997 1187.02C2292.5897754 1187.02 2284.1897753999997 1181.98 2284.1897753999997 1175.12Z"/>
<path id="block_68" data-char="h" class="st0" d="M20,1220v183.539551h183.539551V1220H20zM188.539551,1388.539551H35V1235h153.539551V1388.539551zM144.1097754 1346.56V1319.26C144.1097754 1298.54 139.3497754 1288.74 125.0697754 1288.74C116.2497754 1288.74 108.5497754 1293.08 101.6897754 1301.8999999999999V1255.1399999999999C91.60977539999999 1256.96 81.66977539999999 1258.22 72.0097754 1258.5V1264.94C78.7297754 1265.08 79.9897754 1267.04 79.9897754 1273.48V1346.56C79.9897754 1353.1399999999999 79.0097754 1355.3799999999999 72.7097754 1356.36V1362.8H108.9697754V1356.36C102.66977539999999 1355.6599999999999 101.6897754 1353.28 101.6897754 1346.56V1323.74C101.6897754 1308.62 107.0097754 1300.5 114.8497754 1300.5C121.0097754 1300.5 122.4097754 1304.98 122.4097754 1315.06V1346.56C122.4097754 1353.28 121.42977540000001 1355.6599999999999 115.1297754 1356.36V1362.8H151.5297754V1356.36C145.2297754 1355.3799999999999 144.1097754 1353.1399999999999 144.1097754 1346.56Z"/>
<path id="block_69" data-char="i" class="st1" d="M220,1220v183.539551h183.539551V1220H220zM388.539551,1388.539551H235V1235h153.539551V1388.539551zM293.70977539999996 1362.8H330.38977539999996V1356.36C324.0897754 1355.3799999999999 323.1097754 1353.1399999999999 323.1097754 1346.56V1287.62C311.62977539999997 1288.74 301.6897754 1289.44 293.14977539999995 1289.86V1296.44C299.8697754 1296.58 300.9897754 1298.3999999999999 300.9897754 1304.84V1346.56C300.9897754 1353.1399999999999 300.00977539999997 1355.3799999999999 293.70977539999996 1356.36ZM298.1897754 1265.78C298.1897754 1271.8 302.94977539999996 1276.1399999999999 310.3697754 1276.1399999999999C317.9297754 1276.1399999999999 322.6897754 1271.8 322.6897754 1265.78C322.6897754 1260.04 317.64977539999995 1255.1399999999999 310.3697754 1255.1399999999999C303.0897754 1255.1399999999999 298.1897754 1259.8999999999999 298.1897754 1265.78Z"/>
<path id="block_6A" data-char="j" class="st2" d="M420,1220v183.539551h183.539551V1220H420zM588.539551,1388.539551H435V1235h153.539551V1388.539551zM511.2797754 1265.78C511.2797754 1271.8 516.1797754 1276.1399999999999 523.5997754 1276.1399999999999C531.1597754 1276.1399999999999 535.9197753999999 1271.8 535.9197753999999 1265.78C535.9197753999999 1260.04 530.8797754 1255.1399999999999 523.5997754 1255.1399999999999C516.3197754 1255.1399999999999 511.2797754 1259.8999999999999 511.2797754 1265.78ZM515.8997754 1304.84V1372.74C515.8997754 1382.82 512.1197754 1388.1399999999999 506.5197754 1388.1399999999999C504.69977539999996 1388.1399999999999 503.5797754 1387.3 503.5797754 1386.6C503.5797754 1385.62 505.25977539999997 1383.6599999999999 505.25977539999997 1380.58C505.25977539999997 1374.84 501.75977539999997 1371.76 495.4597754 1371.76C489.8597754 1371.76 485.9397754 1375.68 485.9397754 1381.28C485.9397754 1388.98 492.9397754 1394.3 505.6797754 1394.3C516.4597754 1394.3 525.9797754 1389.96 531.4397754 1382.96C536.8997754 1376.1 537.5997754 1367.84 537.5997754 1357.2V1287.62C524.9997754 1288.8799999999999 513.2397754 1289.58 502.31977539999997 1289.86V1296.44H507.9197754C514.3597754 1296.44 515.8997754 1298.54 515.8997754 1304.84Z"/>
<path id="block_6B" data-char="k" class="st3" d="M620,1220v183.539551h183.539551V1220H620zM788.539551,1388.539551H635V1235h153.539551V1388.539551zM700.2197754 1346.56V1330.74L704.6997754 1326.82L719.9597754 1349.78C720.7997754 1351.04 721.2197754 1352.02 721.2197754 1353.0C721.2197754 1354.96 719.3997754000001 1355.94 715.0597754 1356.36V1362.8H752.9997754000001V1356.36C748.7997754 1355.6599999999999 746.2797754000001 1353.1399999999999 743.4797754000001 1348.8L720.7997754 1314.08L734.5197754000001 1302.74C738.8597754 1299.1 743.1997754 1297.0 749.2197754 1296.3V1289.86H713.0997754V1296.3C719.5397754 1297.0 722.4797754 1298.26 722.4797754 1301.2C722.4797754 1302.46 721.6397754000001 1304.28 720.0997754 1305.6799999999998L700.2197754 1323.1799999999998V1255.1399999999999C690.1397754000001 1256.96 680.1997754 1258.22 670.5397754 1258.5V1264.94C676.9797754 1265.08 678.5197754000001 1267.04 678.5197754000001 1273.48V1346.56C678.5197754000001 1353.1399999999999 677.5397754 1355.3799999999999 671.2397754 1356.36V1362.8H707.4997754000001V1356.36C701.1997754 1355.6599999999999 700.2197754 1353.28 700.2197754 1346.56Z"/>
<path id="block_6C" data-char="l" class="st0" d="M820,1220v183.539551h183.539551V1220H820zM988.539551,1388.539551H835V1235h153.539551V1388.539551zM901.0597754 1273.48V1346.56C901.0597754 1353.1399999999999 900.0797754 1355.3799999999999 893.7797754 1356.36V1362.8H930.4597754V1356.36C924.1597754000001 1355.3799999999999 923.0397754 1353.1399999999999 923.0397754 1346.56V1255.1399999999999C912.6797754 1256.96 902.7397754 1258.22 893.0797754 1258.5V1264.94C899.5197754 1265.08 901.0597754 1267.04 901.0597754 1273.48Z"/>
<path id="block_6D" data-char="m" class="st1" d="M1020,1220v183.539551h183.539551V1220H1020zM1188.539551,1388.539551H1035V1235h153.539551V1388.539551zM1093.8497754 1362.8H1130.2497754V1356.36C1123.9497754 1355.6599999999999 1122.9697754000001 1353.28 1122.9697754000001 1346.56V1323.74C1122.9697754000001 1308.62 1128.2897754 1300.5 1136.1297754 1300.5C1142.2897754 1300.5 1143.6897754 1304.98 1143.6897754 1315.06V1346.56C1143.6897754 1353.28 1142.7097754000001 1355.6599999999999 1136.4097754 1356.36V1362.8H1172.6697754V1356.36C1166.3697754 1355.3799999999999 1165.3897754 1353.1399999999999 1165.3897754 1346.56V1319.26C1165.3897754 1298.54 1160.4897754 1288.74 1146.2097754000001 1288.74C1137.1097754 1288.74 1128.9897754 1293.5 1121.5697754 1303.3C1119.3297754 1293.6399999999999 1113.3097754 1288.74 1103.7897754 1288.74C1094.4097754 1288.74 1085.8697754 1293.9199999999998 1078.5897754 1304.28V1287.62C1069.6297754 1288.6 1060.3897754 1289.3 1050.8697754 1289.86V1296.44C1057.3097754 1296.58 1058.7097754 1298.3999999999999 1058.7097754 1304.84V1346.56C1058.7097754 1353.1399999999999 1057.7297754 1355.3799999999999 1051.4297754 1356.36V1362.8H1087.8297754V1356.36C1081.5297754 1355.6599999999999 1080.4097754 1353.28 1080.4097754 1346.56V1323.74C1080.4097754 1308.62 1085.8697754 1300.5 1093.7097754000001 1300.5C1099.8697754 1300.5 1101.2697754 1304.98 1101.2697754 1315.06V1346.56C1101.2697754 1353.28 1100.1497754 1355.6599999999999 1093.8497754 1356.36Z"/>
<path id="block_6E" data-char="n" class="st2" d="M1220,1220v183.539551h183.539551V1220H1220zM1388.539551,1388.539551H1235V1235h153.539551V1388.539551zM1344.1797754000002 1346.56V1319.26C1344.1797754000002 1298.54 1339.2797754 1288.74 1324.9997754 1288.74C1315.4797754 1288.74 1307.0797754 1293.9199999999998 1299.7997754 1304.28V1287.62C1290.8397754 1288.6 1281.5997754 1289.3 1272.0797754 1289.86V1296.44C1278.7997754 1296.72 1279.9197754 1298.54 1279.9197754 1304.84V1346.56C1279.9197754 1353.1399999999999 1278.9397754000001 1355.3799999999999 1272.6397754 1356.36V1362.8H1309.0397754V1356.36C1302.7397754 1355.6599999999999 1301.6197754 1353.28 1301.6197754 1346.56V1323.74C1301.6197754 1308.62 1307.0797754 1300.5 1314.9197754000002 1300.5C1321.0797754 1300.5 1322.4797754 1304.98 1322.4797754 1315.06V1346.56C1322.4797754 1353.28 1321.3597754 1355.6599999999999 1315.0597754 1356.36V1362.8H1351.4597754000001V1356.36C1345.2997754 1355.3799999999999 1344.1797754000002 1353.1399999999999 1344.1797754000002 1346.56Z"/>
<path id="block_6F" data-char="o" class="st3" d="M1420,1220v183.539551h183.539551V1220H1420zM1588.539551,1388.539551H1435V1235h153.539551V1388.539551zM1511.6997754 1365.04C1521.2197754 1365.04 1529.3397753999998 1361.82 1535.9197754 1355.3799999999999C1543.3397753999998 1348.1 1547.3997754 1338.1599999999999 1547.3997754 1326.3999999999999C1547.3997754 1303.3 1532.5597753999998 1287.62 1511.6997754 1287.62C1490.9797753999999 1287.62 1476.1397754 1303.3 1476.1397754 1326.3999999999999C1476.1397754 1338.1599999999999 1480.0597753999998 1348.1 1487.4797753999999 1355.3799999999999C1493.9197754 1361.68 1502.1797754 1365.04 1511.6997754 1365.04ZM1511.6997754 1358.46C1502.1797754 1358.46 1500.3597754 1348.24 1500.3597754 1326.3999999999999C1500.3597754 1304.56 1502.1797754 1294.2 1511.6997754 1294.2C1521.2197754 1294.2 1523.0397753999998 1304.56 1523.0397753999998 1326.3999999999999C1523.0397753999998 1348.24 1521.2197754 1358.46 1511.6997754 1358.46Z"/>
<path id="block_70" data-char="p" class="st0" d="M1620,1220v183.539551h183.539551V1220H1620zM1788.539551,1388.539551H1635V1235h153.539551V1388.539551zM1701.4797753999999 1377.08V1354.12C1704.6997754 1360.98 1711.8397753999998 1365.04 1721.2197754 1365.04C1738.5797754 1365.04 1751.7397753999999 1350.06 1751.7397753999999 1326.3999999999999C1751.7397753999999 1302.46 1738.8597754 1287.62 1721.2197754 1287.62C1711.6997754 1287.62 1704.2797753999998 1292.3799999999999 1699.5197753999998 1301.48V1287.62C1690.8397753999998 1288.6 1681.5997754 1289.44 1671.7997753999998 1289.86V1296.44C1678.3797754 1296.58 1679.7797753999998 1298.3999999999999 1679.7797753999998 1304.84V1377.08C1679.7797753999998 1383.6599999999999 1678.6597754 1385.76 1672.3597754 1386.74V1393.32H1712.8197753999998V1386.74H1711.1397754C1703.0197753999998 1386.74 1701.4797753999999 1384.6399999999999 1701.4797753999999 1377.08ZM1714.6397754 1356.22C1706.2397753999999 1356.22 1701.6197754 1346.1399999999999 1701.6197754 1326.26C1701.6197754 1306.3799999999999 1706.2397753999999 1296.3 1714.6397754 1296.3C1723.0397753999998 1296.3 1727.5197753999998 1306.3799999999999 1727.5197753999998 1326.26C1727.5197753999998 1346.1399999999999 1723.0397753999998 1356.22 1714.6397754 1356.22Z"/>
<path id="block_71" data-char="q" class="st1" d="M1820,1220v183.539551h183.539551V1220H1820zM1988.539551,1388.539551H1835V1235h153.539551V1388.539551zM1911.0697754 1393.32H1951.3897754000002V1386.74C1945.0897754000002 1385.76 1944.1097754000002 1383.6599999999999 1944.1097754000002 1377.08V1287.62H1938.2297754L1925.6297754000002 1299.24C1919.3297754 1291.12 1912.1897754000001 1287.62 1902.3897754000002 1287.62C1884.8897754000002 1287.62 1872.1497754000002 1302.46 1872.1497754000002 1326.3999999999999C1872.1497754000002 1350.06 1885.1697754000002 1365.04 1902.5297754 1365.04C1911.9097754000002 1365.04 1919.1897754000001 1360.98 1922.4097754000002 1354.12V1377.08C1922.4097754000002 1384.6399999999999 1920.8697754000002 1386.74 1912.7497754 1386.74H1911.0697754ZM1909.2497754 1356.22C1900.8497754 1356.22 1896.2297754 1346.1399999999999 1896.2297754 1326.26C1896.2297754 1306.3799999999999 1900.8497754 1296.3 1909.2497754 1296.3C1917.6497754000002 1296.3 1922.1297754000002 1306.3799999999999 1922.1297754000002 1326.26C1922.1297754000002 1346.1399999999999 1917.6497754000002 1356.22 1909.2497754 1356.22Z"/>
<path id="block_72" data-char="r" class="st2" d="M2020,1220v183.539551h183.539551V1220H2020zM2188.539551,1388.539551H2035V1235h153.539551V1388.539551zM2081.0397754 1362.8H2120.9397753999997V1356.36H2117.4397753999997C2111.5597754 1356.36 2110.0197754 1353.1399999999999 2110.0197754 1346.56V1325.98C2110.0197754 1306.6599999999999 2117.2997754 1297.56 2121.3597753999998 1297.56C2122.8997753999997 1297.56 2123.7397754 1298.3999999999999 2123.7397754 1299.6599999999999C2123.7397754 1299.94 2123.7397754 1300.36 2123.5997754 1300.78L2122.8997753999997 1303.72C2122.7597754 1304.28 2122.6197754 1304.98 2122.6197754 1305.54C2122.6197754 1309.74 2126.3997753999997 1313.24 2131.8597753999998 1313.24C2138.5797754 1313.24 2143.0597754 1308.76 2143.0597754 1302.1799999999998C2143.0597754 1294.48 2137.0397754 1288.74 2128.3597753999998 1288.74C2119.8197754 1288.74 2113.2397754 1293.9199999999998 2108.1997754 1304.56V1287.62C2099.2397754 1288.6 2089.9997754 1289.3 2080.4797754 1289.86V1296.44C2087.3397754 1296.58 2088.3197754 1298.12 2088.3197754 1304.84V1346.56C2088.3197754 1353.1399999999999 2087.3397754 1355.3799999999999 2081.0397754 1356.36Z"/>
<path id="block_73" data-char="s" class="st3" d="M2220,1220v183.539551h183.539551V1220H2220zM2388.539551,1388.539551H2235V1235h153.539551V1388.539551zM2283.5597754 1364.06H2289.0197753999996C2290.2797754 1361.3999999999999 2291.9597753999997 1360.0 2293.7797754 1360.0C2296.5797754 1360.0 2304.1397754 1365.04 2316.0397754 1365.04C2331.2997754 1365.04 2341.2397754 1355.8 2341.2397754 1341.24C2341.2397754 1328.08 2332.4197753999997 1322.06 2314.4997753999996 1315.48C2303.7197754 1311.56 2297.2797754 1309.8799999999999 2297.2797754 1303.02C2297.2797754 1297.84 2301.8997753999997 1294.06 2309.5997754 1294.06C2317.9997753999996 1294.06 2324.9997753999996 1299.6599999999999 2329.8997753999997 1310.72H2336.0597754V1288.46H2330.1797754C2329.6197754 1290.98 2328.0797754 1292.24 2326.1197754 1292.24C2323.3197754 1292.24 2316.8797753999997 1287.62 2307.0797754 1287.62C2292.2397754 1287.62 2282.2997754 1296.86 2282.2997754 1309.74C2282.2997754 1322.34 2290.8397754 1328.6399999999999 2308.0597754 1335.22C2318.2797754 1339.1399999999999 2324.7197754 1340.96 2324.7197754 1348.3799999999999C2324.7197754 1354.12 2319.9597753999997 1358.46 2312.6797754 1358.46C2303.0197753999996 1358.46 2296.2997754 1351.74 2289.8597753999998 1338.02H2283.5597754Z"/>
<path id="block_74" data-char="t" class="st0" d="M20,1420v183.539551h183.539551V1420H20zM188.539551,1588.539551H35V1435h153.539551V1588.539551zM95.8097754 1496.3V1539.4199999999998C95.8097754 1556.9199999999998 100.28977540000001 1565.04 114.00977540000001 1565.04C128.00977540000002 1565.04 136.1297754 1554.82 136.1297754 1535.78V1534.8H129.54977540000002C128.7097754 1546.56 126.1897754 1552.44 122.4097754 1552.44C118.9097754 1552.44 117.50977540000001 1547.82 117.50977540000001 1538.58V1496.3H133.88977540000002V1489.86H117.50977540000001V1461.02H109.94977540000001C106.1697754 1477.3999999999999 99.0297754 1486.36 87.4097754 1489.86V1496.3Z"/>
<path id="block_75" data-char="u" class="st1" d="M220,1420v183.539551h183.539551V1420H220zM388.539551,1588.539551H235V1435h153.539551V1588.539551zM322.1297754 1504.84V1530.04C322.1297754 1545.1599999999999 316.80977540000004 1553.28 308.9697754 1553.28C302.80977540000004 1553.28 301.4097754 1548.8 301.4097754 1538.72V1487.62C291.6097754 1488.6 281.80977540000004 1489.3 271.7297754 1489.86V1496.44C278.5897754 1496.58 279.7097754 1498.12 279.7097754 1504.84V1534.6599999999999C279.7097754 1555.3799999999999 284.6097754 1565.04 298.8897754 1565.04C308.4097754 1565.04 316.80977540000004 1559.86 324.0897754 1549.5V1565.04C333.04977540000004 1564.06 342.2897754 1563.36 351.80977540000004 1562.8V1556.22C344.9497754 1556.08 343.8297754 1554.54 343.8297754 1547.82V1487.62C334.0297754 1488.6 324.2297754 1489.3 314.1497754 1489.86V1496.44C321.0097754 1496.58 322.1297754 1498.12 322.1297754 1504.84Z"/>
<path id="block_76" data-char="v" class="st2" d="M420,1420v183.539551h183.539551V1420H420zM588.539551,1588.539551H435V1435h153.539551V1588.539551zM505.4697754 1565.04H516.9497754L540.3297754 1506.94C542.8497754 1500.5 545.6497754 1497.28 551.2497754 1496.44V1489.86H523.9497754L524.0897754 1496.44C530.2497754 1496.86 532.9097754 1498.26 532.9097754 1502.04C532.9097754 1503.3 532.6297754 1504.7 532.0697754 1506.1L518.4897754 1541.6599999999999L504.62977539999997 1503.3C504.3497754 1502.6 504.20977539999996 1501.62 504.20977539999996 1500.5C504.20977539999996 1497.56 506.5897754 1496.58 511.9097754 1496.44V1489.86H472.2897754L472.4297754 1496.44C478.58977539999995 1496.86 480.4097754 1500.9199999999998 483.3497754 1508.34Z"/>
<path id="block_77" data-char="w" class="st3" d="M620,1420v183.539551h183.539551V1420H620zM788.539551,1588.539551H635V1435h153.539551V1588.539551zM695.9497754 1565.04 712.0497754 1519.6799999999998 725.4897754000001 1565.04H736.1297754000001L758.2497754000001 1506.94C760.6297754000001 1500.5 763.1497754000001 1497.28 768.6097754 1496.44V1489.86H742.7097754V1496.44C748.5897754 1496.86 751.2497754000001 1498.26 751.2497754000001 1502.04C751.2497754000001 1503.1599999999999 750.9697754 1504.56 750.4097754000001 1506.1L738.5097754000001 1539.1399999999999L727.5897754 1503.3C727.3097754 1502.1799999999998 727.1697754 1501.34 727.1697754 1500.5C727.1697754 1497.56 729.5497754 1496.58 735.1497754000001 1496.44V1489.86H698.1897754L698.3297754 1496.44C704.3497754 1497.0 706.5897754 1500.6399999999999 708.4097754000001 1509.04L697.9097754000001 1539.98L684.6097754 1503.3C684.3297754 1502.6 684.1897754 1501.62 684.1897754 1500.36C684.1897754 1497.56 686.4297754 1496.58 691.3297754 1496.44V1489.86H654.9297754V1496.44C660.8097754 1497.0 662.6297754000001 1500.9199999999998 665.2897754 1508.34L685.8697754 1565.04Z"/>
<path id="block_78" data-char="x" class="st0" d="M820,1420v183.539551h183.539551V1420H820zM988.539551,1588.539551H835V1435h153.539551V1588.539551zM938.5097754 1547.54 921.2897754 1522.06 934.7297754 1505.54C938.9297754 1500.36 942.5697754 1497.0 948.8697754 1496.3V1489.86H920.5897754V1496.3C925.6297754 1496.44 927.8697754 1497.28 927.8697754 1499.8C927.8697754 1500.78 927.1697754 1502.8799999999999 926.1897754 1504.0L916.6697754 1515.62L907.5697754 1501.76C906.8697754 1500.78 906.3097754 1499.94 906.3097754 1498.96C906.3097754 1497.1399999999999 908.2697754 1496.44 912.4697754 1496.3V1489.86H873.1297754V1496.3C878.7297754 1497.4199999999998 881.9497754 1500.22 885.3097754 1505.26L901.1297754 1529.06L891.1897754 1541.6599999999999C885.3097754 1549.08 880.8297754 1554.3999999999999 872.8497754 1556.36V1562.8H901.1297754V1556.36C895.5297754 1556.08 892.8697754 1555.1 892.8697754 1552.86C892.8697754 1551.8799999999999 893.5697754 1550.34 894.6897754 1548.94L905.7497754 1535.78L915.5497754 1550.06C916.1097754 1550.8999999999999 916.3897754 1551.74 916.3897754 1552.58C916.3897754 1554.96 914.0097754 1555.94 909.1097754 1556.36V1562.8H950.6897754V1556.36C945.3697754 1555.24 941.8697754 1552.44 938.5097754 1547.54Z"/>
<path id="block_79" data-char="y" class="st1" d="M1020,1420v183.539551h183.539551V1420H1020zM1188.539551,1588.539551H1035V1435h153.539551V1588.539551zM1110.1597754 1562.52C1104.1397754 1578.8999999999999 1097.4197754 1587.02 1092.3797754 1587.02C1090.9797754 1587.02 1090.2797754 1586.74 1090.2797754 1586.18C1090.2797754 1585.34 1092.0997754 1583.24 1092.0997754 1579.46C1092.0997754 1574.28 1088.4597754000001 1570.9199999999998 1082.8597754 1570.9199999999998C1077.1197754 1570.9199999999998 1072.9197754 1574.98 1072.9197754 1581.56C1072.9197754 1589.26 1078.5197754 1594.3 1088.0397754 1594.3C1100.6397754 1594.3 1109.0397754 1584.78 1117.0197754 1565.04L1140.3997754 1506.94C1142.9197754 1500.5 1145.7197754000001 1497.28 1151.3197754 1496.44L1151.1797754 1489.86H1123.8797754L1124.0197754 1496.44C1130.1797754 1496.86 1132.9797754 1498.26 1132.9797754 1502.04C1132.9797754 1503.3 1132.6997754 1504.7 1132.1397754 1506.1L1120.3797754 1536.76L1105.8197754 1503.72C1105.2597754 1502.46 1104.8397754 1501.2 1104.8397754 1499.94C1104.8397754 1497.56 1107.2197754000001 1496.58 1112.3997754 1496.44V1489.86H1072.2197754000001L1072.4997754 1496.44C1077.5397754 1496.72 1080.7597754 1500.5 1084.3997754 1508.06Z"/>
<path id="block_7A" data-char="z" class="st2" d="M1220,1420v183.539551h183.539551V1420H1220zM1388.539551,1588.539551H1235V1435h153.539551V1588.539551zM1314.9897753999999 1555.6599999999999H1304.3497754L1341.3097754 1496.72V1489.86H1282.5097753999999L1281.2497753999999 1514.5H1289.0897754C1290.6297754 1502.8799999999999 1296.7897753999998 1497.0 1307.5697754 1497.0H1317.2297753999999L1280.6897754 1555.8V1562.8H1341.3097754L1342.8497754 1536.8999999999999H1335.0097753999999C1333.8897754 1549.5 1327.3097754 1555.6599999999999 1314.9897753999999 1555.6599999999999Z"/>
<path id="block_7B" data-char="{" class="st3" d="M1420,1420v183.539551h183.539551V1420H1420zM1588.539551,1588.539551H1435V1435h153.539551V1588.539551zM1534.7997754 1459.2H1533.9597754000001C1512.9597754000001 1459.2 1506.6597754 1464.94 1506.6597754 1482.86V1495.6C1506.6597754 1510.1599999999999 1503.2997754 1515.2 1488.7397754 1516.6V1522.06C1503.2997754 1523.46 1506.6597754 1528.5 1506.6597754 1543.06V1555.8C1506.6597754 1573.72 1512.9597754000001 1579.46 1533.9597754000001 1579.46H1534.7997754V1575.12C1523.5997754 1574.84 1521.6397754 1569.94 1521.6397754 1557.06V1548.1C1521.6397754 1530.8799999999999 1519.9597754000001 1522.8999999999999 1505.5397754 1519.3999999999999C1519.9597754000001 1515.8999999999999 1521.6397754 1507.78 1521.6397754 1490.56V1481.6C1521.6397754 1468.72 1523.5997754 1463.96 1534.7997754 1463.6799999999998Z"/>
<path id="block_7C" data-char="|" class="st0" d="M1620,1420v183.539551h183.539551V1420H1620zM1788.539551,1588.539551H1635V1435h153.539551V1588.539551zM1703.5797754 1455.84V1595.84H1719.9597754V1455.84Z"/>
<path id="block_7D" data-char="}" class="st1" d="M1820,1420v183.539551h183.539551V1420H1820zM1988.539551,1588.539551H1835V1435h153.539551V1588.539551zM1888.7397754 1459.2V1463.6799999999998C1899.9397754000001 1463.96 1901.8997754000002 1468.72 1901.8997754000002 1481.6V1490.56C1901.8997754000002 1507.6399999999999 1903.5797754 1515.76 1917.9997754 1519.3999999999999C1903.5797754 1522.8999999999999 1901.8997754000002 1530.8799999999999 1901.8997754000002 1548.1V1557.06C1901.8997754000002 1569.94 1899.9397754000001 1574.84 1888.7397754 1575.12V1579.46H1889.5797754C1910.5797754 1579.46 1916.8797754000002 1573.72 1916.8797754000002 1555.8V1543.06C1916.8797754000002 1528.5 1920.2397754 1523.46 1934.7997754 1522.06V1516.6C1920.2397754 1515.2 1916.8797754000002 1510.1599999999999 1916.8797754000002 1495.6V1482.86C1916.8797754000002 1464.94 1910.5797754 1459.2 1889.5797754 1459.2Z"/>
<path id="block_7E" data-char="~" class="st2" d="M2020,1420v183.539551h183.539551V1420H2020zM2188.539551,1588.539551H2035V1435h153.539551V1588.539551zM2157.9697754 1506.8C2148.7297754 1513.52 2140.7497754 1517.1599999999999 2132.6297753999997 1517.1599999999999C2125.3497754 1517.1599999999999 2118.9097754 1514.36 2112.1897754 1512.12C2106.1697754 1510.1599999999999 2099.8697754 1508.2 2092.0297754 1508.2C2084.1897754 1508.2 2075.5097754 1511.56 2065.5697754 1518.0V1535.36C2075.3697754 1528.36 2083.4897754 1524.58 2091.7497754 1524.58C2101.2697754 1524.58 2110.3697754 1528.08 2120.4497754 1531.58C2123.9497754 1532.84 2128.0097754 1533.54 2132.2097754 1533.54C2140.6097753999998 1533.54 2149.0097754 1530.32 2157.9697754 1524.1599999999999Z"/>
</svg>
