<?xml version="1.0" encoding="utf-8"?>
<!-- Generator: Adobe Illustrator 19.0.0, SVG Export Plug-In . SVG Version: 6.00 Build 0)  -->
<svg version="1.1" id="Layer_1" xmlns="http://www.w3.org/2000/svg" xmlns:xlink="http://www.w3.org/1999/xlink" x="0px" y="0px"
	 viewBox="0 0 2500 1200" style="enable-background:new 0 0 2500 1200;" xml:space="preserve">
<style type="text/css">
	.st0{fill:#C4282D;}
	.st1{fill:#0075BB;}
	.st2{fill:#00934C;}
	.st3{fill:#FDB845;}
</style>
<path id="XMLID_306_" class="st0" d="M523.802124,57.6434937v183.5395508h183.5395508V57.6434937H523.802124z
	 M692.3416748,226.1830444H538.802124V72.6434937h153.5395508V226.1830444z M594.9957275,193.3341675
	c-4.1015625-0.546875-6.9277344-1.3212891-8.4765625-2.3242188c-1.5498047-1.0019531-2.3242188-2.5292969-2.3242188-4.5800781
	c0-1.4121094,0.5693359-3.7822266,1.7089844-7.109375l0.1367188-0.4785156l4.1699219-12.7148438h33.359375l5.0585938,16.1328125
	c0,0.0458984,0.0449219,0.2050781,0.1367188,0.4785156c0.6376953,2.0966797,0.9570313,3.5546875,0.9570313,4.375
	c0,2.0507813-0.8544922,3.5322266-2.5634766,4.4433594c-1.7089844,0.9121094-4.7744141,1.5039063-9.1943359,1.7773438v7.109375
	h49.5605469v-7.109375c-3.4638672-0.546875-6.1416016-1.6630859-8.0322266-3.3496094
	c-1.8916016-1.6855469-3.6123047-4.6484375-5.1611328-8.8867188l-30.2148438-82.7148438h-16.40625l-31.0351563,81.0742188
	c-1.8691406,4.7851563-3.7490234,8.1347656-5.6396484,10.0488281c-1.8916016,1.9140625-4.3642578,3.1904297-7.4169922,3.828125
	v7.109375h31.3769531V193.3341675z M607.4371338,118.9591675l13.0566406,40.0585938h-27.7539063L607.4371338,118.9591675z"/>
<path id="XMLID_1_" class="st1" d="M736.2238159,57.6434937v183.5395508h183.5395508V57.6434937H736.2238159z
	 M904.7633667,226.1830444H751.2238159V72.6434937h153.5395508V226.1830444z M865.3519897,193.6759644
	c7.65625-4.5117188,11.484375-11.2558594,11.484375-20.234375c0-7.9296875-2.8710938-14.1611328-8.6132813-18.6962891
	c-5.7421875-4.5341797-14.8115234-7.7353516-27.2070313-9.6044922c10.3447266-1.6855469,17.9667969-4.4091797,22.8662109-8.1689453
	c4.8984375-3.7597656,7.3486328-8.7382813,7.3486328-14.9365234c0-8.1572266-3.5097656-14.1386719-10.5273438-17.9443359
	c-7.0185547-3.8046875-18.1152344-5.7080078-33.2910156-5.7080078h-48.2617188v7.109375
	c5.0585938,0.4560547,8.328125,1.390625,9.8095703,2.8027344c1.4804688,1.4130859,2.2216797,4.3984375,2.2216797,8.9550781
	v64.3261719c0,4.5576172-0.7412109,7.5429688-2.2216797,8.9550781c-1.4814453,1.4130859-4.7509766,2.3476563-9.8095703,2.8027344
	v7.109375h51.8847656C846.2562866,200.4435425,857.6957397,198.1876831,865.3519897,193.6759644z M816.4750366,116.4298706
	c0-4.6484375,0.8310547-7.7246094,2.4951172-9.2285156c1.6630859-1.5039063,4.7050781-2.2558594,9.1259766-2.2558594
	c5.6503906,0,10.0253906,1.6640625,13.125,4.9902344c3.0986328,3.3271484,4.6484375,8.0214844,4.6484375,14.0820313
	c0,6.0615234-1.8115234,10.5166016-5.4345703,13.3642578c-3.6230469,2.8486328-9.3085938,4.2724609-17.0556641,4.2724609h-6.9042969
	V116.4298706z M818.9701538,191.0783081c-1.6640625-1.5039063-2.4951172-4.921875-2.4951172-10.2539063v-32.1972656h7.9980469
	c8.5214844,0,14.8789063,1.9140625,19.0722656,5.7421875c4.1923828,3.828125,6.2890625,9.6162109,6.2890625,17.3632813
	c0,6.8818359-1.8349609,12.2021484-5.5029297,15.9619141c-3.6689453,3.7597656-8.8300781,5.6396484-15.4833984,5.6396484
	C823.9262085,193.3341675,820.6332397,192.5822144,818.9701538,191.0783081z"/>
<path id="XMLID_2_" class="st2" d="M948.6454468,57.6434937v183.5395508h183.5396118V57.6434937H948.6454468z
	 M1117.1850586,226.1830444H963.6454468V72.6434937h153.5396118V226.1830444z M1001.7238159,178.1242065
	c-4.4892578-8.3164063-6.7333984-17.8984375-6.7333984-28.7451172c0-8.2480469,1.3095703-15.7568359,3.9306641-22.5244141
	c2.6201172-6.7675781,6.4824219-12.6347656,11.5869141-17.6025391c4.5117188-4.375,9.5126953-7.6904297,15.0049438-9.9462891
	c5.4912109-2.2558594,11.3134766-3.3837891,17.4658203-3.3837891c2.2783203,0,4.6826172,0.2626953,7.2119141,0.7861328
	c2.5292969,0.5244141,5.6396484,1.4248047,9.3310547,2.7001953c1.0478516,0.3652344,2.4375,0.8886719,4.1699219,1.5722656
	c2.9619141,1.1855469,5.1269531,1.7773438,6.4941406,1.7773438c1.2753906,0,2.3125-0.5576172,3.1103516-1.6748047
	c0.796875-1.1162109,1.3330078-2.7910156,1.6064453-5.0244141h7.5878906l1.7089844,39.375l-7.4511719,0.2734375
	c-2.8710938-10.1621094-6.7333984-17.8183594-11.5869141-22.96875c-4.8535156-5.1494141-10.6074219-7.7246094-17.2607422-7.7246094
	c-8.1582031,0-14.2988281,3.7832031-18.4228516,11.3476563c-4.125,7.5654297-6.1865845,18.7763672-6.1865845,33.6328125
	c0,9.7529297,0.6494141,17.25,1.9483032,22.4902344c1.2988281,5.2412109,3.4970703,9.6845703,6.5966797,13.3300781
	c2.2783203,2.7802734,4.9667969,4.8994141,8.0664063,6.3574219c3.0986328,1.4589844,6.4707031,2.1875,10.1171875,2.1875
	c6.1064453,0,11.5068359-2.2099609,16.2011719-6.6308594c4.6933594-4.4199219,8.5673828-10.9375,11.6210938-19.5507813
	l7.9980469,2.3925781c-2.8710938,10.5732422-7.7929688,18.6054688-14.765625,24.0966797
	c-6.9726563,5.4921875-15.7685547,8.2373047-26.3867188,8.2373047c-4.6484375,0-8.9785156-0.4560547-12.9882813-1.3671875
	c-4.0107422-0.9121094-7.6113281-2.2783203-10.8008423-4.1015625
	C1012.6036987,192.8790894,1006.2120972,186.4415894,1001.7238159,178.1242065z"/>
<path id="XMLID_4_" class="st3" d="M1161.0673828,57.6434937v183.5395508h183.5390625V57.6434937H1161.0673828z
	 M1329.6064453,226.1830444h-153.5390625V72.6434937h153.5390625V226.1830444z M1291.3232422,187.2843628
	c9.8886719-8.7724609,14.8339844-21.4306641,14.8339844-37.9736328c0-16.4970703-4.9453125-29.109375-14.8339844-37.8369141
	c-9.8896484-8.7265625-24.1767578-13.0908203-42.8613281-13.0908203h-48.9453125v7.109375
	c5.0585938,0.5019531,8.328125,1.4589844,9.8095703,2.8710938c1.4804688,1.4130859,2.2216797,4.375,2.2216797,8.8867188v64.3261719
	c0,4.5117188-0.7412109,7.4746094-2.2216797,8.8867188c-1.4814453,1.4130859-4.7509766,2.3701172-9.8095703,2.8710938v7.109375
	h48.9453125C1267.1464844,200.4435425,1281.4335938,196.0578003,1291.3232422,187.2843628z M1236.8408203,181.3712769v-64.1210938
	c0-4.9667969,0.8652344-8.1689453,2.5976563-9.6044922c1.7314453-1.4355469,5.2177734-2.1533203,10.4589844-2.1533203
	c10.4814453,0,17.8642578,3.2021484,22.1484375,9.6044922c4.2832031,6.4033203,6.4257813,17.8076172,6.4257813,34.2138672
	c0,16.4521484-2.1425781,27.9023438-6.4257813,34.3505859c-4.2841797,6.4492188-11.6669922,9.6728516-22.1484375,9.6728516
	c-5.2412109,0-8.7275391-0.7177734-10.4589844-2.1533203
	C1237.7060547,189.7453003,1236.8408203,186.475769,1236.8408203,181.3712769z"/>
<path id="XMLID_14_" class="st0" d="M1373.4890137,57.6434937v183.5395508h183.5391846V57.6434937H1373.4890137z
	 M1542.0281982,226.1830444h-153.5391846V72.6434937h153.5391846V226.1830444z M1512.5632324,200.4435425h-96.8652344v-7.109375
	c5.0585938-0.4550781,8.328125-1.3896484,9.8095703-2.8027344c1.4804688-1.4121094,2.2216797-4.3974609,2.2216797-8.9550781
	v-64.3261719c0-4.5566406-0.7412109-7.5419922-2.2216797-8.9550781c-1.4814453-1.4121094-4.7509766-2.3466797-9.8095703-2.8027344
	v-7.109375h95.5664063l2.1191406,34.3164063h-7.8613281c-1.7773438-9.6152344-5.4921875-16.5537109-11.1425781-20.8154297
	c-5.6513672-4.2607422-13.96875-6.3916016-24.9511719-6.3916016c-6.8359375,0-11.2792969,0.6953125-13.3300781,2.0849609
	c-2.0507813,1.390625-3.0761719,4.6142578-3.0761719,9.6728516v26.6601563h6.1523438
	c5.9238281,0,10.3789063-1.6171875,13.3642578-4.8535156c2.984375-3.2353516,4.7958984-8.3847656,5.4345703-15.4492188h6.9726563
	v47.9882813h-6.9726563c-0.6386719-7.0634766-2.4501953-12.2128906-5.4345703-15.4492188
	c-2.9853516-3.2353516-7.4404297-4.8535156-13.3642578-4.8535156h-6.1523438v30.2832031
	c0,5.1044922,1.0361328,8.3398438,3.1103516,9.7070313c2.0732422,1.3671875,6.6875,2.0507813,13.8427734,2.0507813
	c11.8486328,0,20.6445313-2.3466797,26.3867188-7.0410156c5.7421875-4.6933594,9.2734375-12.3955078,10.5957031-23.1054688
	h7.8613281L1512.5632324,200.4435425z"/>
<path id="XMLID_7_" class="st1" d="M1680.9615479,200.4435425h-50.7910156v-7.109375
	c5.0585938-0.4550781,8.328125-1.3896484,9.8095703-2.8027344c1.4804688-1.4121094,2.2216797-4.3974609,2.2216797-8.9550781
	v-64.3261719c0-4.5566406-0.7412109-7.5419922-2.2216797-8.9550781c-1.4814453-1.4121094-4.7509766-2.3466797-9.8095703-2.8027344
	v-7.109375h93.0371094l1.9824219,34.3164063h-7.7246094c-1.640625-9.3417969-5.2529297-16.2119141-10.8349609-20.6103516
	c-5.5830078-4.3974609-13.4326172-6.5966797-23.5498047-6.5966797c-6.4257813,0-10.6298828,0.6953125-12.6123047,2.0849609
	c-1.9824219,1.390625-2.9736328,4.6142578-2.9736328,9.6728516v26.6601563h5.7421875
	c5.9238281,0,10.3789063-1.6171875,13.3642578-4.8535156c2.984375-3.2353516,4.7958984-8.3847656,5.4345703-15.4492188h6.9726563
	v47.9882813h-6.9726563c-0.6386719-7.0634766-2.4501953-12.2128906-5.4345703-15.4492188
	c-2.9853516-3.2353516-7.4404297-4.8535156-13.3642578-4.8535156h-5.7421875v30.2832031
	c0,4.5576172,0.8203125,7.5429688,2.4609375,8.9550781c1.640625,1.4130859,5.3085938,2.3476563,11.0058594,2.8027344V200.4435425z
	 M1769.4498291,57.6434937v183.5395508h-183.5390625V57.6434937H1769.4498291z M1754.4498291,72.6434937h-153.5390625v153.5395508
	h153.5390625V72.6434937z"/>
<path id="XMLID_10_" class="st2" d="M1798.3323975,57.6434937v183.5395508H1981.87146V57.6434937H1798.3323975z
	 M1966.87146,226.1830444h-153.5390625V72.6434937H1966.87146V226.1830444z M1840.848999,172.1427612
	c-2.6894531-6.8808594-4.0332031-14.46875-4.0332031-22.7636719c0-8.1572266,1.3212891-15.6425781,3.9648438-22.4560547
	c2.6425781-6.8125,6.5390625-12.7490234,11.6894531-17.8076172c4.375-4.3291016,9.3193359-7.6103516,14.8339844-9.84375
	c5.5136719-2.2324219,11.3476563-3.3496094,17.5-3.3496094c3.1445313,0,6.3457031,0.3417969,9.6044922,1.0253906
	c3.2578125,0.6835938,6.9384766,1.8007813,11.0400391,3.3496094l0.8203125,0.2734375
	c3.9648438,1.4589844,6.6757813,2.1875,8.1347656,2.1875c1.2753906,0,2.3691406-0.5810547,3.28125-1.7431641
	c0.9111328-1.1621094,1.5263672-2.8134766,1.8457031-4.9560547h8.1347656v35.2734375h-7.3828125
	c-2.6894531-8.6582031-6.5400391-15.2783203-11.5527344-19.8583984c-5.0136719-4.5800781-10.9150391-6.8701172-17.7050781-6.8701172
	c-8.8867188,0-15.4726563,3.6914063-19.7558594,11.0742188c-4.2841797,7.3828125-6.4257813,18.7304688-6.4257813,34.0429688
	c0,16.5888672,1.765625,28.3349609,5.2978516,35.2392578c3.53125,6.9042969,9.3994141,10.3564453,17.6025391,10.3564453
	c7.0175781,0,12.1337891-2.0615234,15.3466797-6.1865234c3.2128906-4.1240234,4.8193359-10.6982422,4.8193359-19.7216797
	c0-4.6484375-0.7412109-7.6787109-2.2216797-9.0917969c-1.4814453-1.4121094-4.8876953-2.3007813-10.2197266-2.6660156v-7.109375
	h47.9199219v7.109375c-5.0136719,0.546875-8.203125,1.5039063-9.5703125,2.8710938s-2.0507813,4.3300781-2.0507813,8.8867188
	v33.359375h-8.2714844l-1.5722656-5.3320313v-0.0683594c-1.2304688-3.7822266-2.6660156-5.6738281-4.3066406-5.6738281
	c-0.6835938,0-2.3242188,0.84375-4.921875,2.5292969c-1.5957031,1.0488281-2.8945313,1.8916016-3.8964844,2.5292969
	c-3.1904297,2.0058594-6.7451172,3.5322266-10.6640625,4.5800781c-3.9199219,1.0478516-8.0214844,1.5722656-12.3046875,1.5722656
	c-6.7910156,0-12.9316406-1.0595703-18.4228516-3.1787109c-5.4921875-2.1191406-10.4248047-5.3203125-14.7998047-9.6044922
	C1847.4564209,185.0177612,1843.5374756,179.0245972,1840.848999,172.1427612z"/>
<path id="XMLID_42_" class="st2" d="M207.8818359,958.8169556v183.5396118h183.5390625V958.8169556H207.8818359z
	 M376.4208984,1127.3565674H222.8818359V973.8169556h153.5390625V1127.3565674z M277.1627808,1089.6513672
	c2.7681885,3.8010254,6.1115723,6.7460938,10.0301514,8.8336182c3.9174805,2.0875244,8.0823975,3.1323242,12.4936523,3.1323242
	c9.8068848,0,17.8782349-4.7512207,24.2130737-14.253418c6.3348389-9.5023193,9.5022583-21.8078613,9.5022583-36.9178467
	c0-7.6953125-0.9502563-14.8748779-2.850708-21.5384521c-1.9004517-6.6626587-4.704834-12.552002-8.4111938-17.6671143
	c-2.628479-3.7536621-5.9014282-6.6395264-9.8189697-8.6575928c-3.9185791-2.0170898-8.1296997-3.0266724-12.6344604-3.0266724
	c-4.317749,0-8.4232788,1.0447388-12.317688,3.1322632c-3.8954468,2.0884399-7.2498779,5.0326538-10.0653687,8.8335571
	c-3.7546387,5.1151123-6.5932007,10.9803467-8.5167847,17.5966187c-1.9246216,6.6164551-2.8858643,13.8200684-2.8858643,21.6088867
	c0,7.7897949,0.9501953,14.9692383,2.850647,21.5383301
	C270.6519775,1078.8359375,273.4553833,1084.6308594,277.1627808,1089.6513672z M289.5508423,1050.5866699v-6.7570801
	c0-16.6575928,0.7149658-27.098938,2.1468506-31.3221436c1.4308472-4.2232666,4.0934448-6.3348389,7.9888916-6.3348389
	c3.847168,0,6.4866333,2.1115723,7.9185181,6.3348389c1.4308472,4.2232056,2.1467896,14.6645508,2.1467896,31.3221436v6.7570801
	v6.7572021c0,16.6113281-0.7159424,27.0406494-2.1467896,31.2869873c-1.4318848,4.2473145-4.0713501,6.3699951-7.9185181,6.3699951
	c-3.8954468,0-6.5580444-2.1226807-7.9888916-6.3699951c-1.4318848-4.2463379-2.1468506-14.6756592-2.1468506-31.2869873
	V1050.5866699z"/>
<path id="XMLID_66_" class="st3" d="M419.0704346,958.8169556v183.5396118h183.5390625V958.8169556H419.0704346z
	 M587.6094971,1127.3565674H434.0704346V973.8169556h153.5390625V1127.3565674z M540.442688,1101.6173096h-59.2054443v-6.7705078
	h3.7453613c5.8577881,0,9.8552246-0.7799072,11.9923706-2.3409424c2.1360474-1.5598145,3.2051392-4.9089355,3.2051392-10.0476074
	V1026.56604v-0.9364014c0-4.5128784-0.5042114-7.1902466-1.5125732-8.0308838
	c-1.0083618-0.8395996-3.5539551-1.260437-7.6347656-1.260437h-9.6514893l0.0720215-6.7704468
	c8.2583008-0.144043,15.1491699-1.0320435,20.6715088-2.664978c5.5213013-1.631897,10.0352783-4.0808105,13.5408936-7.3466797
	h6.9144897v82.9020386c0,5.09021,1.0083618,8.427002,3.0251465,10.0117188
	c2.0167236,1.5844727,5.8341064,2.3768311,11.4521484,2.3768311h3.3851929V1101.6173096z"/>
<path id="XMLID_64_" class="st0" d="M630.2587891,958.8169556v183.5396118h183.5395508V958.8169556H630.2587891z
	 M798.7983398,1127.3565674H645.2587891V973.8169556h153.5395508V1127.3565674z M727.8266602,1035.28125
	c1.0557251-3.6013184,1.5845947-7.25,1.5845947-10.947998c0-5.906189-1.2131348-10.3831177-3.6373291-13.4329224
	c-2.4252319-3.0487671-5.9905396-4.5736694-10.6958618-4.5736694c-2.8810425,0-5.4266968,0.6605835-7.6347656,1.9807129
	c-2.2091675,1.321167-3.3132324,2.6773682-3.3132324,4.069519c0,0.3848267,0.1677246,0.7562866,0.5042114,1.116394
	c0.3353882,0.3601074,0.7922974,0.6605835,1.3684692,0.9003296l4.3215942,1.9447021
	c1.3921509,0.6245728,2.5085449,1.6566162,3.3491821,3.0971069c0.8396606,1.4405518,1.260498,3.0734863,1.260498,4.8978271
	c0,3.1218262-1.0690918,5.7147217-3.2052002,7.7788086c-2.137085,2.0650635-4.8143921,3.097168-8.0308838,3.097168
	c-3.6980591,0-6.6871338-1.2244873-8.9672852-3.6733398c-2.2811279-2.4489746-3.4212036-5.6901855-3.4212036-9.7235718
	c0-6.4823608,2.7009888-11.8123169,8.1029053-15.9898071c5.4019775-4.1775513,12.3998413-6.2662964,20.9956055-6.2662964
	c9.7955933,0,17.6464233,2.437561,23.5525513,7.3106689c5.9061279,4.8740845,8.8591919,11.3204346,8.8591919,19.3389282
	c0,3.8894043-0.6369019,7.4907227-1.9086914,10.8039551c-1.2727661,3.3132324-3.1814575,6.3146973-5.7260742,9.0032959
	c-3.5056152,3.6981201-9.1236572,7.9229736-16.8540649,12.6766357c-2.7369995,1.6812744-4.7537231,2.953125-6.0502319,3.8173828
	c-4.802063,3.3132324-8.6554565,6.651123-11.5601807,10.0115967c-2.9057617,3.3615723-4.9584961,6.8188477-6.1582031,10.3717041
	h31.4754028c4.2248535,0,7.0338745-0.6235352,8.427063-1.8725586c1.3921509-1.2481689,2.4005127-4.0571289,3.0250854-8.427124
	h6.4103394l-4.0335083,29.0266113h-59.7096558c0.1914063-5.6654053,1.1997681-10.8513184,3.0251465-15.5577393
	c1.8242798-4.7053223,4.7537231-9.6514893,8.7871704-14.8374023c1.4404907-1.8725586,4.7290039-5.6777344,9.8675537-11.4160156
	c5.1375122-5.7375488,8.9785767-10.5755615,11.5241699-14.5134277
	C725.2810669,1042.220459,726.7699585,1038.8825684,727.8266602,1035.28125z"/>
<path id="XMLID_62_" class="st1" d="M841.4473267,958.8169556v183.5396118h183.5396118V958.8169556H841.4473267z
	 M1009.9868774,1127.3565674H856.4473267V973.8169556h153.5395508V1127.3565674z M901.3318481,1080.8530273
	c0-3.5192871,1.1372681-6.4162598,3.4137573-8.692627c2.2755127-2.2756348,5.1734619-3.4138184,8.692749-3.4138184
	c3.5193481,0,6.3458862,0.9501953,8.4816284,2.8505859c2.1347656,1.9005127,3.2026367,4.3991699,3.2026367,7.4963379
	c0,3.7546387-1.854187,7.0859375-5.5605469,9.994873c-0.8919067,0.7038574-1.3374023,1.1734619-1.3374023,1.4077148
	c0,1.0327148,0.8798828,2.0180664,2.6395264,2.9562988c1.7597046,0.939209,3.8591919,1.4077148,6.2996216,1.4077148
	c5.0678711,0,8.9974365-1.8410645,11.7897949-5.5253906c2.7913818-3.6832275,4.1880493-8.8094482,4.1880493-15.3795166
	c0-7.3201904-1.1382446-12.8807373-3.4137573-16.6817627c-2.2765503-3.8007813-5.5957642-5.7012939-9.9597778-5.7012939
	c-0.2815552,0-0.9039307,0.0472412-1.8652344,0.1407471c-0.9622803,0.0944824-1.7948608,0.1408691-2.4987183,0.1408691
	c-1.31427,0-2.3579712-0.3168945-3.1322632-0.9503174c-0.774231-0.6334229-1.161377-1.4659424-1.161377-2.4986572
	c0-0.8908691,0.3278198-1.6893311,0.9854126-2.3931885c0.6566162-0.7038574,1.383606-1.0557861,2.1820068-1.0557861
	c1.0316772,0,2.2172241,0.0472412,3.5545654,0.1407471c1.3373413,0.0946045,2.1226807,0.1407471,2.3579712,0.1407471
	c3.7536011,0,6.7329712-1.6651611,8.9390869-4.9974365c2.2051392-3.3312988,3.3082275-7.8592529,3.3082275-13.5845947
	c0-6.5692139-1.31427-11.6953735-3.9417114-15.3796387c-2.628418-3.6832275-6.2644043-5.5253296-10.9099731-5.5253296
	c-1.9708252,0-3.6600952,0.3408203-5.0678101,1.0205688c-1.4077759,0.6807861-2.1116333,1.4429321-2.1116333,2.2875977
	c0,0.2815552,0.4927368,0.8446045,1.4781494,1.68927c3.4248047,2.9562378,5.1382446,6.1478271,5.1382446,9.5726318
	c0,2.8154907-1.0095825,5.1734009-3.0266724,7.0739136c-2.0180664,1.9003906-4.5288696,2.8505859-7.5313721,2.8505859
	c-3.4258423,0-6.2061157-1.0909424-8.3408813-3.2729492c-2.1356812-2.1820068-3.2025757-5.0326538-3.2025757-8.552002
	c0-5.6771851,2.5449829-10.241272,7.6369629-13.6902466c5.0910034-3.4489746,11.8833618-5.1734619,20.3770142-5.1734619
	c9.3845825,0,16.7520752,2.1940918,22.1015015,6.5811768c5.3494263,4.3881226,8.0241089,10.406189,8.0241089,18.0542603
	c0,6.2412109-2.1116333,11.3443604-6.3348389,15.309082c-4.2232056,3.9658203-10.8164673,7.02771-19.7786865,9.1855469
	c9.4780884,1.689209,16.5408936,4.7631836,21.1864014,9.2207031c4.6455688,4.4584961,6.9683228,10.4172363,6.9683228,17.8781738
	c0,7.7426758-3.0739136,13.9838867-9.2207031,18.7230225c-6.1477661,4.7401123-14.2885132,7.1091309-24.4241943,7.1091309
	c-8.6817627,0-15.8722534-1.9949951-21.5736084-5.9830322
	C904.1824951,1091.6464844,901.3318481,1086.7193604,901.3318481,1080.8530273z"/>
<path id="XMLID_60_" class="st0" d="M1052.6362305,958.8169556v183.5396118h183.5390625V958.8169556H1052.6362305z
	 M1221.175293,1127.3565674h-153.5390625V973.8169556h153.5390625V1127.3565674z M1143.6494141,1082.458252
	c0,5.09021-0.8282471,8.3314209-2.4848633,9.7236328c-1.6566162,1.3930664-5.4379883,2.2810059-11.3441162,2.664917v6.7705078
	h47.7532959v-6.7705078c-4.9945068-0.288208-8.2592773-1.1278076-9.7955322-2.520874
	c-1.5372314-1.3922119-2.3048096-4.6817627-2.3048096-9.8676758v-7.2746582h12.1003418v-9.0031738h-12.1003418v-66.6242065
	h-15.1975098l-39.038208,65.1836548v10.4437256h32.4117432V1082.458252z M1116.7836914,1066.1804199l30.2509766-49.986145
	c-0.8170166,10.1803589-1.5125732,19.5314331-2.0887451,28.0541382c-0.5761719,8.5238037-1.0083008,15.8344727-1.2965088,21.9320068
	H1116.7836914z"/>
<path id="XMLID_56_" class="st1" d="M1263.824707,958.8169556v183.5396118h183.5390625V958.8169556H1263.824707z
	 M1432.3637695,1127.3565674H1278.824707V973.8169556h153.5390625V1127.3565674z M1325.00354,1082.2785645
	c0-3.7614746,1.0430908-6.8358154,3.1313477-9.2219238c2.0871582-2.3850098,4.7593994-3.5786133,8.0175781-3.5786133
	c3.3486328,0,6.1358643,1.0322266,8.3616943,3.0969238c2.2248535,2.0645752,3.3377686,4.6572266,3.3377686,7.7767334
	c0,1.6064453-0.2644043,3.0743408-0.7913818,4.4044189c-0.5279541,1.3312988-1.2506104,2.3862305-2.1678467,3.1657715
	l-2.4775391,2.0646973c-0.2301025,0.1838379-0.4818115,0.3902588-0.7570801,0.6193848
	c-0.6882324,0.5505371-1.0323486,0.9182129-1.0323486,1.1010742c0,0.963501,0.8022461,1.8925781,2.4088135,2.7873535
	c1.6054688,0.8945313,3.4862061,1.3419189,5.6431885,1.3419189c5.0466309,0,8.8660889-2.1905518,11.4587402-6.5723877
	c2.5915527-4.3808594,3.8883057-10.8392334,3.8883057-19.3730469c0-7.5701904-1.2387695-13.3619385-3.7163086-17.3771973
	c-2.4775391-4.0141602-6.079834-6.0217285-10.8048096-6.0217285c-2.0194092,0-4.1292725,0.4935303-6.331543,1.4796143
	c-2.2022705,0.9870605-5.161499,2.833374-8.8778076,5.5400391l-5.7810059-3.5098877
	c1.5593262-8.3959961,2.7410889-16.7233887,3.5443115-24.9819336c0.8022461-8.2583618,1.2731934-16.677124,1.4107666-25.2570801
	c3.7163086,1.468811,7.5241699,2.5581665,11.4243164,3.2689819c3.8991699,0.711792,9.1530762,1.0667114,15.7598877,1.0667114
	c6.8358154,0,13.213501-1.3076172,19.1320801-3.9227905c1.0087891-0.4129028,1.5828857-0.6193848,1.7205811-0.6193848
	c0.963501,0,1.7657471,0.711792,2.4086914,2.1334839c0,1.7893066-0.333252,3.5216064-0.9979248,5.1959229
	c-0.6655273,1.675293-1.5946045,3.039917-2.7872314,4.0948486c-2.7989502,3.6710815-6.2174072,6.2970581-10.2542725,7.8799438
	c-4.0377197,1.5828857-9.7272949,2.3743286-17.0675049,2.3743286h-4.1292725c-2.5699463,0-4.5882568-0.1376343-6.0561523-0.4129639
	c-1.4688721-0.2752686-2.8216553-0.7333984-4.0604248-1.3764038l-2.4086914,25.8078003
	c2.9819336-2.3399658,6.2390137-4.1292725,9.7724609-5.368042c3.5324707-1.2387695,7.088623-1.8581543,10.6672363-1.8581543
	c8.9005127,0,16.0578613,2.8216553,21.4720459,8.4649658c5.413208,5.6433105,8.1208496,13.0759277,8.1208496,22.2978516
	c0,10.1854248-3.0625,18.203125-9.1876221,24.0527344c-6.125,5.8498535-14.532959,8.7747803-25.2226563,8.7747803
	c-8.1208496,0-14.6136475-1.7667236-19.4763184-5.2991943
	C1327.4348145,1092.7856445,1325.00354,1088.1057129,1325.00354,1082.2785645z"/>
<path id="XMLID_58_" class="st2" d="M1475.0133057,958.8169556v183.5396118h183.5390625V958.8169556H1475.0133057z
	 M1643.5523682,1127.3565674h-153.5390625V973.8169556h153.5390625V1127.3565674z M1567.9090576,1101.6173096
	c9.5725098,0,17.1623535-2.9211426,22.7701416-8.7633057c5.6068115-5.842041,8.4112549-13.7364502,8.4112549-23.6850586
	c0-9.0095215-2.4525146-16.3530273-7.3554688-22.03125c-4.9039307-5.677124-11.2036133-8.5167236-18.8989258-8.5167236
	c-2.9561768,0-5.6782227,0.4464111-8.1647949,1.3372803c-2.487793,0.8919678-4.9040527,2.3227539-7.2498779,4.2937012v-3.3082275
	c0-11.543457,1.383667-20.2945557,4.152832-26.2543335c2.7681885-5.9587402,6.850708-8.9390869,12.2473145-8.9390869
	c2.2052002,0,3.9647217,0.3639526,5.2789307,1.0909424c1.3132324,0.7280273,1.9709473,1.6541138,1.9709473,2.7803345
	c0,0.7510986-0.9150391,1.7365112-2.7451172,2.9562378c-0.8447266,0.5631104-1.5253906,1.0326538-2.0412598,1.4077148
	c-0.8918457,0.6576538-1.5957031,1.5485229-2.1115723,2.6746826c-0.5168457,1.1262207-0.7741699,2.3931885-0.7741699,3.8009033
	c0,2.8154907,0.9963379,5.1272583,2.991333,6.9331665c1.9940186,1.8068848,4.5631104,2.7098389,7.7073975,2.7098389
	c3.7536621,0,6.7802734-1.149292,9.079834-3.4488525c2.2987061-2.2987061,3.4489746-5.3253784,3.4489746-9.0800171
	c0-5.302124-2.1235352-9.6309204-6.369873-12.9863892c-4.2474365-3.3544312-9.7728271-5.0326538-16.5761719-5.0326538
	c-12.1538086,0-21.7264404,4.7159424-28.7178955,14.1477661c-6.9924316,9.4318848-10.4876709,22.4302979-10.4876709,38.9943848
	c0,15.2979736,2.9794922,27.2749023,8.939209,35.9324951
	C1549.3731689,1097.2884521,1557.5379639,1101.6173096,1567.9090576,1101.6173096z M1559.4273682,1051.1499023
	c1.4309082-3.3786621,3.9296875-5.0678711,7.4962158-5.0678711c3.5194092,0,5.9588623,1.5605469,7.3201904,4.6806641
	c1.3605957,3.1210938,2.0412598,9.631958,2.0412598,19.5323486c0,9.9487305-0.6806641,16.494751-2.0412598,19.6379395
	c-1.3613281,3.1442871-3.8007813,4.7159424-7.3201904,4.7159424c-3.5665283,0-6.0653076-1.7003174-7.4962158-5.1030273
	c-1.4318848-3.4017334-2.1467285-9.8189697-2.1467285-19.2508545
	C1557.2806396,1060.9104004,1557.9954834,1054.5283203,1559.4273682,1051.1499023z"/>
<path id="XMLID_54_" class="st3" d="M1686.2019043,958.8169556v183.5396118h183.5390625V958.8169556H1686.2019043z
	 M1854.7409668,1127.3565674h-153.5390625V973.8169556h153.5390625V1127.3565674z M1751.8979492,1037.7991943h-5.6179199
	l2.9530029-34.5005493h60.4298096v7.2026367c-6.7703857,8.4033813-11.8481445,17.4910278-15.2333984,27.2619019
	c-3.3852539,9.7718506-5.0778809,20.251709-5.0778809,31.4394531c0,2.8336182,0.144043,6.4349365,0.4321289,10.803833
	c0.2880859,4.3699951,0.4321289,7.2993164,0.4321289,8.7872314c0,5.5706787-1.1523438,9.7235107-3.4572754,12.4604492
	c-2.3046875,2.7369385-5.7619629,4.1054688-10.3717041,4.1054688c-4.2258301,0-7.4793701-1.2130127-9.7595215-3.637207
	c-2.2811279-2.4243164-3.4212646-5.845459-3.4212646-10.2637939c0-6.5296631,2.6289063-15.449585,7.8869629-26.7576904
	c5.2578125-11.3081055,13.4080811-25.5805664,24.4527588-42.819519h-27.7301025
	c-5.2824707,0-8.9199219,0.9609985-10.9118652,2.8810425
	C1754.9106445,1026.6834717,1753.2416992,1031.0286865,1751.8979492,1037.7991943z"/>
<path id="XMLID_72_" class="st0" d="M1897.3905029,958.8169556v183.5396118h183.5391846V958.8169556H1897.3905029z
	 M2065.9296875,1127.3565674h-153.5391846V973.8169556h153.5391846V1127.3565674z M1961.8146973,1063.3972168
	c-3.3322754,4.0823975-4.9974365,8.8928223-4.9974365,14.4291992c0,7.3203125,2.8034668,13.1162109,8.4112549,17.3856201
	c5.6068115,4.2694092,13.2679443,6.4052734,22.9813232,6.4052734c10.1818848,0,18.2763672-2.4515381,24.2834473-7.3555908
	c6.0061035-4.902832,9.0095215-11.4377441,9.0095215-19.6026611c0-6.0059814-1.7365723-11.5313721-5.2086182-16.5760498
	c-3.4730225-5.0438232-8.9390869-9.9125977-16.4001465-14.6053467c6.2874756-2.9090576,10.9100342-6.2403564,13.8662109-9.9949951
	c2.9561768-3.7536621,4.4344482-8.0944824,4.4344482-13.0215454c0-6.1467896-2.7099609-11.1673584-8.1297607-15.0628052
	c-5.4197998-3.8943481-12.5178223-5.8421021-21.2921143-5.8421021c-8.7751465,0-15.861084,2.2765503-21.2568359,6.8275757
	c-5.3966064,4.552002-8.0944824,10.4876099-8.0944824,17.8078613c0,5.2086182,1.5244141,10.1599121,4.5751953,14.8515625
	c3.0498047,4.6928711,7.625,9.104126,13.7254639,13.2327881
	C1970.4481201,1055.6083984,1965.1461182,1059.3146973,1961.8146973,1063.3972168z M1976.2440186,1017.9976196
	c0-3.6601563,1.161377-6.5691528,3.4841309-8.7280273c2.3227539-2.1578369,5.4550781-3.237793,9.3967285-3.237793
	c4.3166504,0,7.8360596,1.4318848,10.5579834,4.2936401c2.7209473,2.8627319,4.0823975,6.616333,4.0823975,11.2619019
	c0,3.378479-0.7038574,6.5580444-2.1115723,9.5374146c-1.4077148,2.9804688-3.6137695,5.9477539-6.616333,8.9039307
	c-6.616333-3.8470459-11.40271-7.5194092-14.3590088-11.0155029
	C1977.722168,1025.5179443,1976.2440186,1021.8457642,1976.2440186,1017.9976196z M1974.4139404,1066.4941406
	c1.7355957-3.4720459,4.4102783-6.9914551,8.0241699-10.5579834c7.6953125,4.3638916,13.232666,8.5057373,16.6113281,12.4232178
	c3.37854,3.9185791,5.0678711,8.1297607,5.0678711,12.6345215c0,4.177002-1.3967285,7.5786133-4.1881104,10.2060547
	c-2.7923584,2.628418-6.4403076,3.9416504-10.9451904,3.9416504c-5.1623535,0-9.3151855-1.6540527-12.4584961-4.9621582
	c-3.1442871-3.3083496-4.7158203-7.612915-4.7158203-12.9160156
	C1971.8096924,1073.5570068,1972.6773682,1069.9672852,1974.4139404,1066.4941406z"/>
<path id="XMLID_70_" class="st1" d="M2108.5791016,958.8169556v183.5396118h183.5390625V958.8169556H2108.5791016z
	 M2277.1181641,1127.3565674h-153.5390625V973.8169556h153.5390625V1127.3565674z M2194.2602539,1062.5524902
	c3.0024414,0,5.7595215-0.4575195,8.2705078-1.3725586c2.5097656-0.9150391,4.9621582-2.3337402,7.3552246-4.2583008v3.3081055
	c0,11.4971924-1.4196777,20.2362061-4.2583008,26.2191162c-2.8395996,5.9829102-6.9572754,8.9742432-12.3530273,8.9742432
	c-2.2060547,0-3.9536133-0.3398438-5.2436523-1.0205078c-1.2912598-0.6796875-1.935791-1.6069336-1.935791-2.7802734
	c0-0.7973633,0.9614258-1.8532715,2.8859863-3.1674805c0.7973633-0.5158691,1.4077148-0.9381104,1.8300781-1.2668457
	c0.9382324-0.7038574,1.6540527-1.6188965,2.1467285-2.7451172s0.7390137-2.3691406,0.7390137-3.7304688
	c0-2.8618164-0.9853516-5.1845703-2.9562988-6.9683838c-1.9707031-1.7828369-4.5288086-2.6746826-7.6721191-2.6746826
	c-3.8007813,0-6.8515625,1.1381836-9.1501465,3.4138184c-2.2998047,2.2763672-3.4489746,5.314209-3.4489746,9.1149902
	c0,5.2558594,2.1467285,9.5726318,6.4401855,12.9511719c4.2937012,3.3786621,9.8422852,5.0679932,16.6464844,5.0679932
	c12.152832,0,21.7023926-4.7159424,28.6474609-14.1478271c6.9443359-9.4318848,10.4174805-22.4533691,10.4174805-39.0646973
	c0-15.2971191-2.9562988-27.2628784-8.8688965-35.8973389c-5.9123535-8.6334839-14.0541992-12.9512329-24.4240723-12.9512329
	c-9.5727539,0-17.1745605,2.9210815-22.8054199,8.7631836c-5.6311035,5.8421021-8.4465332,13.7374878-8.4465332,23.6852417
	c0,9.0095215,2.4516602,16.3537598,7.3554688,22.0310059
	C2180.3344727,1059.7138672,2186.611084,1062.5524902,2194.2602539,1062.5524902z M2192.9228516,1011.2756348
	c1.4077148-3.213623,3.8710938-4.8214722,7.390625-4.8214722c3.5654297,0,6.076416,1.701355,7.53125,5.1030273
	c1.4541016,3.40271,2.1821289,9.8189697,2.1821289,19.2507935c0,9.4318848-0.7280273,15.8491211-2.1821289,19.2508545
	c-1.454834,3.40271-3.9658203,5.1030273-7.53125,5.1030273c-3.5195313,0-5.9829102-1.6420898-7.390625-4.927002
	c-1.4077148-3.2841797-2.1115723-9.7597656-2.1115723-19.4268799
	C2190.8112793,1021.0010986,2191.5151367,1014.4902954,2192.9228516,1011.2756348z"/>
<path id="XMLID_26_" class="st1" d="M596.5338135,627.5890503h-35.4101563v-7.109375
	c5.8789063-0.4550781,9.5810547-1.34375,11.1083984-2.6660156c1.5263672-1.3212891,2.2900391-4.3515625,2.2900391-9.0917969
	v-64.3261719c0-4.7392578-0.7636719-7.7695313-2.2900391-9.0917969c-1.5273438-1.3212891-5.2294922-2.2099609-11.1083984-2.6660156
	v-7.109375h33.5644531l53.3886719,68.90625v-50.0390625c0-4.7392578-0.8320313-7.7929688-2.4951172-9.1601563
	c-1.6640625-1.3671875-5.3662109-2.2324219-11.1083984-2.5976563v-7.109375h35.546875v7.109375
	c-5.8789063,0.3652344-9.6162109,1.2421875-11.2109375,2.6318359c-1.5957031,1.390625-2.3925781,4.4326172-2.3925781,9.1259766
	v84.9023438h-11.2792969l-62.2070313-80.6640625v60.0878906c0,4.6943359,0.796875,7.7363281,2.3925781,9.1259766
	c1.5947266,1.390625,5.3320313,2.2675781,11.2109375,2.6318359V627.5890503z M707.3416748,485.6434937v183.5395508H523.802124
	V485.6434937H707.3416748z M692.3416748,500.6434937H538.802124v153.5395508h153.5395508V500.6434937z"/>
<path id="XMLID_18_" class="st2" d="M794.6342163,617.7111206c4.5117188,4.375,9.5585938,7.6679688,15.1416016,9.8779297
	c5.5820313,2.2099609,11.6552734,3.3154297,18.2177734,3.3154297c6.5166016,0,12.5664063-1.1054688,18.1494141-3.3154297
	c5.5820313-2.2099609,10.6298828-5.5029297,15.1416016-9.8779297c5.1494141-5.0585938,9.0576172-10.9941406,11.7236328-17.8076172
	c2.6660156-6.8125,3.9990234-14.3212891,3.9990234-22.5244141s-1.3330078-15.6992188-3.9990234-22.4902344
	c-2.6660156-6.7900391-6.6201172-12.7148438-11.8603516-17.7734375c-4.4667969-4.375-9.4912109-7.6669922-15.0732422-9.8779297
	c-5.5830078-2.2099609-11.6103516-3.3154297-18.0810547-3.3154297c-6.4716797,0-12.4990234,1.1054688-18.0810547,3.3154297
	c-5.5830078,2.2109375-10.6298828,5.5029297-15.1416016,9.8779297c-5.1953125,5.0585938-9.1259766,10.9833984-11.7919922,17.7734375
	c-2.6660156,6.7910156-3.9990234,14.2871094-3.9990234,22.4902344c0,8.2490234,1.3330078,15.7910156,3.9990234,22.6269531
	S789.5297241,612.7443237,794.6342163,617.7111206z M812.0316772,541.319519
	c3.0761719-6.6308594,8.3964844-9.9462891,15.9619141-9.9462891c7.5195313,0,12.828125,3.3154297,15.9277344,9.9462891
	c3.0986328,6.6308594,4.6484375,18.6513672,4.6484375,36.0595703c0,17.5458984-1.5380859,29.6337891-4.6142578,36.2646484
	s-8.3974609,9.9462891-15.9619141,9.9462891c-7.5654297,0-12.8857422-3.3154297-15.9619141-9.9462891
	s-4.6142578-18.71875-4.6142578-36.2646484C807.4174194,559.9708862,808.9555054,547.9503784,812.0316772,541.319519z
	 M736.2238159,485.6434937v183.5395508h183.5395508V485.6434937H736.2238159z M904.7633667,654.1830444H751.2238159V500.6434937
	h153.5395508V654.1830444z"/>
<path id="XMLID_40_" class="st3" d="M948.6454468,485.6434937v183.5395508h183.5396118V485.6434937H948.6454468z
	 M1117.1850586,654.1830444H963.6454468V500.6434937h153.5396118V654.1830444z M1042.6369629,621.3341675
	c-6.1523438-0.4550781-10.0722656-1.3896484-11.7578125-2.8027344c-1.6865234-1.4121094-2.5292969-4.3974609-2.5292969-8.9550781
	V582.77948h14.9707031c16.2695313,0,28.0839844-2.3125,35.4443359-6.9384766
	c7.359375-4.625,11.0400391-11.9736328,11.0400391-22.0458984c0-9.2050781-3.6005859-16.0751953-10.8007813-20.6103516
	c-7.2011719-4.5341797-18.1611328-6.8017578-32.8808594-6.8017578h-55.0977173v7.109375
	c5.0585938,0.4560547,8.328125,1.390625,9.8095703,2.8027344c1.4804688,1.4130859,2.2216797,4.3984375,2.2216797,8.9550781
	v64.3261719c0,4.5576172-0.7412109,7.5429688-2.2216797,8.9550781c-1.4814453,1.4130859-4.7509766,2.3476563-9.8095703,2.8027344
	v7.109375h51.6113892V621.3341675z M1028.3498535,546.2755737c0-5.46875,0.9228516-9.0576172,2.7685547-10.7666016
	s5.59375-2.5634766,11.2451172-2.5634766c6.9267578,0,12.0878906,1.7773438,15.4833984,5.3320313
	c3.3945313,3.5546875,5.0927734,8.9785156,5.0927734,16.2695313c0,7.2919922-2.1083984,12.6123047-6.3232422,15.9619141
	c-4.2158203,3.3496094-10.9267578,5.0244141-20.1318359,5.0244141h-8.1347656V546.2755737z"/>
<path id="XMLID_38_" class="st0" d="M1161.0673828,485.6434937v183.5395508h183.5390625V485.6434937H1161.0673828z
	 M1329.6064453,654.1830444h-153.5390625V500.6434937h153.5390625V654.1830444z M1228.5693359,616.4806519
	c3.0527344,1.7773438,6.5507813,3.1328125,10.4931641,4.0673828c3.9414063,0.9335938,8.1455078,1.4013672,12.6123047,1.4013672
	c2.0507813,0,4.0898438-0.1142578,6.1181641-0.3417969c2.0273438-0.2285156,3.9990234-0.5927734,5.9130859-1.09375
	c0.9570313,6.5166016,2.9277344,11.3701172,5.9130859,14.5605469c2.984375,3.1894531,7.0292969,4.7851563,12.1337891,4.7851563
	c5.1035156,0,9.4785156-1.4589844,13.125-4.375c3.6455078-2.9169922,6.4023438-7.1552734,8.2714844-12.7148438l-5.2636719-3.6230469
	c-1.4589844,1.640625-2.9287109,2.8710938-4.4091797,3.6914063c-1.4814453,0.8203125-2.9970703,1.2304688-4.5458984,1.2304688
	c-2.4609375,0-4.6943359-0.8320313-6.6992188-2.4951172c-2.0058594-1.6640625-3.5546875-3.9755859-4.6484375-6.9384766
	c7.3369141-4.6484375,12.9990234-10.9716797,16.9873047-18.9697266c3.9873047-7.9980469,5.9814453-17.078125,5.9814453-27.2412109
	c0-8.2480469-1.3330078-15.7568359-3.9990234-22.5244141s-6.6201172-12.6806641-11.8603516-17.7392578
	c-4.4667969-4.375-9.4912109-7.6669922-15.0732422-9.8779297c-5.5830078-2.2099609-11.6103516-3.3154297-18.0810547-3.3154297
	c-6.4716797,0-12.4990234,1.1054688-18.0810547,3.3154297c-5.5830078,2.2109375-10.6298828,5.5029297-15.1416016,9.8779297
	c-5.1953125,5.0585938-9.1259766,10.9833984-11.7919922,17.7734375c-2.6660156,6.7910156-3.9990234,14.2871094-3.9990234,22.4902344
	c0,10.8007813,2.2324219,20.3144531,6.6992188,28.5400391
	C1213.6894531,605.1906128,1220.1376953,611.6954956,1228.5693359,616.4806519z M1256.3574219,614.0197144
	c-1.9824219,0.5927734-3.9306641,0.8886719-5.8447266,0.8886719c-3.9199219,0-7.0644531-1.0595703-9.4335938-3.1787109
	c-2.3701172-2.1191406-3.5546875-4.9326172-3.5546875-8.4423828c0-3.3720703,0.9677734-6.0722656,2.9052734-8.1005859
	c1.9365234-2.0273438,4.5224609-3.0419922,7.7587891-3.0419922c4.3291016,0,7.6220703,1.5039063,9.8779297,4.5117188
	s3.7255859,7.8847656,4.4091797,14.6289063C1260.3789063,612.5158081,1258.3398438,613.4279175,1256.3574219,614.0197144z
	 M1235.5761719,532.3644409c3.0761719-6.6308594,8.3964844-9.9462891,15.9619141-9.9462891
	c7.5195313,0,12.828125,3.3154297,15.9277344,9.9462891c3.0986328,6.6308594,4.6484375,18.6513672,4.6484375,36.0595703
	c0,7.9755859-0.2167969,14.3789063-0.6494141,19.2089844c-0.4335938,4.8310547-1.1054688,9.0234375-2.0166016,12.578125
	c-1.2304688-4.7392578-3.6572266-8.5332031-7.2802734-11.3818359c-3.6230469-2.8476563-7.7822266-4.2724609-12.4755859-4.2724609
	c-4.5117188,0-8.3173828,1.2646484-11.4160156,3.7939453c-3.0996094,2.5292969-4.8994141,5.8447266-5.4003906,9.9462891
	c-0.6386719-3.9648438-1.1171875-8.3964844-1.4355469-13.2958984c-0.3193359-4.8984375-0.4785156-10.4248047-0.4785156-16.5771484
	C1230.9619141,551.0158081,1232.5,538.9953003,1235.5761719,532.3644409z"/>
<path id="XMLID_36_" class="st1" d="M1373.4890137,485.6434937v183.5395508h183.5390625V485.6434937H1373.4890137z
	 M1542.0280762,654.1830444h-153.5390625V500.6434937h153.5390625V654.1830444z M1461.6013184,620.069519
	c-5.8789063-0.5009766-9.6162109-1.4462891-11.2109375-2.8369141c-1.5957031-1.3896484-2.3925781-4.3632813-2.3925781-8.9208984
	v-31.2402344h6.1523438c3.9648438,0,7.2568359,0.3759766,9.8779297,1.1279297
	c2.6201172,0.7519531,4.7958984,1.9033203,6.5283203,3.4521484c3.5546875,3.28125,5.6503906,10.0039063,6.2890625,20.1660156
	c0.0449219,0.4560547,0.0908203,1.0712891,0.1367188,1.8457031c0.5917969,9.4794922,2.1875,15.8828125,4.7851563,19.2089844
	c1.7773438,2.2333984,4.1123047,3.9306641,7.0068359,5.0927734c2.8935547,1.1621094,6.2998047,1.7431641,10.2197266,1.7431641
	c6.6533203,0,11.7919922-1.8916016,15.4150391-5.6738281s5.4345703-9.1826172,5.4345703-16.2011719
	c0-0.9111328-0.0117188-1.5947266-0.0341797-2.0507813c-0.0234375-0.4550781-0.0576172-0.8652344-0.1025391-1.2304688
	l-6.5625-0.0683594c0,4.3300781-0.5585938,7.6337891-1.6748047,9.9121094
	c-1.1171875,2.2792969-2.7236328,3.4179688-4.8193359,3.4179688c-1.3222656,0-2.3134766-0.4208984-2.9736328-1.2646484
	c-0.6611328-0.8427734-1.1962891-2.5175781-1.6064453-5.0244141c-0.1367188-0.9570313-0.3193359-2.5742188-0.546875-4.8535156
	c-0.5019531-5.8330078-1.2539063-10.5722656-2.2558594-14.21875c-1.2304688-4.6933594-3.8740234-8.5898438-7.9296875-11.6894531
	c-4.0566406-3.0986328-9.6386719-5.4453125-16.7480469-7.0410156c10.8916016-1.2304688,19.0380859-3.7939453,24.4384766-7.6904297
	s8.1005859-9.1708984,8.1005859-15.8251953c0-8.5673828-3.6806641-14.890625-11.0400391-18.9697266
	c-7.3603516-4.078125-18.7197266-6.1181641-34.0771484-6.1181641h-51.3378906v7.109375
	c5.0585938,0.4560547,8.328125,1.390625,9.8095703,2.8027344c1.4804688,1.4130859,2.2216797,4.3984375,2.2216797,8.9550781
	v64.3261719c0,4.5576172-0.7412109,7.5429688-2.2216797,8.9550781c-1.4814453,1.4130859-4.7509766,2.3476563-9.8095703,2.8027344
	v7.109375h50.9277344V620.069519z M1447.9978027,543.7120972c0-4.921875,0.8652344-8.1572266,2.5976563-9.7070313
	c1.7314453-1.5488281,5.4003906-2.3242188,11.0058594-2.3242188c6.3339844,0,11.1650391,1.6865234,14.4921875,5.0585938
	c3.3261719,3.3730469,4.9902344,8.2714844,4.9902344,14.6972656c0,6.6083984-1.9599609,11.359375-5.8789063,14.2529297
	c-3.9199219,2.8945313-10.4140625,4.3408203-19.4824219,4.3408203h-7.7246094V543.7120972z"/>
<path id="XMLID_34_" class="st2" d="M1700.8199463,607.8673706c0-4.0556641-1.3330078-7.359375-3.9990234-9.9121094
	c-2.6660156-2.5517578-7.4404297-4.9443359-14.3212891-7.1777344l-14.9707031-5.0585938
	c-8.0664063-2.6425781-14.3105469-6.6757813-18.7304688-12.0996094c-4.4208984-5.4228516-6.6308594-11.7802734-6.6308594-19.0722656
	c0-9.0683594,2.984375-16.4511719,8.9550781-22.1484375c5.9697266-5.6962891,13.7626953-8.5449219,23.3789063-8.5449219
	c2.0957031,0,4.2949219,0.2285156,6.5966797,0.6835938c2.3007813,0.4560547,4.9560547,1.2080078,7.9638672,2.2558594
	c1.4121094,0.5019531,2.8027344,1.0712891,4.1699219,1.7089844c1.3671875,0.6386719,2.0957031,0.9570313,2.1875,0.9570313
	c0.1816406,0,0.5693359,0.0683594,1.1621094,0.2050781c0.5917969,0.1367188,1.09375,0.2050781,1.5039063,0.2050781
	c1.1845703,0,2.2099609-0.4785156,3.0761719-1.4355469c0.8652344-0.9570313,1.5039063-2.3242188,1.9140625-4.1015625
	l6.2890625-0.0683594l1.7089844,32.6074219h-6.9726563c-3.9648438-8.5214844-8.3632813-14.8681641-13.1933594-19.0380859
	c-4.8310547-4.1699219-10.1855469-6.2548828-16.0644531-6.2548828c-5.1044922,0-9.2285156,1.1962891-12.3730469,3.5888672
	s-4.7167969,5.4804688-4.7167969,9.2626953c0,3.1445313,1.3671875,6.0273438,4.1015625,8.6474609
	c2.734375,2.6210938,6.5390625,4.6826172,11.4160156,6.1865234l15.1074219,4.7851563
	c9.4785156,3.0078125,16.5429688,7.3144531,21.1914063,12.9199219s6.9726563,12.6464844,6.9726563,21.1230469
	c0,9.6621094-3.1445313,17.5576172-9.4335938,23.6865234c-6.2890625,6.1298828-14.4013672,9.1943359-24.3359375,9.1943359
	c-2.4160156,0-4.8876953-0.2392578-7.4169922-0.7177734s-5.6855469-1.3564453-9.4677734-2.6318359
	c-1.3222656-0.4101563-3.4179688-1.21875-6.2890625-2.4267578c-2.8710938-1.2070313-4.9902344-1.8115234-6.3574219-1.8115234
	c-1.3222656,0-2.4384766,0.6386719-3.3496094,1.9140625c-0.9121094,1.2763672-1.4814453,2.9853516-1.7089844,5.1269531h-7.2460938
	l-2.1191406-41.015625h8.6816406c4.1464844,10.9833984,9.2050781,19.3457031,15.1757813,25.0878906
	c5.9697266,5.7421875,12.578125,8.6132813,19.8242188,8.6132813c5.3769531,0,9.7753906-1.4355469,13.1933594-4.3066406
	S1700.8199463,612.288269,1700.8199463,607.8673706z M1769.4498291,485.6434937v183.5395508h-183.5390625V485.6434937H1769.4498291z
	 M1754.4498291,500.6434937h-153.5390625v153.5395508h153.5390625V500.6434937z"/>
<path id="XMLID_32_" class="st3" d="M1850.8636475,565.0060425h-7.109375l1.3671875-38.6230469h89.7558594l1.5722656,38.6230469
	h-7.3144531c-1.0488281-10.9375-3.5322266-18.9238281-7.4511719-23.9599609
	c-3.9199219-5.0351563-9.59375-7.5537109-17.0214844-7.5537109h-1.9824219v76.0839844
	c0,4.4667969,0.8310547,7.4169922,2.4951172,8.8525391c1.6630859,1.4355469,5.5478516,2.4042969,11.6552734,2.9052734v7.109375
	h-53.59375v-7.109375c6.1064453-0.5009766,9.9912109-1.4697266,11.6552734-2.9052734
	c1.6630859-1.4355469,2.4951172-4.3857422,2.4951172-8.8525391v-76.0839844h-1.9824219
	c-7.4287109,0-13.1025391,2.5185547-17.0214844,7.5537109
	C1854.4632568,546.0822144,1851.9573975,554.0685425,1850.8636475,565.0060425z M1981.87146,485.6434937v183.5395508h-183.5390625
	V485.6434937H1981.87146z M1966.87146,500.6434937h-153.5390625v153.5395508H1966.87146V500.6434937z"/>
<path id="XMLID_11_" class="st3" d="M707.3853149,410.6497498h-49.21875v-7.109375
	c5.0585938-0.4550781,8.328125-1.3896484,9.8095703-2.8027344c1.4804688-1.4121094,2.2216797-4.3974609,2.2216797-8.9550781
	v-64.3261719c0-4.5117188-0.7412109-7.4736328-2.2216797-8.8867188c-1.4814453-1.4121094-4.7509766-2.3691406-9.8095703-2.8710938
	v-7.109375h49.21875v7.109375c-5.0136719,0.5019531-8.2490234,1.4472656-9.7070313,2.8369141
	c-1.4589844,1.390625-2.1875,4.3642578-2.1875,8.9208984v26.796875h34.8632813v-26.796875
	c0-4.5566406-0.7177734-7.5302734-2.1533203-8.9208984c-1.4355469-1.3896484-4.6826172-2.3349609-9.7412109-2.8369141v-7.109375
	h49.2871094v7.109375c-5.0585938,0.4560547-8.3291016,1.390625-9.8095703,2.8027344
	c-1.4814453,1.4130859-2.2216797,4.3984375-2.2216797,8.9550781v64.3261719c0,4.5576172,0.7402344,7.5429688,2.2216797,8.9550781
	c1.4804688,1.4130859,4.7509766,2.3476563,9.8095703,2.8027344v7.109375h-49.2871094v-7.109375
	c5.0585938-0.5009766,8.3056641-1.4462891,9.7412109-2.8369141c1.4355469-1.3896484,2.1533203-4.3632813,2.1533203-8.9208984
	v-29.4628906h-34.8632813v29.4628906c0,4.5576172,0.7285156,7.53125,2.1875,8.9208984
	c1.4580078,1.390625,4.6933594,2.3359375,9.7070313,2.8369141V410.6497498z M804.7263794,267.8497009v183.5395508H621.1868286
	V267.8497009H804.7263794z M789.7263794,282.8497009H636.1868286v153.5395508h153.5395508V282.8497009z"/>
<path id="XMLID_16_" class="st0" d="M951.3739624,410.6497498h-49.21875v-7.109375
	c5.0585938-0.4550781,8.328125-1.3896484,9.8095703-2.8027344c1.4804688-1.4121094,2.2216797-4.3974609,2.2216797-8.9550781
	v-64.3261719c0-4.5566406-0.7412109-7.5419922-2.2216797-8.9550781c-1.4814453-1.4121094-4.7509766-2.3466797-9.8095703-2.8027344
	v-7.109375h49.21875v7.109375c-4.9677734,0.4101563-8.1923828,1.3105469-9.6728516,2.7001953
	c-1.4814453,1.390625-2.2216797,4.4091797-2.2216797,9.0576172v64.3261719c0,4.6484375,0.7402344,7.6679688,2.2216797,9.0576172
	c1.4804688,1.390625,4.7050781,2.2900391,9.6728516,2.7001953V410.6497498z M1018.5343628,267.8497009v183.5395508H834.994812
	V267.8497009H1018.5343628z M1003.5343628,282.8497009H849.994812v153.5395508h153.5395508V282.8497009z"/>
<path id="XMLID_28_" class="st1" d="M1102.2912598,390.9280701c0-4.0097656,1.2412109-7.3251953,3.7255859-9.9462891
	c2.4833984-2.6201172,5.6396484-3.9306641,9.4677734-3.9306641c3.5996094,0,6.5732422,1.1738281,8.9208984,3.5205078
	c2.3466797,2.3476563,3.5205078,5.3212891,3.5205078,8.9208984c0,3.6464844-1.7089844,6.9042969-5.1269531,9.7753906
	c-0.9570313,0.8203125-1.4355469,1.390625-1.4355469,1.7089844c0,0.8662109,0.6259766,1.6640625,1.8798828,2.3925781
	c1.2529297,0.7294922,2.7226563,1.09375,4.4091797,1.09375c4.6025391,0,8.0664063-1.9248047,10.390625-5.7763672
	c2.3242188-3.8505859,3.4863281-9.6269531,3.4863281-17.3291016v-55.1660156c0-4.5566406-0.8095703-7.5302734-2.4267578-8.9208984
	c-1.6181641-1.3896484-5.2978516-2.3349609-11.0400391-2.8369141v-7.109375h50.7910156v7.109375
	c-5.0585938,0.4560547-8.3291016,1.390625-9.8095703,2.8027344c-1.4814453,1.4130859-2.2216797,4.3984375-2.2216797,8.9550781
	v47.7832031c0,7.4287109-0.4560547,12.9775391-1.3671875,16.6455078c-0.9121094,3.6689453-2.4609375,6.8476563-4.6484375,9.5361328
	c-3.0996094,3.7832031-7.2460938,6.6884766-12.4414063,8.7158203s-11.1660156,3.0419922-17.9101563,3.0419922
	c-8.7050781,0-15.5751953-1.8916016-20.6103516-5.6738281
	C1104.8088379,402.4583435,1102.2912598,397.3538513,1102.2912598,390.9280701z M1232.3425293,267.8497009v183.5395508h-183.5400391
	V267.8497009H1232.3425293z M1217.3425293,282.8497009h-153.5400391v153.5395508h153.5400391V282.8497009z"/>
<path id="XMLID_24_" class="st2" d="M1262.6109619,267.8497009v183.5395508h183.5390625V267.8497009H1262.6109619z
	 M1431.1500244,436.3892517h-153.5390625V282.8497009h153.5390625V436.3892517z M1346.9976807,410.6497498h-48.9453125v-7.109375
	c5.0585938-0.4550781,8.328125-1.3896484,9.8095703-2.8027344c1.4804688-1.4121094,2.2216797-4.3974609,2.2216797-8.9550781
	v-64.3261719c0-4.5566406-0.7412109-7.5419922-2.2216797-8.9550781c-1.4814453-1.4121094-4.7509766-2.3466797-9.8095703-2.8027344
	v-7.109375h48.9453125v7.109375c-5.0585938,0.4560547-8.3291016,1.390625-9.8095703,2.8027344
	c-1.4814453,1.4130859-2.2216797,4.3984375-2.2216797,8.9550781v30.9667969l29.53125-28.0273438
	c1.8681641-1.7314453,3.3154297-3.4404297,4.3408203-5.1269531c1.0253906-1.6855469,1.5380859-3.1894531,1.5380859-4.5117188
	c0-1.640625-0.9570313-2.8935547-2.8710938-3.7597656c-1.9140625-0.8652344-4.7402344-1.2988281-8.4765625-1.2988281h-0.8203125
	v-7.109375h45.6640625v7.109375h-0.8203125c-3.3271484,0-6.7333984,0.7861328-10.2197266,2.3583984
	s-6.8017578,3.7939453-9.9462891,6.6650391l-21.6015625,19.9609375l35.1367188,47.6464844
	c2.2324219,2.9628906,4.5566406,5.3896484,6.9726563,7.2802734c2.4150391,1.8916016,4.8535156,3.2021484,7.3144531,3.9306641
	v7.109375h-50.3808594v-7.109375c4.5117188-0.1816406,7.3369141-0.5234375,8.4765625-1.0253906
	c1.1386719-0.5009766,1.7089844-1.3896484,1.7089844-2.6660156c0-1.3212891-0.5703125-2.8027344-1.7089844-4.4433594
	l-0.0683594-0.1367188l-25.7714844-35.2734375l-7.9980469,7.2460938v24.5410156
	c0,4.5576172,0.7402344,7.5429688,2.2216797,8.9550781c1.4804688,1.4130859,4.7509766,2.3476563,9.8095703,2.8027344V410.6497498z"
	/>
<path id="XMLID_22_" class="st3" d="M1476.4189453,267.8497009v183.5395508h183.5390625V267.8497009H1476.4189453z
	 M1644.9580078,436.3892517h-153.5390625V282.8497009h153.5390625V436.3892517z M1613.1689453,410.6497498h-92.2167969v-7.109375
	c5.0585938-0.4550781,8.328125-1.3896484,9.8095703-2.8027344c1.4804688-1.4121094,2.2216797-4.3974609,2.2216797-8.9550781
	v-64.3261719c0-4.5566406-0.7412109-7.5419922-2.2216797-8.9550781c-1.4814453-1.4121094-4.7509766-2.3466797-9.8095703-2.8027344
	v-7.109375h49.21875v7.109375c-4.9677734,0.4101563-8.1923828,1.3105469-9.6728516,2.7001953
	c-1.4814453,1.390625-2.2216797,4.4091797-2.2216797,9.0576172v64.3261719c0,5.0136719,1.0136719,8.2265625,3.0419922,9.6386719
	c2.0273438,1.4130859,6.3916016,2.1191406,13.0908203,2.1191406c9.9345703,0,17.7050781-2.7451172,23.3105469-8.2373047
	c5.6054688-5.4912109,8.8867188-13.5917969,9.84375-24.3017578h7.8613281L1613.1689453,410.6497498z"/>
<path id="XMLID_20_" class="st0" d="M1690.2269287,267.8497009v183.5395508h183.5390625V267.8497009H1690.2269287z
	 M1858.7659912,436.3892517h-153.5390625V282.8497009h153.5390625V436.3892517z M1751.2689209,410.6497498h-35.6835938v-7.109375
	c5.8789063-0.3642578,9.6044922-1.2304688,11.1767578-2.5976563s2.3583984-4.4199219,2.3583984-9.1601563v-64.3261719
	c0-4.7392578-0.7861328-7.7929688-2.3583984-9.1601563s-5.2978516-2.2324219-11.1767578-2.5976563v-7.109375h44.5019531
	l22.421875,68.6328125l20.9863281-68.6328125h44.9121094v7.109375c-5.9248047,0.3652344-9.6845703,1.2421875-11.2792969,2.6318359
	c-1.5957031,1.390625-2.3925781,4.4326172-2.3925781,9.1259766v64.3261719c0,4.6943359,0.8085938,7.7363281,2.4267578,9.1259766
	c1.6171875,1.390625,5.3662109,2.2675781,11.2451172,2.6318359v7.109375h-51.6113281v-7.109375
	c5.8789063-0.3642578,9.6044922-1.2304688,11.1767578-2.5976563s2.3583984-4.4199219,2.3583984-9.1601563v-76.2207031h-1.09375
	l-28.984375,95.0878906h-10.2539063l-31.0351563-95.0878906h-1.2988281v76.2207031
	c0,4.7402344,0.796875,7.7929688,2.3925781,9.1601563c1.5947266,1.3671875,5.3320313,2.2333984,11.2109375,2.5976563V410.6497498z"
	/>
<path id="XMLID_21_" class="st0" d="M623.8292236,709.9225464v183.5395508h183.5395508V709.9225464H623.8292236z
	 M792.3687744,878.4620972H638.8292236V724.9225464h153.5395508V878.4620972z M672.7376709,759.1044312
	c-1.4589844-1.3212891-4.7851563-2.1640625-9.9804688-2.5292969v-7.109375h48.4667969v7.109375
	c-4.4667969,0.2734375-7.40625,1.09375-8.8183594,2.4609375c-1.4130859,1.3671875-2.1191406,4.4667969-2.1191406,9.296875
	v45.1171875c0,10.7099609,1.8681641,18.4912109,5.6054688,23.3447266c3.7363281,4.8535156,9.7070313,7.2802734,17.9101563,7.2802734
	c8.1572266,0,14.1845703-2.4833984,18.0810547-7.4511719c3.8964844-4.9667969,5.8447266-12.6914063,5.8447266-23.1738281
	v-45.1171875c0-4.8300781-0.7070313-7.9296875-2.1191406-9.296875c-1.4130859-1.3671875-4.3300781-2.1875-8.75-2.4609375v-7.109375
	h31.5820313v7.109375c-5.1503906,0.3652344-8.4658203,1.2080078-9.9462891,2.5292969
	c-1.4814453,1.3222656-2.2216797,4.3984375-2.2216797,9.2285156v42.9980469c0,14.8115234-3.2587891,25.6123047-9.7753906,32.4023438
	c-6.5175781,6.7910156-16.8398438,10.1855469-30.9667969,10.1855469c-14.0820313,0-24.3701172-3.40625-30.8642578-10.2197266
	c-6.4941406-6.8125-9.7412109-17.6025391-9.7412109-32.3681641v-42.9980469
	C674.9251709,763.5028687,674.1956787,760.4266968,672.7376709,759.1044312z"/>
<path id="XMLID_52_" class="st1" d="M837.5896606,709.9225464v183.5395508h183.5395508V709.9225464H837.5896606z
	 M1006.1292114,878.4620972H852.5896606V724.9225464h153.5395508V878.4620972z M886.0195923,760.1640015
	c-1.8457031-1.7089844-4.4775391-2.9052734-7.8955078-3.5888672v-7.109375h48.4667969v7.109375
	c-3.9199219,0.5019531-6.6083984,1.1962891-8.0664063,2.0849609c-1.4589844,0.8886719-2.1875,2.2675781-2.1875,4.1357422
	c0,0.546875,0.0908203,1.1962891,0.2734375,1.9482422c0.1816406,0.7519531,0.4785156,1.6748047,0.8886719,2.7685547
	l21.2597656,57.8320313l19.0722656-54.3457031c0.0908203-0.3183594,0.25-0.796875,0.4785156-1.4355469
	c1.0478516-2.9619141,1.5722656-4.9902344,1.5722656-6.0839844c0-1.8681641-0.84375-3.3261719-2.5292969-4.375
	c-1.6865234-1.0478516-4.6259766-1.890625-8.8183594-2.5292969v-7.109375h32.0605469v7.109375
	c-3.1445313,0.5927734-5.7197266,1.9257813-7.7246094,3.9990234c-2.0058594,2.0742188-3.8515625,5.3662109-5.5371094,9.8779297
	l-30.6933594,83.4667969h-14.4238281l-31.171875-85.1074219
	C889.5401001,764.7557983,887.8652954,761.8729858,886.0195923,760.1640015z"/>
<path id="XMLID_50_" class="st2" d="M1051.3498535,709.9225464v183.5395508h183.5400391V709.9225464H1051.3498535z
	 M1219.8898926,878.4620972h-153.5400391V724.9225464h153.5400391V878.4620972z M1073.2565918,756.5751343v-7.109375h41.4257813
	v7.109375c-2.5527344,0.5927734-4.3984375,1.3564453-5.5371094,2.2900391
	c-1.1396484,0.9345703-1.7089844,2.1992188-1.7089844,3.7939453c0,0.7753906,0.1816406,1.9824219,0.546875,3.6230469
	c0.1367188,0.546875,0.2275391,0.9570313,0.2734375,1.2304688l14.0136719,55.3027344l16.1328125-55.3027344
	c-0.546875-3.4179688-1.7207031-5.9472656-3.5205078-7.5878906c-1.8007813-1.640625-4.5917969-2.7568359-8.3740234-3.3496094
	v-7.109375h44.0917969v7.109375c-3.3730469,0.4101563-5.765625,1.0712891-7.1777344,1.9824219
	c-1.4130859,0.9121094-2.1191406,2.2792969-2.1191406,4.1015625c0,0.6386719,0.0683594,1.3564453,0.2050781,2.1533203
	c0.1367188,0.7978516,0.3642578,1.6982422,0.6835938,2.7001953l14.1503906,55.8496094l15.3808594-52.3632813
	c0.5009766-1.7773438,0.8544922-3.2353516,1.0595703-4.375c0.2050781-1.1386719,0.3076172-2.1875,0.3076172-3.1445313
	c0-2.0048828-0.6611328-3.4628906-1.9824219-4.375c-1.3222656-0.9111328-4.2841797-1.7539063-8.8867188-2.5292969v-7.109375
	h30.7617188v7.109375c-2.8261719,0.5019531-5.21875,1.8574219-7.1777344,4.0673828
	c-1.9599609,2.2109375-3.6230469,5.4804688-4.9902344,9.8095703l-25.7714844,83.4667969h-13.125l-18.6621094-75.1953125
	l-22.3535156,75.1953125h-12.6464844l-24.7460938-85.1074219l-0.1367188-0.4785156
	C1081.2770996,760.9501343,1077.9050293,757.031189,1073.2565918,756.5751343z"/>
<path id="XMLID_68_" class="st3" d="M1265.1108398,709.9225464v183.5395508h183.5390625V709.9225464H1265.1108398z
	 M1433.6499023,878.4620972h-153.5390625V724.9225464h153.5390625V878.4620972z M1327.4858398,827.2245483l18.3203125-21.9433594
	l-25.4296875-37.1191406c-2.734375-3.9648438-5.4238281-6.6875-8.0664063-8.1689453
	c-2.6435547-1.4804688-5.9238281-2.2216797-9.84375-2.2216797h-0.6152344v-7.109375h54.0722656v7.109375h-4.2382813
	c-1.8232422,0-3.28125,0.2626953-4.375,0.7861328c-1.09375,0.5244141-1.640625,1.1962891-1.640625,2.0166016
	c0,0.9121094,0.2734375,1.9599609,0.8203125,3.1445313c0.546875,1.1855469,1.34375,2.5292969,2.3925781,4.0332031
	l12.6464844,18.046875l11.7578125-14.1503906c1.3671875-1.5947266,2.4951172-3.3261719,3.3837891-5.1953125
	c0.8886719-1.8681641,1.3330078-3.3037109,1.3330078-4.3066406c0-1.3671875-0.8320313-2.4375-2.4951172-3.2128906
	c-1.6640625-0.7744141-4.0449219-1.1621094-7.1435547-1.1621094h-1.5039063v-7.109375h41.2890625v7.109375h-0.546875
	c-4.2382813,0-7.8730469,0.7412109-10.9033203,2.2216797c-3.03125,1.4814453-6.0273438,4.0224609-8.9892578,7.6220703
	l-21.1914063,25.4980469l26.9335938,38.6230469c0.2734375,0.4101563,0.6835938,1.0029297,1.2304688,1.7773438
	c5.46875,8.0664063,11.3476563,12.0996094,17.6367188,12.0996094v7.109375h-54.7558594v-7.109375h4.7851563
	c2.5976563,0,4.4882813-0.3417969,5.6738281-1.0253906c1.1845703-0.6835938,1.7773438-1.7998047,1.7773438-3.3496094
	c0-0.5009766-0.2509766-1.3330078-0.7519531-2.4951172c-0.5019531-1.1621094-1.09375-2.2441406-1.7773438-3.2470703
	l-16.2695313-22.96875l-16.4746094,19.6191406c-1.1396484,1.2763672-2.0166016,2.609375-2.6318359,3.9990234
	c-0.6152344,1.390625-0.9228516,2.6777344-0.9228516,3.8623047c0,1.6865234,0.9453125,2.9628906,2.8369141,3.828125
	c1.890625,0.8662109,5.1152344,1.4589844,9.6728516,1.7773438v7.109375h-41.9042969l-0.1367188-7.109375
	c4.6035156-0.8203125,8.7724609-2.4951172,12.5097656-5.0244141
	C1317.6870117,838.0595093,1322.1987305,833.6054077,1327.4858398,827.2245483z"/>
<path id="XMLID_46_" class="st0" d="M1478.8712158,709.9225464v183.5395508h183.5390625V709.9225464H1478.8712158z
	 M1647.4102783,878.4620972h-153.5390625V724.9225464h153.5390625V878.4620972z M1518.1407471,757.7714233h-1.09375v-7.109375
	h53.7304688v7.109375c-4.3300781,0.1826172-7.4169922,0.7753906-9.2626953,1.7773438
	c-1.8457031,1.0029297-2.7685547,2.5751953-2.7685547,4.7167969c0,0.8662109,0.1025391,1.6640625,0.3076172,2.3925781
	c0.2050781,0.7294922,0.5126953,1.4130859,0.9228516,2.0507813l20.4394531,34.1796875l17.9101563-30.6933594
	c0.6835938-1.09375,1.2070313-2.2558594,1.5722656-3.4863281c0.3642578-1.2304688,0.546875-2.3925781,0.546875-3.4863281
	c0-2.2783203-0.9228516-3.9755859-2.7685547-5.0927734c-1.8457031-1.1162109-5.1611328-1.9023438-9.9462891-2.3583984v-7.109375
	h36.5039063v7.109375h-1.09375c-2.5527344,0-4.8427734,0.8203125-6.8701172,2.4609375
	c-2.0283203,1.640625-4.8652344,5.4462891-8.5107422,11.4160156l-24.6777344,40.6054688v21.6015625
	c0,4.4667969,0.8994141,7.4287109,2.7001953,8.8867188c1.7998047,1.4589844,6.0722656,2.4160156,12.8173828,2.8710938v7.109375
	h-56.2597656v-7.109375c6.7900391-0.4550781,11.0849609-1.4121094,12.8857422-2.8710938
	c1.7998047-1.4580078,2.7001953-4.4199219,2.7001953-8.8867188v-21.6015625l-25.0878906-42.2460938
	c-2.7802734-4.6484375-5.2529297-7.8496094-7.4169922-9.6044922
	C1523.2559814,758.649353,1520.8302002,757.7714233,1518.1407471,757.7714233z"/>
<path id="XMLID_31_" class="st1" d="M1692.6317139,709.9225464v183.5395508h183.5390625V709.9225464H1692.6317139z
	 M1861.1707764,878.4620972h-153.5390625V724.9225464h153.5390625V878.4620972z M1825.2801514,852.7225952h-84.1503906v-8.1347656
	l57.421875-86.4746094h-13.8769531c-9.5253906,0-16.7822266,2.3017578-21.7724609,6.9042969
	c-4.9902344,4.6035156-8.3291016,12.1455078-10.0146484,22.6269531h-8.203125l3.0761719-36.9824219h79.9121094v7.4511719
	l-57.5585938,86.4746094h17.2265625c10.0712891,0,17.6132813-2.2216797,22.6269531-6.6650391
	c5.0126953-4.4433594,8.3847656-11.9287109,10.1171875-22.4560547h7.5878906L1825.2801514,852.7225952z"/>
</svg>
