<svg xmlns="http://www.w3.org/2000/svg" viewBox="0 0 197.35305604467084 162.55152516861637" width="197.35305604467084" height="162.55152516861637">
<rect x="0" y="0" width="197.35305604467084" height="162.55152516861637" fill="#ffffff"/>
<g transform="translate(174.3676897207105 -197.1388955680224)">
<rect x="-164.3676897207105" y="207.1388955680224" width="161.5894115299652" height="142.33916148700922" rx="32" ry="32" fill="#ffec99" fill-opacity="1" stroke="#f08c00" stroke-width="2" stroke-opacity="1" transform="rotate(358.4649274390708 -83.5729839557279 278.308476311527)"/>
<rect x="-102.4724176608589" y="248.7790373936345" width="115.45778398481923" height="72.86952300678112" rx="18.21738075169528" ry="18.21738075169528" fill="#b2f2bb" fill-opacity="1" stroke="#2f9e44" stroke-width="2" stroke-opacity="1" transform="rotate(90.02896651902498 -44.74352566844928 285.2137988970251)"/>
<rect x="-157.9432250612914" y="223.44060937198014" width="67.83195404115241" height="56.05480706507515" rx="14.013701766268788" ry="14.013701766268788" fill="#b2f2bb" fill-opacity="1" stroke="#2f9e44" stroke-width="2" stroke-opacity="1"/>
<rect x="-158.7309204585287" y="285.02487763741647" width="66.02050279531221" height="64.66554309922232" rx="16.16638577480558" ry="16.16638577480558" fill="#b2f2bb" fill-opacity="1" stroke="#2f9e44" stroke-width="2" stroke-opacity="1"/>
<rect x="-96.11876287540422" y="267.1412683668737" width="102.9710894862666" height="36.95949279098565" rx="9.239873197746412" ry="9.239873197746412" fill="#ffffff" fill-opacity="1" stroke="#1e1e1e" stroke-width="2" stroke-opacity="1" transform="rotate(269.857017169484 -44.63321813227091 285.62101476236654)"/>
<rect x="-137.9628621173647" y="282.2489096127654" width="23.12008687140773" height="37.19071023215758" rx="5.780021717851932" ry="5.780021717851932" fill="#ffffff" fill-opacity="1" stroke="#1e1e1e" stroke-width="2" stroke-opacity="1" transform="rotate(269.857017169484 -126.40281868166083 300.84426472884417)"/>
<rect x="-132.60358767260047" y="244.33419851527216" width="23.236417754601945" height="36.959492790985614" rx="5.809104438650486" ry="5.809104438650486" fill="#ffffff" fill-opacity="1" stroke="#1e1e1e" stroke-width="2" stroke-opacity="1" transform="rotate(269.857017169484 -120.9853787952995 262.813944910765)"/>
</g>
</svg>