<svg xmlns="http://www.w3.org/2000/svg" viewBox="0 0 226.27656193809824 155.8178951201956" width="226.27656193809824" height="155.8178951201956">
<rect x="0" y="0" width="226.27656193809824" height="155.8178951201956" fill="#ffffff"/>
<g transform="translate(190.11460127138164 -374.6315752791142)">
<rect x="-180.11460127138164" y="384.6315752791142" width="206.27656193809824" height="134.7449807510501" rx="32" ry="32" fill="#ffec99" fill-opacity="1" stroke="#f08c00" stroke-width="2" stroke-opacity="1" transform="rotate(359.78374830225266 -76.97632030233252 452.00406565463925)"/>
<rect x="-164.39251254495684" y="399.7004922339016" width="75.66635382708256" height="50.97563984634721" rx="12.743909961586802" ry="12.743909961586802" fill="#b2f2bb" fill-opacity="1" stroke="#2f9e44" stroke-width="2" stroke-opacity="1"/>
<rect x="-147.00892529669858" y="444.55587806039006" width="48.03318927785717" height="75.89359233891977" rx="12.008297319464292" ry="12.008297319464292" fill="#b2f2bb" fill-opacity="1" stroke="#2f9e44" stroke-width="2" stroke-opacity="1" transform="rotate(90.02896651902498 -122.99233065777 482.50267422984996)"/>
<rect x="-90.71831777826652" y="407.0314823992207" width="115.45778398481923" height="94.47670441409983" rx="23.619176103524957" ry="23.619176103524957" fill="#b2f2bb" fill-opacity="1" stroke="#2f9e44" stroke-width="2" stroke-opacity="1" transform="rotate(90.02896651902498 -32.98942578585691 454.2698346062706)"/>
<rect x="-141.05551997626443" y="409.28982492763333" width="23.236417754601945" height="36.959492790985614" rx="5.809104438650486" ry="5.809104438650486" fill="#ffffff" fill-opacity="1" stroke="#1e1e1e" stroke-width="2" stroke-opacity="1" transform="rotate(269.857017169484 -129.43731109896345 427.7695713231261)"/>
<rect x="-140.0178335078226" y="461.6259540949443" width="23.816178742338984" height="36.959492790985614" rx="5.954044685584746" ry="5.954044685584746" fill="#ffffff" fill-opacity="1" stroke="#1e1e1e" stroke-width="2" stroke-opacity="1" transform="rotate(269.857017169484 -128.1097441366531 480.1057004904371)"/>
<rect x="-63.19761412266915" y="435.27038374633" width="67.99021868423034" height="36.959492790985614" rx="9.239873197746403" ry="9.239873197746403" fill="#ffffff" fill-opacity="1" stroke="#1e1e1e" stroke-width="2" stroke-opacity="1" transform="rotate(269.857017169484 -29.20250478055398 453.7501301418228)"/>
</g>
</svg>