<svg xmlns="http://www.w3.org/2000/svg" viewBox="0 0 223.9072620659946 154.24772479690478" width="223.9072620659946" height="154.24772479690478">
<rect x="0" y="0" width="223.9072620659946" height="154.24772479690478" fill="#ffffff"/>
<g transform="translate(188.75082061987717 -517.0037039838568)">
<rect x="-178.75082061987717" y="530.5017896653087" width="203.9072620659946" height="130.74963911545288" rx="32" ry="32" fill="#ffec99" fill-opacity="1" stroke="#f08c00" stroke-width="2" stroke-opacity="1" transform="rotate(0.11830246381020917 -76.79718958687988 595.8766092230352)"/>
<rect x="-142.005341388347" y="527.0037039838568" width="47.038357800362654" height="74.32873837835388" rx="11.759589450090663" ry="11.759589450090663" fill="#b2f2bb" fill-opacity="1" stroke="#2f9e44" stroke-width="2" stroke-opacity="1" transform="rotate(90.02896651902498 -118.48616248816568 564.1680731730337)"/>
<rect x="-141.78744636436264" y="585.3985544141432" width="47.038357800362654" height="74.32873837835388" rx="11.759589450090663" ry="11.759589450090663" fill="#b2f2bb" fill-opacity="1" stroke="#2f9e44" stroke-width="2" stroke-opacity="1" transform="rotate(90.02896651902498 -118.2682674641813 622.5629236033201)"/>
<rect x="-89.47159546960827" y="555.5675011774051" width="108.40882138600733" height="74.32873837835399" rx="18.582184594588497" ry="18.582184594588497" fill="#b2f2bb" fill-opacity="1" stroke="#2f9e44" stroke-width="2" stroke-opacity="1" transform="rotate(90.02896651902498 -35.26718477660461 592.7318703665821)"/>
<rect x="-131.65914694191878" y="598.3548942348423" width="23.236417754601945" height="47.839002166510056" rx="5.809104438650486" ry="5.809104438650486" fill="#ffffff" fill-opacity="1" stroke="#1e1e1e" stroke-width="2" stroke-opacity="1" transform="rotate(269.857017169484 -120.0409380646178 622.2743953180973)"/>
<rect x="-76.52657500168367" y="582.0866202265485" width="70.32538888644929" height="19.960677952605163" rx="4.990169488151291" ry="4.990169488151291" fill="#ffffff" fill-opacity="1" stroke="#1e1e1e" stroke-width="2" stroke-opacity="1" transform="rotate(269.857017169484 -41.36388055845902 592.0669592028511)"/>
<rect x="-136.97096771544713" y="553.5038918906423" width="19.33078151227504" height="23.14389540145117" rx="4.83269537806876" ry="4.83269537806876" fill="#ffffff" fill-opacity="1" stroke="#1e1e1e" stroke-width="2" stroke-opacity="1" transform="rotate(180.04144495723804 -127.3055769593096 565.0758395913679)"/>
<rect x="-117.59067980042343" y="553.876347529825" width="17.584698849482507" height="22.16620567406801" rx="4.396174712370627" ry="4.396174712370627" fill="#ffffff" fill-opacity="1" stroke="#1e1e1e" stroke-width="2" stroke-opacity="1" transform="rotate(180.04144495723804 -108.79833037568218 564.9594503668591)"/>
<rect x="-58.145200095099256" y="585.2091812101962" width="70.32538888644929" height="16.28227419135219" rx="4.070568547838048" ry="4.070568547838048" fill="#ffffff" fill-opacity="1" stroke="#1e1e1e" stroke-width="2" stroke-opacity="1" transform="rotate(269.857017169484 -22.98250565187461 593.3503183058723)"/>
</g>
</svg>