<svg xmlns="http://www.w3.org/2000/svg" viewBox="0 0 162.55152516861637 197.35305604467084" width="162.55152516861637" height="197.35305604467084">
<rect x="0" y="0" width="162.55152516861637" height="197.35305604467084" fill="#ffffff"/>
<g transform="translate(-197.1388955680224 174.3676897207105)">
<rect x="207.1388955680224" y="-164.3676897207105" width="142.33916148700922" height="161.5894115299652" rx="32" ry="32" fill="#ffec99" fill-opacity="1" stroke="#f08c00" stroke-width="2" stroke-opacity="1" transform="rotate(358.4649274390708 278.308476311527 -83.5729839557279)"/>
<rect x="248.7790373936345" y="-102.4724176608589" width="72.86952300678112" height="115.45778398481923" rx="18.21738075169528" ry="18.21738075169528" fill="#b2f2bb" fill-opacity="1" stroke="#2f9e44" stroke-width="2" stroke-opacity="1" transform="rotate(90.02896651902498 285.2137988970251 -44.74352566844928)"/>
<rect x="223.44060937198014" y="-157.9432250612914" width="56.05480706507515" height="67.83195404115241" rx="14.013701766268788" ry="14.013701766268788" fill="#b2f2bb" fill-opacity="1" stroke="#2f9e44" stroke-width="2" stroke-opacity="1"/>
<rect x="285.02487763741647" y="-158.7309204585287" width="64.66554309922232" height="66.02050279531221" rx="16.16638577480558" ry="16.16638577480558" fill="#b2f2bb" fill-opacity="1" stroke="#2f9e44" stroke-width="2" stroke-opacity="1"/>
<rect x="267.1412683668737" y="-96.11876287540422" width="36.95949279098565" height="102.9710894862666" rx="9.239873197746412" ry="9.239873197746412" fill="#ffffff" fill-opacity="1" stroke="#1e1e1e" stroke-width="2" stroke-opacity="1" transform="rotate(269.857017169484 285.62101476236654 -44.63321813227091)"/>
<rect x="282.2489096127654" y="-137.9628621173647" width="37.19071023215758" height="23.12008687140773" rx="5.780021717851932" ry="5.780021717851932" fill="#ffffff" fill-opacity="1" stroke="#1e1e1e" stroke-width="2" stroke-opacity="1" transform="rotate(269.857017169484 300.84426472884417 -126.40281868166083)"/>
<rect x="244.33419851527216" y="-132.60358767260047" width="36.959492790985614" height="23.236417754601945" rx="5.809104438650486" ry="5.809104438650486" fill="#ffffff" fill-opacity="1" stroke="#1e1e1e" stroke-width="2" stroke-opacity="1" transform="rotate(269.857017169484 262.813944910765 -120.9853787952995)"/>
</g>
</svg>