<svg xmlns="http://www.w3.org/2000/svg" viewBox="0 0 155.8178951201956 226.27656193809824" width="155.8178951201956" height="226.27656193809824">
<rect x="0" y="0" width="155.8178951201956" height="226.27656193809824" fill="#ffffff"/>
<g transform="translate(-374.6315752791142 190.11460127138164)">
<rect x="384.6315752791142" y="-180.11460127138164" width="134.7449807510501" height="206.27656193809824" rx="32" ry="32" fill="#ffec99" fill-opacity="1" stroke="#f08c00" stroke-width="2" stroke-opacity="1" transform="rotate(359.78374830225266 452.00406565463925 -76.97632030233252)"/>
<rect x="399.7004922339016" y="-164.39251254495684" width="50.97563984634721" height="75.66635382708256" rx="12.743909961586802" ry="12.743909961586802" fill="#b2f2bb" fill-opacity="1" stroke="#2f9e44" stroke-width="2" stroke-opacity="1"/>
<rect x="444.55587806039006" y="-147.00892529669858" width="75.89359233891977" height="48.03318927785717" rx="12.008297319464292" ry="12.008297319464292" fill="#b2f2bb" fill-opacity="1" stroke="#2f9e44" stroke-width="2" stroke-opacity="1" transform="rotate(90.02896651902498 482.50267422984996 -122.99233065777)"/>
<rect x="407.0314823992207" y="-90.71831777826652" width="94.47670441409983" height="115.45778398481923" rx="23.619176103524957" ry="23.619176103524957" fill="#b2f2bb" fill-opacity="1" stroke="#2f9e44" stroke-width="2" stroke-opacity="1" transform="rotate(90.02896651902498 454.2698346062706 -32.98942578585691)"/>
<rect x="409.28982492763333" y="-141.05551997626443" width="36.959492790985614" height="23.236417754601945" rx="5.809104438650486" ry="5.809104438650486" fill="#ffffff" fill-opacity="1" stroke="#1e1e1e" stroke-width="2" stroke-opacity="1" transform="rotate(269.857017169484 427.7695713231261 -129.43731109896345)"/>
<rect x="461.6259540949443" y="-140.0178335078226" width="36.959492790985614" height="23.816178742338984" rx="5.954044685584746" ry="5.954044685584746" fill="#ffffff" fill-opacity="1" stroke="#1e1e1e" stroke-width="2" stroke-opacity="1" transform="rotate(269.857017169484 480.1057004904371 -128.1097441366531)"/>
<rect x="435.27038374633" y="-63.19761412266915" width="36.959492790985614" height="67.99021868423034" rx="9.239873197746403" ry="9.239873197746403" fill="#ffffff" fill-opacity="1" stroke="#1e1e1e" stroke-width="2" stroke-opacity="1" transform="rotate(269.857017169484 453.7501301418228 -29.20250478055398)"/>
</g>
</svg>