<svg xmlns="http://www.w3.org/2000/svg" viewBox="0 0 154.24772479690478 223.9072620659946" width="154.24772479690478" height="223.9072620659946">
<rect x="0" y="0" width="154.24772479690478" height="223.9072620659946" fill="#ffffff"/>
<g transform="translate(-517.0037039838568 188.75082061987717)">
<rect x="530.5017896653087" y="-178.75082061987717" width="130.74963911545288" height="203.9072620659946" rx="32" ry="32" fill="#ffec99" fill-opacity="1" stroke="#f08c00" stroke-width="2" stroke-opacity="1" transform="rotate(0.11830246381020917 595.8766092230352 -76.79718958687988)"/>
<rect x="527.0037039838568" y="-142.005341388347" width="74.32873837835388" height="47.038357800362654" rx="11.759589450090663" ry="11.759589450090663" fill="#b2f2bb" fill-opacity="1" stroke="#2f9e44" stroke-width="2" stroke-opacity="1" transform="rotate(90.02896651902498 564.1680731730337 -118.48616248816568)"/>
<rect x="585.3985544141432" y="-141.78744636436264" width="74.32873837835388" height="47.038357800362654" rx="11.759589450090663" ry="11.759589450090663" fill="#b2f2bb" fill-opacity="1" stroke="#2f9e44" stroke-width="2" stroke-opacity="1" transform="rotate(90.02896651902498 622.5629236033201 -118.2682674641813)"/>
<rect x="555.5675011774051" y="-89.47159546960827" width="74.32873837835399" height="108.40882138600733" rx="18.582184594588497" ry="18.582184594588497" fill="#b2f2bb" fill-opacity="1" stroke="#2f9e44" stroke-width="2" stroke-opacity="1" transform="rotate(90.02896651902498 592.7318703665821 -35.26718477660461)"/>
<rect x="598.3548942348423" y="-131.65914694191878" width="47.839002166510056" height="23.236417754601945" rx="5.809104438650486" ry="5.809104438650486" fill="#ffffff" fill-opacity="1" stroke="#1e1e1e" stroke-width="2" stroke-opacity="1" transform="rotate(269.857017169484 622.2743953180973 -120.0409380646178)"/>
<rect x="582.0866202265485" y="-76.52657500168367" width="19.960677952605163" height="70.32538888644929" rx="4.990169488151291" ry="4.990169488151291" fill="#ffffff" fill-opacity="1" stroke="#1e1e1e" stroke-width="2" stroke-opacity="1" transform="rotate(269.857017169484 592.0669592028511 -41.36388055845902)"/>
<rect x="553.5038918906423" y="-136.97096771544713" width="23.14389540145117" height="19.33078151227504" rx="4.83269537806876" ry="4.83269537806876" fill="#ffffff" fill-opacity="1" stroke="#1e1e1e" stroke-width="2" stroke-opacity="1" transform="rotate(180.04144495723804 565.0758395913679 -127.3055769593096)"/>
<rect x="553.876347529825" y="-117.59067980042343" width="22.16620567406801" height="17.584698849482507" rx="4.396174712370627" ry="4.396174712370627" fill="#ffffff" fill-opacity="1" stroke="#1e1e1e" stroke-width="2" stroke-opacity="1" transform="rotate(180.04144495723804 564.9594503668591 -108.79833037568218)"/>
<rect x="585.2091812101962" y="-58.145200095099256" width="16.28227419135219" height="70.32538888644929" rx="4.070568547838048" ry="4.070568547838048" fill="#ffffff" fill-opacity="1" stroke="#1e1e1e" stroke-width="2" stroke-opacity="1" transform="rotate(269.857017169484 593.3503183058723 -22.98250565187461)"/>
</g>
</svg>