<svg xmlns="http://www.w3.org/2000/svg" viewBox="0 0 167.50885574059623 233.19293483521372" width="167.50885574059623" height="233.19293483521372">
<rect x="0" y="0" width="167.50885574059623" height="233.19293483521372" fill="#ffffff"/>
<g transform="translate(-657.4345602908933 186.16491649029433)">
<rect x="667.4345602908933" y="-176.16491649029433" width="147.50885574059626" height="213.19293483521372" rx="32" ry="32" fill="#d0bfff" fill-opacity="1" stroke="#6741d9" stroke-width="2" stroke-opacity="1" transform="rotate(0.11830246381020917 741.1889881611914 -69.56844907268747)"/>
<rect x="674.6980700693123" y="-169.46181239040538" width="130.74963911545288" height="203.9072620659946" rx="32" ry="32" fill="#ffec99" fill-opacity="1" stroke="#f08c00" stroke-width="2" stroke-opacity="1" transform="rotate(0.11830246381020917 740.0728896270388 -67.50818135740809)"/>
<rect x="731.9957626325945" y="-139.4243594829038" width="81.44089850079041" height="52.509128896855856" rx="13.127282224213964" ry="13.127282224213964" fill="#b2f2bb" fill-opacity="1" stroke="#2f9e44" stroke-width="2" stroke-opacity="1" transform="rotate(90.02896651902498 772.7162118829897 -113.16979503447588)"/>
<rect x="671.3482163197237" y="-142.70096212574276" width="81.44089850079041" height="52.509128896855856" rx="13.127282224213964" ry="13.127282224213964" fill="#b2f2bb" fill-opacity="1" stroke="#2f9e44" stroke-width="2" stroke-opacity="1" transform="rotate(90.02896651902498 712.0686655701189 -116.44639767731483)"/>
<rect x="699.287136198917" y="-83.81689963487283" width="81.44089850079052" height="113.8360560719564" rx="20.36022462519763" ry="20.36022462519763" fill="#b2f2bb" fill-opacity="1" stroke="#2f9e44" stroke-width="2" stroke-opacity="1" transform="rotate(90.02896651902498 740.0075854493123 -26.898871598894623)"/>
<rect x="745.9154922582877" y="-124.55336516883966" width="57.98674650138491" height="23.236417754601945" rx="5.809104438650486" ry="5.809104438650486" fill="#ffffff" fill-opacity="1" stroke="#1e1e1e" stroke-width="2" stroke-opacity="1" transform="rotate(269.857017169484 774.9088655089802 -112.93515629153869)"/>
<rect x="734.7428339146072" y="-86.77268207415842" width="17.912322428077687" height="85.5479784216191" rx="4.478080607019422" ry="4.478080607019422" fill="#ffffff" fill-opacity="1" stroke="#1e1e1e" stroke-width="2" stroke-opacity="1" transform="rotate(269.857017169484 743.6989951286461 -43.99869286334887)"/>
<rect x="700.127789745301" y="-140.5423963119219" width="24.221407999641023" height="17.799356883577758" rx="4.4498392208944395" ry="4.4498392208944395" fill="#ffffff" fill-opacity="1" stroke="#1e1e1e" stroke-width="2" stroke-opacity="1" transform="rotate(180.04144495723804 712.2384937451216 -131.64271787013303)"/>
<rect x="700.7264939588225" y="-108.4104624860402" width="23.90239950616301" height="18.2553284996893" rx="4.563832124922325" ry="4.563832124922325" fill="#ffffff" fill-opacity="1" stroke="#1e1e1e" stroke-width="2" stroke-opacity="1" transform="rotate(180.04144495723804 712.677693711904 -99.28279823619556)"/>
<rect x="734.9448845401006" y="-51.874883750793636" width="17.65603906473739" height="83.19123734839792" rx="4.414009766184347" ry="4.414009766184347" fill="#ffffff" fill-opacity="1" stroke="#1e1e1e" stroke-width="2" stroke-opacity="1" transform="rotate(269.857017169484 743.7729040724693 -10.279265076594676)"/>
</g>
</svg>