<svg xmlns="http://www.w3.org/2000/svg" viewBox="0 0 167.50885574059623 237.18407292737794" width="167.50885574059623" height="237.18407292737794">
<rect x="0" y="0" width="167.50885574059623" height="237.18407292737794" fill="#ffffff"/>
<g transform="translate(-829.8981303078335 187.87736081958624)">
<rect x="839.8981303078335" y="-177.87736081958624" width="147.50885574059626" height="213.19293483521372" rx="32" ry="32" fill="#d0bfff" fill-opacity="1" stroke="#6741d9" stroke-width="2" stroke-opacity="1" transform="rotate(0.11830246381020917 913.6525581781317 -71.28089340197938)"/>
<rect x="847.1616400862524" y="-171.1742567196973" width="130.74963911545288" height="203.9072620659946" rx="32" ry="32" fill="#ffec99" fill-opacity="1" stroke="#f08c00" stroke-width="2" stroke-opacity="1" transform="rotate(0.11830246381020917 912.5364596439789 -69.2206256867)"/>
<rect x="904.4593326495346" y="-141.13680381219572" width="81.44089850079041" height="52.509128896855856" rx="13.127282224213964" ry="13.127282224213964" fill="#b2f2bb" fill-opacity="1" stroke="#2f9e44" stroke-width="2" stroke-opacity="1" transform="rotate(90.02896651902498 945.1797818999298 -114.8822393637678)"/>
<rect x="843.8117863366638" y="-144.41340645503467" width="81.44089850079041" height="52.509128896855856" rx="13.127282224213964" ry="13.127282224213964" fill="#b2f2bb" fill-opacity="1" stroke="#2f9e44" stroke-width="2" stroke-opacity="1" transform="rotate(90.02896651902498 884.532235587059 -118.15884200660675)"/>
<rect x="871.750706215857" y="-74.52934396416472" width="81.44089850079052" height="113.8360560719564" rx="20.36022462519763" ry="20.36022462519763" fill="#b2f2bb" fill-opacity="1" stroke="#2f9e44" stroke-width="2" stroke-opacity="1" transform="rotate(90.02896651902498 912.4711554662523 -17.61131592818652)"/>
<rect x="924.1374154065825" y="-120.49306831434284" width="57.98674650138491" height="11.71967563093061" rx="2.9299189077326524" ry="2.9299189077326524" fill="#ffffff" fill-opacity="1" stroke="#1e1e1e" stroke-width="2" stroke-opacity="1" transform="rotate(269.857017169484 953.1307886572749 -114.63323049887754)"/>
<rect x="914.3480439498925" y="-70.32564199649168" width="17.912322428077687" height="71.2646539093511" rx="4.478080607019422" ry="4.478080607019422" fill="#ffffff" fill-opacity="1" stroke="#1e1e1e" stroke-width="2" stroke-opacity="1" transform="rotate(269.857017169484 923.3042051639313 -34.693315041816135)"/>
<rect x="873.1900639757628" y="-110.1229068153321" width="23.90239950616301" height="18.2553284996893" rx="4.563832124922325" ry="4.563832124922325" fill="#ffffff" fill-opacity="1" stroke="#1e1e1e" stroke-width="2" stroke-opacity="1" transform="rotate(180.04144495723804 885.1412637288443 -100.99524256548744)"/>
<rect x="903.2181084268212" y="-37.486924128872545" width="16.733237169559676" height="73.8900170998076" rx="4.183309292389919" ry="4.183309292389919" fill="#ffffff" fill-opacity="1" stroke="#1e1e1e" stroke-width="2" stroke-opacity="1" transform="rotate(269.857017169484 911.5847270116011 -0.541915578968748)"/>
<rect x="872.1342409428978" y="-143.79391439721445" width="10.851900261054114" height="17.799356883577758" rx="2.7129750652635285" ry="2.7129750652635285" fill="#ffffff" fill-opacity="1" stroke="#1e1e1e" stroke-width="2" stroke-opacity="1" transform="rotate(180.04144495723804 877.5601910734249 -134.8942359554256)"/>
<rect x="884.318199265127" y="-143.47565070787948" width="11.027461065041313" height="17.799356883577758" rx="2.7568652662603284" ry="2.7568652662603284" fill="#ffffff" fill-opacity="1" stroke="#1e1e1e" stroke-width="2" stroke-opacity="1" transform="rotate(180.04144495723804 889.8319297976476 -134.57597226609062)"/>
<rect x="911.4042075993867" y="-120.27087848028344" width="57.98674650138491" height="11.220427863396708" rx="2.805106965849177" ry="2.805106965849177" fill="#ffffff" fill-opacity="1" stroke="#1e1e1e" stroke-width="2" stroke-opacity="1" transform="rotate(269.857017169484 940.3975808500792 -114.66066454858509)"/>
<rect x="874.5747917325658" y="-44.10626201568897" width="10.851900261054114" height="17.799356883577758" rx="2.7129750652635285" ry="2.7129750652635285" fill="#ffffff" fill-opacity="1" stroke="#1e1e1e" stroke-width="2" stroke-opacity="1" transform="rotate(180.04144495723804 880.0007418630929 -35.20658357390009)"/>
<rect x="948.9781052923421" y="-9.520042226117205" width="10.851900261054114" height="17.799356883577758" rx="2.7129750652635285" ry="2.7129750652635285" fill="#ffffff" fill-opacity="1" stroke="#1e1e1e" stroke-width="2" stroke-opacity="1" transform="rotate(180.04144495723804 954.4040554228692 -0.6203637843283261)"/>
</g>
</svg>