<svg xmlns="http://www.w3.org/2000/svg" viewBox="0 0 167.50885574059623 234.18407292737794" width="167.50885574059623" height="234.18407292737794">
<rect x="0" y="0" width="167.50885574059623" height="234.18407292737794" fill="#ffffff"/>
<g transform="translate(-993.4438572478645 185.03130256038776)">
<rect x="1003.4438572478645" y="-175.03130256038776" width="147.50885574059626" height="213.19293483521372" rx="32" ry="32" fill="#d0bfff" fill-opacity="1" stroke="#6741d9" stroke-width="2" stroke-opacity="1" transform="rotate(0.11830246381020917 1077.1982851181626 -68.4348351427809)"/>
<rect x="1010.7073670262834" y="-168.3281984604988" width="130.74963911545288" height="203.9072620659946" rx="32" ry="32" fill="#ffec99" fill-opacity="1" stroke="#f08c00" stroke-width="2" stroke-opacity="1" transform="rotate(0.11830246381020917 1076.0821865840098 -66.37456742750152)"/>
<rect x="1066.4773115912408" y="-139.16189796490136" width="81.44089850079041" height="52.509128896855856" rx="13.127282224213964" ry="13.127282224213964" fill="#b2f2bb" fill-opacity="1" stroke="#2f9e44" stroke-width="2" stroke-opacity="1" transform="rotate(90.02896651902498 1107.197760841636 -112.90733351647343)"/>
<rect x="1007.3575132766947" y="-141.5673481958362" width="81.44089850079041" height="52.509128896855856" rx="13.127282224213964" ry="13.127282224213964" fill="#b2f2bb" fill-opacity="1" stroke="#2f9e44" stroke-width="2" stroke-opacity="1" transform="rotate(90.02896651902498 1048.07796252709 -115.31278374740826)"/>
<rect x="1035.2964331558878" y="-74.68328570496624" width="81.44089850079052" height="113.8360560719564" rx="20.36022462519763" ry="20.36022462519763" fill="#b2f2bb" fill-opacity="1" stroke="#2f9e44" stroke-width="2" stroke-opacity="1" transform="rotate(90.02896651902498 1076.016882406283 -17.765257668988035)"/>
<rect x="1088.021609015015" y="-118.14010813519803" width="57.98674650138491" height="12.096747590585519" rx="3.0241868976463797" ry="3.0241868976463797" fill="#ffffff" fill-opacity="1" stroke="#1e1e1e" stroke-width="2" stroke-opacity="1" transform="rotate(269.857017169484 1117.0149822657074 -112.09173433990527)"/>
<rect x="1080.1240484045659" y="-74.1711064530383" width="15.964718539051091" height="71.2646539093511" rx="3.991179634762773" ry="3.991179634762773" fill="#ffffff" fill-opacity="1" stroke="#1e1e1e" stroke-width="2" stroke-opacity="1" transform="rotate(269.857017169484 1088.1064076740913 -38.53877949836276)"/>
<rect x="1029.756233553977" y="-107.2763082623049" width="36.36765091092764" height="18.2553284996893" rx="4.563832124922325" ry="4.563832124922325" fill="#ffffff" fill-opacity="1" stroke="#1e1e1e" stroke-width="2" stroke-opacity="1" transform="rotate(180.04144495723804 1047.9400590094408 -98.14864401246024)"/>
<rect x="1060.5985579116852" y="-39.40643589142637" width="16.733237169559676" height="73.8900170998076" rx="4.183309292389919" ry="4.183309292389919" fill="#ffffff" fill-opacity="1" stroke="#1e1e1e" stroke-width="2" stroke-opacity="1" transform="rotate(269.857017169484 1068.9651764964651 -2.4614273415225725)"/>
<rect x="1030.6799678829288" y="-140.947856138016" width="10.851900261054114" height="17.799356883577758" rx="2.7129750652635285" ry="2.7129750652635285" fill="#ffffff" fill-opacity="1" stroke="#1e1e1e" stroke-width="2" stroke-opacity="1" transform="rotate(180.04144495723804 1036.105918013456 -132.04817769622713)"/>
<rect x="1052.863926205158" y="-140.62959244868102" width="11.027461065041313" height="17.799356883577758" rx="2.7568652662603284" ry="2.7568652662603284" fill="#ffffff" fill-opacity="1" stroke="#1e1e1e" stroke-width="2" stroke-opacity="1" transform="rotate(180.04144495723804 1058.3776567376785 -131.72991400689216)"/>
<rect x="1070.1960790928547" y="-118.55964487635481" width="57.98674650138491" height="11.220427863396708" rx="2.805106965849177" ry="2.805106965849177" fill="#ffffff" fill-opacity="1" stroke="#1e1e1e" stroke-width="2" stroke-opacity="1" transform="rotate(269.857017169484 1099.1894523435471 -112.94943094465646)"/>
<rect x="1030.8204165621596" y="-48.27926988606821" width="10.851900261054114" height="17.799356883577758" rx="2.7129750652635285" ry="2.7129750652635285" fill="#ffffff" fill-opacity="1" stroke="#1e1e1e" stroke-width="2" stroke-opacity="1" transform="rotate(180.04144495723804 1036.2463666926867 -39.37959144427933)"/>
</g>
</svg>