<svg xmlns="http://www.w3.org/2000/svg" viewBox="0 0 174.7357065652759 245.0775517014351" width="174.7357065652759" height="245.0775517014351">
<rect x="0" y="0" width="174.7357065652759" height="245.0775517014351" fill="#ffffff"/>
<g transform="translate(-1168.554784327841 181.17251354268052)">
<rect x="1190.152042705608" y="-158.0796931182772" width="10.851900261054114" height="17.799356883577758" rx="2.7129750652635285" ry="2.7129750652635285" fill="#ffffff" fill-opacity="1" stroke="#1e1e1e" stroke-width="2" stroke-opacity="1" transform="rotate(180.04144495723804 1195.577992836135 -149.18001467648833)"/>
<rect x="1178.554784327841" y="-171.17251354268052" width="154.7357065652759" height="223.6378232400101" rx="32" ry="32" fill="#d0bfff" fill-opacity="1" stroke="#6741d9" stroke-width="2" stroke-opacity="1" transform="rotate(0.11830246381020917 1255.922637610479 -59.353601922675466)"/>
<rect x="1184.5629619096478" y="-164.13934319263652" width="138.76660394218683" height="213.8972206865891" rx="32" ry="32" fill="#ffec99" fill-opacity="1" stroke="#f08c00" stroke-width="2" stroke-opacity="1" transform="rotate(0.11830246381020917 1253.9462638807413 -57.19073284934197)"/>
<rect x="1244.676415101146" y="-133.5457714986716" width="85.43090453492378" height="55.08169065639377" rx="13.770422664098442" ry="13.770422664098442" fill="#b2f2bb" fill-opacity="1" stroke="#2f9e44" stroke-width="2" stroke-opacity="1" transform="rotate(90.02896651902498 1287.3918673686078 -106.00492617047472)"/>
<rect x="1183.4662751574795" y="-134.1442946189053" width="85.43090453492378" height="55.08169065639377" rx="13.770422664098442" ry="13.770422664098442" fill="#b2f2bb" fill-opacity="1" stroke="#2f9e44" stroke-width="2" stroke-opacity="1" transform="rotate(90.02896651902498 1226.1817274249413 -106.60344929070841)"/>
<rect x="1212.1387704614704" y="-65.50814880186266" width="85.4309045349239" height="119.41318696061725" rx="21.357726133730974" ry="21.357726133730974" fill="#b2f2bb" fill-opacity="1" stroke="#2f9e44" stroke-width="2" stroke-opacity="1" transform="rotate(90.02896651902498 1254.8542227289322 -5.801555321554034)"/>
<rect x="1272.6652248220312" y="-116.86963662785378" width="50.076501216584845" height="12.689399400282305" rx="3.1723498500705762" ry="3.1723498500705762" fill="#ffffff" fill-opacity="1" stroke="#1e1e1e" stroke-width="2" stroke-opacity="1" transform="rotate(269.857017169484 1297.7034754303236 -110.52493692771263)"/>
<rect x="1257.4331489250974" y="-64.93339566042394" width="19.87185676015568" height="74.75609867915527" rx="4.96796419003892" ry="4.96796419003892" fill="#ffffff" fill-opacity="1" stroke="#1e1e1e" stroke-width="2" stroke-opacity="1" transform="rotate(269.857017169484 1267.3690773051753 -27.555346320846304)"/>
<rect x="1206.1602063846965" y="-89.22497567636933" width="38.14939877045609" height="8.27665778214702" rx="2.069164445536755" ry="2.069164445536755" fill="#ffffff" fill-opacity="1" stroke="#1e1e1e" stroke-width="2" stroke-opacity="1" transform="rotate(180.04144495723804 1225.2349057699246 -85.08664678529581)"/>
<rect x="1243.17862767988" y="-33.56036924717292" width="8.23832393290038" height="77.51008538880846" rx="2.059580983225095" ry="2.059580983225095" fill="#ffffff" fill-opacity="1" stroke="#1e1e1e" stroke-width="2" stroke-opacity="1" transform="rotate(269.857017169484 1247.2977896463303 5.19467344723131)"/>
<rect x="1206.9702224644084" y="-122.85525150305068" width="12.127376505462772" height="8.262092896930048" rx="2.065523224232512" ry="2.065523224232512" fill="#ffffff" fill-opacity="1" stroke="#1e1e1e" stroke-width="2" stroke-opacity="1" transform="rotate(180.04144495723804 1213.0339107171399 -118.72420505458565)"/>
<rect x="1230.3960737895347" y="-135.0853722353825" width="11.567725686388272" height="18.671394676339578" rx="2.891931421597068" ry="2.891931421597068" fill="#ffffff" fill-opacity="1" stroke="#1e1e1e" stroke-width="2" stroke-opacity="1" transform="rotate(180.04144495723804 1236.1799366327289 -125.7496748972127)"/>
<rect x="1253.4673825250595" y="-107.03193329421148" width="51.02318879436556" height="11.77014644097449" rx="2.9425366102436223" ry="2.9425366102436223" fill="#ffffff" fill-opacity="1" stroke="#1e1e1e" stroke-width="2" stroke-opacity="1" transform="rotate(269.857017169484 1278.9789769222423 -101.14686007372424)"/>
<rect x="1292.9788771499868" y="1.237106842812068" width="11.383563692088082" height="18.671394676339578" rx="2.8458909230220204" ry="2.8458909230220204" fill="#ffffff" fill-opacity="1" stroke="#1e1e1e" stroke-width="2" stroke-opacity="1" transform="rotate(180.04144495723804 1298.6706589960309 10.572804180981857)"/>
<rect x="1272.5287743454228" y="-135.8774566866685" width="12.127376505462772" height="8.262092896930048" rx="2.065523224232512" ry="2.065523224232512" fill="#ffffff" fill-opacity="1" stroke="#1e1e1e" stroke-width="2" stroke-opacity="1" transform="rotate(180.04144495723804 1278.5924625981543 -131.74641023820348)"/>
<rect x="1206.911481351072" y="-99.40242542311465" width="37.7950568473044" height="8.262092896930048" rx="2.065523224232512" ry="2.065523224232512" fill="#ffffff" fill-opacity="1" stroke="#1e1e1e" stroke-width="2" stroke-opacity="1" transform="rotate(180.04144495723804 1225.8090097747242 -95.27137897464962)"/>
<rect x="1291.745381179649" y="-84.37988527820383" width="12.127376505462772" height="8.262092896930048" rx="2.065523224232512" ry="2.065523224232512" fill="#ffffff" fill-opacity="1" stroke="#1e1e1e" stroke-width="2" stroke-opacity="1" transform="rotate(180.04144495723804 1297.8090694323805 -80.2488388297388)"/>
<rect x="1207.3477003771397" y="-132.10931719079974" width="12.127376505462772" height="8.262092896930048" rx="2.065523224232512" ry="2.065523224232512" fill="#ffffff" fill-opacity="1" stroke="#1e1e1e" stroke-width="2" stroke-opacity="1" transform="rotate(180.04144495723804 1213.4113886298712 -127.97827074233471)"/>
<rect x="1210.428458017761" y="-26.914948858045875" width="12.127376505462772" height="8.262092896930048" rx="2.065523224232512" ry="2.065523224232512" fill="#ffffff" fill-opacity="1" stroke="#1e1e1e" stroke-width="2" stroke-opacity="1" transform="rotate(180.04144495723804 1216.4921462704924 -22.78390240958085)"/>
<rect x="1210.8059359304925" y="-36.16901454579494" width="12.127376505462772" height="8.262092896930048" rx="2.065523224232512" ry="2.065523224232512" fill="#ffffff" fill-opacity="1" stroke="#1e1e1e" stroke-width="2" stroke-opacity="1" transform="rotate(180.04144495723804 1216.869624183224 -32.037968097329916)"/>
<rect x="1242.6942604801782" y="-24.906935281480308" width="8.23832393290038" height="77.51008538880846" rx="2.059580983225095" ry="2.059580983225095" fill="#ffffff" fill-opacity="1" stroke="#1e1e1e" stroke-width="2" stroke-opacity="1" transform="rotate(269.857017169484 1246.8134224466285 13.848107412923923)"/>
</g>
</svg>