<svg xmlns="http://www.w3.org/2000/svg" viewBox="0 0 174.7357065652759 267.0592608455847" width="174.7357065652759" height="267.0592608455847">
<rect x="0" y="0" width="174.7357065652759" height="267.0592608455847" fill="#ffffff"/>
<g transform="translate(-1363.6024800448001 195.80393467533617)">
<rect x="1373.6024800448001" y="-185.80393467533617" width="154.7357065652759" height="223.6378232400101" rx="32" ry="32" fill="#d0bfff" fill-opacity="1" stroke="#6741d9" stroke-width="2" stroke-opacity="1" transform="rotate(0.11830246381020917 1450.970333327438 -73.98502305533111)"/>
<rect x="1381.2871731451746" y="-180.5970405226764" width="138.76660394218683" height="213.8972206865891" rx="32" ry="32" fill="#ffec99" fill-opacity="1" stroke="#f08c00" stroke-width="2" stroke-opacity="1" transform="rotate(0.11830246381020917 1450.670475116268 -73.64843017938185)"/>
<rect x="1428.8639546783522" y="-110.2727444483221" width="45.84894296950732" height="119.41318696061725" rx="11.46223574237683" ry="11.46223574237683" fill="#b2f2bb" fill-opacity="1" stroke="#2f9e44" stroke-width="2" stroke-opacity="1" transform="rotate(90.02896651902498 1451.788426163106 -50.566150968013474)"/>
<rect x="1439.2045425038832" y="-152.34540852852723" width="88.94886232086407" height="55.08169065639377" rx="13.770422664098442" ry="13.770422664098442" fill="#b2f2bb" fill-opacity="1" stroke="#2f9e44" stroke-width="2" stroke-opacity="1" transform="rotate(90.02896651902498 1483.6789736643152 -124.80456320033035)"/>
<rect x="1402.0541155666972" y="-177.67406819739105" width="40.45266835326454" height="55.08169065639377" rx="10.113167088316136" ry="10.113167088316136" fill="#b2f2bb" fill-opacity="1" stroke="#2f9e44" stroke-width="2" stroke-opacity="1" transform="rotate(90.02896651902498 1422.2804497433294 -150.13322286919416)"/>
<rect x="1428.0568844728007" y="-58.15786079036873" width="45.84894296950732" height="119.41318696061725" rx="11.46223574237683" ry="11.46223574237683" fill="#b2f2bb" fill-opacity="1" stroke="#2f9e44" stroke-width="2" stroke-opacity="1" transform="rotate(90.02896651902498 1450.9813559575543 1.5487326899398965)"/>
<rect x="1467.6647055167834" y="-139.6249916278631" width="52.64711594432751" height="12.689399400282305" rx="3.1723498500705762" ry="3.1723498500705762" fill="#ffffff" fill-opacity="1" stroke="#1e1e1e" stroke-width="2" stroke-opacity="1" transform="rotate(269.857017169484 1493.9882634889473 -133.28029192772195)"/>
<rect x="1452.166384314187" y="-87.98062659661393" width="24.49406660078743" height="74.75609867915527" rx="6.123516650196858" ry="6.123516650196858" fill="#ffffff" fill-opacity="1" stroke="#1e1e1e" stroke-width="2" stroke-opacity="1" transform="rotate(269.857017169484 1464.4134176145808 -50.602577257036295)"/>
<rect x="1436.8058685252774" y="-27.461097921123617" width="8.013147843775434" height="72.7542149551555" rx="2.0032869609438584" ry="2.0032869609438584" fill="#ffffff" fill-opacity="1" stroke="#1e1e1e" stroke-width="2" stroke-opacity="1" transform="rotate(269.857017169484 1440.8124424471653 8.916009556454135)"/>
<rect x="1403.198916823044" y="-145.89590986472672" width="12.127376505462772" height="8.262092896930048" rx="2.065523224232512" ry="2.065523224232512" fill="#ffffff" fill-opacity="1" stroke="#1e1e1e" stroke-width="2" stroke-opacity="1" transform="rotate(180.04144495723804 1409.2626050757756 -141.7648634162617)"/>
<rect x="1426.6840693565612" y="-158.1260305970585" width="11.567725686388272" height="18.671394676339578" rx="2.891931421597068" ry="2.891931421597068" fill="#ffffff" fill-opacity="1" stroke="#1e1e1e" stroke-width="2" stroke-opacity="1" transform="rotate(180.04144495723804 1432.4679321997553 -148.79033325888872)"/>
<rect x="1448.147252605234" y="-122.52762768645844" width="54.11312635470635" height="11.77014644097449" rx="2.9425366102436223" ry="2.9425366102436223" fill="#ffffff" fill-opacity="1" stroke="#1e1e1e" stroke-width="2" stroke-opacity="1" transform="rotate(269.857017169484 1475.203815782587 -116.6425544659712)"/>
<rect x="1484.0738679471704" y="-11.907930957229103" width="14.677683081636642" height="25.147112195962578" rx="3.6694207704091606" ry="3.6694207704091606" fill="#ffffff" fill-opacity="1" stroke="#1e1e1e" stroke-width="2" stroke-opacity="1" transform="rotate(180.04144495723804 1491.4127094879886 0.6656251407521854)"/>
<rect x="1468.816769912449" y="-158.91811504834453" width="12.127376505462772" height="8.262092896930048" rx="2.065523224232512" ry="2.065523224232512" fill="#ffffff" fill-opacity="1" stroke="#1e1e1e" stroke-width="2" stroke-opacity="1" transform="rotate(180.04144495723804 1474.8804581651805 -154.78706859987952)"/>
<rect x="1488.0333767466752" y="-97.42054363987984" width="12.127376505462772" height="8.262092896930048" rx="2.065523224232512" ry="2.065523224232512" fill="#ffffff" fill-opacity="1" stroke="#1e1e1e" stroke-width="2" stroke-opacity="1" transform="rotate(180.04144495723804 1494.0970649994067 -93.28949719141481)"/>
<rect x="1403.6356959441657" y="-159.14997555247578" width="12.127376505462772" height="8.262092896930048" rx="2.065523224232512" ry="2.065523224232512" fill="#ffffff" fill-opacity="1" stroke="#1e1e1e" stroke-width="2" stroke-opacity="1" transform="rotate(180.04144495723804 1409.6993841968972 -155.01892910401077)"/>
<rect x="1405.6962717794238" y="-47.47255010967507" width="12.127376505462772" height="8.262092896930048" rx="2.065523224232512" ry="2.065523224232512" fill="#ffffff" fill-opacity="1" stroke="#1e1e1e" stroke-width="2" stroke-opacity="1" transform="rotate(180.04144495723804 1411.7599600321553 -43.34150366121005)"/>
<rect x="1400.7959699164624" y="-128.78717805268542" width="44.0849464272472" height="55.08169065639377" rx="11.0212366068118" ry="11.0212366068118" fill="#b2f2bb" fill-opacity="1" stroke="#2f9e44" stroke-width="2" stroke-opacity="1" transform="rotate(90.02896651902498 1422.838443130086 -101.24633272448854)"/>
<rect x="1405.8516214369974" y="-63.61862233868112" width="12.127376505462772" height="8.262092896930048" rx="2.065523224232512" ry="2.065523224232512" fill="#ffffff" fill-opacity="1" stroke="#1e1e1e" stroke-width="2" stroke-opacity="1" transform="rotate(180.04144495723804 1411.915309689729 -59.4875758902161)"/>
<rect x="1404.3719733561222" y="-97.36442214809762" width="38.14939877045609" height="8.27665778214702" rx="2.069164445536755" ry="2.069164445536755" fill="#ffffff" fill-opacity="1" stroke="#1e1e1e" stroke-width="2" stroke-opacity="1" transform="rotate(180.04144495723804 1423.4466727413503 -93.2260932570241)"/>
<rect x="1403.2889312832979" y="-113.51613766306241" width="37.7950568473044" height="8.262092896930048" rx="2.065523224232512" ry="2.065523224232512" fill="#ffffff" fill-opacity="1" stroke="#1e1e1e" stroke-width="2" stroke-opacity="1" transform="rotate(180.04144495723804 1422.18645970695 -109.38509121459738)"/>
<rect x="1436.580234329879" y="-42.657837456669206" width="8.23832393290038" height="70.26026564501413" rx="2.059580983225095" ry="2.059580983225095" fill="#ffffff" fill-opacity="1" stroke="#1e1e1e" stroke-width="2" stroke-opacity="1" transform="rotate(269.857017169484 1440.6993962963293 -7.527704634162141)"/>
</g>
</svg>