<svg xmlns="http://www.w3.org/2000/svg" viewBox="0 0 174.7357065652759 271.05926084558473" width="174.7357065652759" height="271.05926084558473">
<rect x="0" y="0" width="174.7357065652759" height="271.05926084558473" fill="#ffffff"/>
<g transform="translate(-1528.7129688400967 186.96101888855236)">
<rect x="1538.7129688400967" y="-176.96101888855236" width="154.7357065652759" height="223.6378232400101" rx="32" ry="32" fill="#d0bfff" fill-opacity="1" stroke="#6741d9" stroke-width="2" stroke-opacity="1" transform="rotate(0.11830246381020917 1616.0808221227346 -65.1421072685473)"/>
<rect x="1549.2974458903514" y="-169.7357061056119" width="138.76660394218683" height="102.82315095889834" rx="25.705787739724585" ry="25.705787739724585" fill="#ffec99" fill-opacity="1" stroke="#f08c00" stroke-width="2" stroke-opacity="1" transform="rotate(0.11830246381020917 1618.6807478614448 -118.32413062616274)"/>
<rect x="1546.510982013889" y="-61.988707767283444" width="138.76660394218683" height="104.13168672813568" rx="26.03292168203392" ry="26.03292168203392" fill="#ffec99" fill-opacity="1" stroke="#f08c00" stroke-width="2" stroke-opacity="1" transform="rotate(0.11830246381020917 1615.8942839849824 -9.922864403215605)"/>
<rect x="1593.9744434736488" y="-94.42982866153828" width="45.84894296950732" height="119.41318696061725" rx="11.46223574237683" ry="11.46223574237683" fill="#b2f2bb" fill-opacity="1" stroke="#2f9e44" stroke-width="2" stroke-opacity="1" transform="rotate(90.02896651902498 1616.8989149584024 -34.723235181229654)"/>
<rect x="1604.31503129918" y="-143.50249274174342" width="88.94886232086407" height="55.08169065639377" rx="13.770422664098442" ry="13.770422664098442" fill="#b2f2bb" fill-opacity="1" stroke="#2f9e44" stroke-width="2" stroke-opacity="1" transform="rotate(90.02896651902498 1648.789462459612 -115.96164741354654)"/>
<rect x="1567.1646043619937" y="-168.83115241060722" width="40.45266835326454" height="55.08169065639377" rx="10.113167088316136" ry="10.113167088316136" fill="#b2f2bb" fill-opacity="1" stroke="#2f9e44" stroke-width="2" stroke-opacity="1" transform="rotate(90.02896651902498 1587.390938538626 -141.29030708241032)"/>
<rect x="1593.1673732680972" y="-45.31494500358491" width="45.84894296950732" height="119.41318696061725" rx="11.46223574237683" ry="11.46223574237683" fill="#b2f2bb" fill-opacity="1" stroke="#2f9e44" stroke-width="2" stroke-opacity="1" transform="rotate(90.02896651902498 1616.0918447528509 14.391648476723716)"/>
<rect x="1636.1058576476212" y="-127.51454773380593" width="52.64711594432751" height="6.908526907469343" rx="1.7271317268673358" ry="1.7271317268673358" fill="#ffffff" fill-opacity="1" stroke="#1e1e1e" stroke-width="2" stroke-opacity="1" transform="rotate(269.857017169484 1662.429415619785 -124.06028428007126)"/>
<rect x="1599.594502232" y="-57.85698048551521" width="24.49406660078743" height="43.41771296206747" rx="6.123516650196858" ry="6.123516650196858" fill="#ffffff" fill-opacity="1" stroke="#1e1e1e" stroke-width="2" stroke-opacity="1" transform="rotate(269.857017169484 1611.8415355323937 -36.148124004481474)"/>
<rect x="1596.0034077766422" y="-15.719360809081365" width="7.905867648262548" height="77.51008538880846" rx="1.976466912065637" ry="1.976466912065637" fill="#ffffff" fill-opacity="1" stroke="#1e1e1e" stroke-width="2" stroke-opacity="1" transform="rotate(269.857017169484 1599.9563416007736 23.035681885322866)"/>
<rect x="1568.3094056183406" y="-137.0529940779429" width="12.127376505462772" height="8.262092896930048" rx="2.065523224232512" ry="2.065523224232512" fill="#ffffff" fill-opacity="1" stroke="#1e1e1e" stroke-width="2" stroke-opacity="1" transform="rotate(180.04144495723804 1574.3730938710721 -132.9219476294779)"/>
<rect x="1609.8534499968212" y="-116.00650497394962" width="54.11312635470635" height="11.77014644097449" rx="2.9425366102436223" ry="2.9425366102436223" fill="#ffffff" fill-opacity="1" stroke="#1e1e1e" stroke-width="2" stroke-opacity="1" transform="rotate(269.857017169484 1636.9100131741743 -110.12143175346237)"/>
<rect x="1654.320402052485" y="2.096665596262735" width="14.131684248525787" height="25.147112195962578" rx="3.5329210621314466" ry="3.5329210621314466" fill="#ffffff" fill-opacity="1" stroke="#1e1e1e" stroke-width="2" stroke-opacity="1" transform="rotate(180.04144495723804 1661.3862441767478 14.670221694244024)"/>
<rect x="1653.1438655419718" y="-88.57762785309602" width="12.127376505462772" height="8.262092896930048" rx="2.065523224232512" ry="2.065523224232512" fill="#ffffff" fill-opacity="1" stroke="#1e1e1e" stroke-width="2" stroke-opacity="1" transform="rotate(180.04144495723804 1659.2075537947032 -84.44658140463099)"/>
<rect x="1568.7461854305213" y="-150.30514905005683" width="6.844420093598759" height="8.262092896930048" rx="1.7111050233996898" ry="1.7111050233996898" fill="#ffffff" fill-opacity="1" stroke="#1e1e1e" stroke-width="2" stroke-opacity="1" transform="rotate(180.04144495723804 1572.1683954773207 -146.1741026015918)"/>
<rect x="1570.6645034661472" y="-31.419865366181526" width="12.127376505462772" height="8.262092896930048" rx="2.065523224232512" ry="2.065523224232512" fill="#ffffff" fill-opacity="1" stroke="#1e1e1e" stroke-width="2" stroke-opacity="1" transform="rotate(180.04144495723804 1576.7281917188786 -27.2888189177165)"/>
<rect x="1565.906458711759" y="-119.9442622659016" width="44.0849464272472" height="55.08169065639377" rx="11.0212366068118" ry="11.0212366068118" fill="#b2f2bb" fill-opacity="1" stroke="#2f9e44" stroke-width="2" stroke-opacity="1" transform="rotate(90.02896651902498 1587.9489319253826 -92.40341693770472)"/>
<rect x="1569.4824621514188" y="-88.5215063613138" width="38.14939877045609" height="8.27665778214702" rx="2.069164445536755" ry="2.069164445536755" fill="#ffffff" fill-opacity="1" stroke="#1e1e1e" stroke-width="2" stroke-opacity="1" transform="rotate(180.04144495723804 1588.5571615366468 -84.38317747024028)"/>
<rect x="1574.4525830654093" y="-104.67541115700934" width="31.741893068680263" height="8.262092896930048" rx="2.065523224232512" ry="2.065523224232512" fill="#ffffff" fill-opacity="1" stroke="#1e1e1e" stroke-width="2" stroke-opacity="1" transform="rotate(180.04144495723804 1590.3235295997495 -100.54436470854431)"/>
<rect x="1630.5989069281502" y="-5.2378550403340896" width="8.119938058512165" height="23.141092565349716" rx="2.0299845146280413" ry="2.0299845146280413" fill="#ffffff" fill-opacity="1" stroke="#1e1e1e" stroke-width="2" stroke-opacity="1" transform="rotate(269.857017169484 1634.6588759574063 6.332691242340768)"/>
<rect x="1576.233724289099" y="-150.71783536271656" width="6.844420093598759" height="8.262092896930048" rx="1.7111050233996898" ry="1.7111050233996898" fill="#ffffff" fill-opacity="1" stroke="#1e1e1e" stroke-width="2" stroke-opacity="1" transform="rotate(180.04144495723804 1579.6559343358983 -146.58678891425154)"/>
<rect x="1566.3857032753563" y="-105.3302986289348" width="6.844420093598759" height="8.262092896930048" rx="1.7111050233996898" ry="1.7111050233996898" fill="#ffffff" fill-opacity="1" stroke="#1e1e1e" stroke-width="2" stroke-opacity="1" transform="rotate(180.04144495723804 1569.8079133221556 -101.19925218046977)"/>
<rect x="1575.2346496935022" y="-47.284944871777554" width="6.844420093598759" height="8.262092896930048" rx="1.7111050233996898" ry="1.7111050233996898" fill="#ffffff" fill-opacity="1" stroke="#1e1e1e" stroke-width="2" stroke-opacity="1" transform="rotate(180.04144495723804 1578.6568597403016 -43.15389842331253)"/>
<rect x="1567.3932969177133" y="-47.35337172803483" width="6.844420093598759" height="8.262092896930048" rx="1.7111050233996898" ry="1.7111050233996898" fill="#ffffff" fill-opacity="1" stroke="#1e1e1e" stroke-width="2" stroke-opacity="1" transform="rotate(180.04144495723804 1570.8155069645127 -43.22232527956981)"/>
<rect x="1601.1176973838285" y="-150.35214303141555" width="5.989226643137509" height="18.671394676339578" rx="1.4973066607843772" ry="1.4973066607843772" fill="#ffffff" fill-opacity="1" stroke="#1e1e1e" stroke-width="2" stroke-opacity="1" transform="rotate(180.04144495723804 1604.1123107053972 -141.01644569324577)"/>
<rect x="1591.686639052138" y="-150.68789823041956" width="5.989226643137509" height="18.671394676339578" rx="1.4973066607843772" ry="1.4973066607843772" fill="#ffffff" fill-opacity="1" stroke="#1e1e1e" stroke-width="2" stroke-opacity="1" transform="rotate(180.04144495723804 1594.6812523737067 -141.35220089224978)"/>
<rect x="1600.6718527773774" y="-89.15514021148579" width="6.844420093598759" height="8.262092896930048" rx="1.7111050233996898" ry="1.7111050233996898" fill="#ffffff" fill-opacity="1" stroke="#1e1e1e" stroke-width="2" stroke-opacity="1" transform="rotate(180.04144495723804 1604.0940628241767 -85.02409376302076)"/>
<rect x="1634.7687994361256" y="-44.57579954068806" width="24.703306546871108" height="16.477710574731823" rx="4.119427643682956" ry="4.119427643682956" fill="#ffffff" fill-opacity="1" stroke="#1e1e1e" stroke-width="2" stroke-opacity="1" transform="rotate(269.857017169484 1647.1204527095613 -36.336944253322145)"/>
<rect x="1651.0962739858635" y="-38.80305675028021" width="24.49406660078743" height="7.018266253357211" rx="1.7545665633393028" ry="1.7545665633393028" fill="#ffffff" fill-opacity="1" stroke="#1e1e1e" stroke-width="2" stroke-opacity="1" transform="rotate(269.857017169484 1663.3433072862572 -35.29392362360161)"/>
<rect x="1640.8686268842869" y="-150.1953236343212" width="6.173808271702476" height="7.808071313591046" rx="1.543452067925619" ry="1.543452067925619" fill="#ffffff" fill-opacity="1" stroke="#1e1e1e" stroke-width="2" stroke-opacity="1" transform="rotate(180.04144495723804 1643.955531020138 -146.29128797752568)"/>
<rect x="1627.8096685761602" y="-127.5729301245475" width="52.64711594432751" height="6.908526907469343" rx="1.7271317268673358" ry="1.7271317268673358" fill="#ffffff" fill-opacity="1" stroke="#1e1e1e" stroke-width="2" stroke-opacity="1" transform="rotate(269.857017169484 1654.133226548324 -124.11866667081283)"/>
<rect x="1561.8325765972327" y="3.4840846487901347" width="6.844420093598759" height="8.262092896930048" rx="1.7111050233996898" ry="1.7111050233996898" fill="#ffffff" fill-opacity="1" stroke="#1e1e1e" stroke-width="2" stroke-opacity="1" transform="rotate(180.04144495723804 1565.254786644032 7.6151310972551585)"/>
<rect x="1590.4899273057401" y="-16.660660956100127" width="8.185131131231651" height="45.04145067251836" rx="2.046282782807913" ry="2.046282782807913" fill="#ffffff" fill-opacity="1" stroke="#1e1e1e" stroke-width="2" stroke-opacity="1" transform="rotate(269.857017169484 1594.582492871356 5.860064380159052)"/>
<rect x="1639.6249450840157" y="19.07025140324136" width="6.844420093598759" height="8.262092896930048" rx="1.7111050233996898" ry="1.7111050233996898" fill="#ffffff" fill-opacity="1" stroke="#1e1e1e" stroke-width="2" stroke-opacity="1" transform="rotate(180.04144495723804 1643.047155130815 23.201297851706386)"/>
<rect x="1629.8819696069486" y="-149.19108052296608" width="6.844420093598759" height="8.262092896930048" rx="1.7111050233996898" ry="1.7111050233996898" fill="#ffffff" fill-opacity="1" stroke="#1e1e1e" stroke-width="2" stroke-opacity="1" transform="rotate(180.04144495723804 1633.304179653748 -145.06003407450106)"/>
</g>
</svg>