<svg xmlns="http://www.w3.org/2000/svg" viewBox="0 0 192.04937573303005 254.60538963229902" width="192.04937573303005" height="254.60538963229902">
<rect x="0" y="0" width="192.04937573303005" height="254.60538963229902" fill="#ffffff"/>
<g transform="translate(-1690.9392453675573 179.6046537324404)">
<rect x="1700.9392453675573" y="-169.6046537324404" width="154.7357065652759" height="223.6378232400101" rx="32" ry="32" fill="#d0bfff" fill-opacity="1" stroke="#6741d9" stroke-width="2" stroke-opacity="1" transform="rotate(0.11830246381020917 1778.3070986501953 -57.785742112435344)"/>
<rect x="1709.2747841572575" y="-56.66903620445537" width="138.76660394218683" height="105.95135693017522" rx="26.487839232543806" ry="26.487839232543806" fill="#ffec99" fill-opacity="1" stroke="#f08c00" stroke-width="2" stroke-opacity="1" transform="rotate(0.11830246381020917 1778.658086128351 -3.6933577393677552)"/>
<rect x="1708.4531957827412" y="-164.45694573776018" width="138.76660394218683" height="105.95135693017522" rx="26.487839232543806" ry="26.487839232543806" fill="#ffec99" fill-opacity="1" stroke="#f08c00" stroke-width="2" stroke-opacity="1" transform="rotate(0.11830246381020917 1777.8364977538347 -111.48126727267257)"/>
<rect x="1805.0206950795034" y="4.341353293626164" width="43.918954184069634" height="29.51745841356851" rx="7.379364603392127" ry="7.379364603392127" fill="#b2f2bb" fill-opacity="1" stroke="#2f9e44" stroke-width="2" stroke-opacity="1" transform="rotate(90.02896651902498 1826.9801721715382 19.10008250041042)"/>
<rect x="1711.7808373176085" y="-49.03680162975489" width="40.590756988618516" height="30.897935712708858" rx="7.724483928177214" ry="7.724483928177214" fill="#b2f2bb" fill-opacity="1" stroke="#2f9e44" stroke-width="2" stroke-opacity="1" transform="rotate(90.02896651902498 1732.0762158119178 -33.58783377340046)"/>
<rect x="1774.1209695833322" y="-77.28035732169124" width="45.84894296950732" height="90.22447045798378" rx="11.46223574237683" ry="11.46223574237683" fill="#b2f2bb" fill-opacity="1" stroke="#2f9e44" stroke-width="2" stroke-opacity="1" transform="rotate(90.02896651902498 1797.045441068086 -32.16812209269935)"/>
<rect x="1751.041573642979" y="-121.6216312321704" width="88.94886232086407" height="25.04077003318316" rx="6.26019250829579" ry="6.26019250829579" fill="#b2f2bb" fill-opacity="1" stroke="#2f9e44" stroke-width="2" stroke-opacity="1" transform="rotate(90.02896651902498 1795.516004803411 -109.10124621557883)"/>
<rect x="1709.2976233689103" y="-149.58722534021317" width="40.45266835326454" height="27.951170243032188" rx="6.987792560758047" ry="6.987792560758047" fill="#b2f2bb" fill-opacity="1" stroke="#2f9e44" stroke-width="2" stroke-opacity="1" transform="rotate(90.02896651902498 1729.5239575455425 -135.61164021869706)"/>
<rect x="1740.42238468924" y="-24.98024962650855" width="44.35852201033958" height="89.98098552636716" rx="11.089630502584894" ry="11.089630502584894" fill="#b2f2bb" fill-opacity="1" stroke="#2f9e44" stroke-width="2" stroke-opacity="1" transform="rotate(90.02896651902498 1762.6016456944099 20.010243136675033)"/>
<rect x="1760.3995090484248" y="-52.04944857275245" width="31.315972241884133" height="40.636970278454164" rx="7.828993060471033" ry="7.828993060471033" fill="#ffffff" fill-opacity="1" stroke="#1e1e1e" stroke-width="2" stroke-opacity="1" transform="rotate(269.857017169484 1776.0574951693668 -31.73096343352537)"/>
<rect x="1753.4088326092353" y="-2.6439203443006978" width="8.29862542147409" height="65.66108584051008" rx="2.0746563553685227" ry="2.0746563553685227" fill="#ffffff" fill-opacity="1" stroke="#1e1e1e" stroke-width="2" stroke-opacity="1" transform="rotate(269.857017169484 1757.5581453199725 30.186622575954345)"/>
<rect x="1721.4625004367333" y="-130.48994033450577" width="16.901883185024694" height="8.262092896930048" rx="2.065523224232512" ry="2.065523224232512" fill="#ffffff" fill-opacity="1" stroke="#1e1e1e" stroke-width="2" stroke-opacity="1" transform="rotate(180.04144495723804 1729.9134420292457 -126.35889388604075)"/>
<rect x="1767.4822763416405" y="-108.29651449544521" width="55.677552481050974" height="15.083065792122667" rx="3.770766448030667" ry="3.770766448030667" fill="#ffffff" fill-opacity="1" stroke="#1e1e1e" stroke-width="2" stroke-opacity="1" transform="rotate(269.857017169484 1795.321052582166 -100.75498159938388)"/>
<rect x="1816.5834650308843" y="4.025111476691698" width="20.239986497875684" height="28.273013023031762" rx="5.059996624468921" ry="5.059996624468921" fill="#ffffff" fill-opacity="1" stroke="#1e1e1e" stroke-width="2" stroke-opacity="1" transform="rotate(180.04144495723804 1826.7034582798221 18.16161798820758)"/>
<rect x="1721.5357680845375" y="-149.15028314428108" width="6.844420093598759" height="8.262092896930048" rx="1.7111050233996898" ry="1.7111050233996898" fill="#ffffff" fill-opacity="1" stroke="#1e1e1e" stroke-width="2" stroke-opacity="1" transform="rotate(180.04144495723804 1724.9579781313369 -145.01923669581606)"/>
<rect x="1724.8173064888451" y="-29.136760105442864" width="15.85933123681303" height="8.262092896930051" rx="2.0655232242325128" ry="2.0655232242325128" fill="#ffffff" fill-opacity="1" stroke="#1e1e1e" stroke-width="2" stroke-opacity="1" transform="rotate(180.04144495723804 1732.7469721072516 -25.00571365697784)"/>
<rect x="1723.943456653255" y="-114.36391804582595" width="44.0849464272472" height="55.08169065639377" rx="11.0212366068118" ry="11.0212366068118" fill="#b2f2bb" fill-opacity="1" stroke="#2f9e44" stroke-width="2" stroke-opacity="1" transform="rotate(90.02896651902498 1745.9859298668787 -86.82307271762907)"/>
<rect x="1722.471822384227" y="-84.52918953800058" width="32.48389869546705" height="8.276657782147005" rx="2.0691644455367513" ry="2.0691644455367513" fill="#ffffff" fill-opacity="1" stroke="#1e1e1e" stroke-width="2" stroke-opacity="1" transform="rotate(180.04144495723804 1738.7137717319604 -80.39086064692708)"/>
<rect x="1737.580438981452" y="-100.87410318865089" width="31.741893068680263" height="8.262092896930048" rx="2.065523224232512" ry="2.065523224232512" fill="#ffffff" fill-opacity="1" stroke="#1e1e1e" stroke-width="2" stroke-opacity="1" transform="rotate(180.04144495723804 1753.4513855157923 -96.74305674018586)"/>
<rect x="1787.7658822472204" y="1.1185101157778803" width="8.119938058512165" height="23.141092565349716" rx="2.0299845146280413" ry="2.0299845146280413" fill="#ffffff" fill-opacity="1" stroke="#1e1e1e" stroke-width="2" stroke-opacity="1" transform="rotate(269.857017169484 1791.8258512764764 12.689056398452738)"/>
<rect x="1732.392419663881" y="-148.65234412131608" width="6.844420093598759" height="8.262092896930048" rx="1.7111050233996898" ry="1.7111050233996898" fill="#ffffff" fill-opacity="1" stroke="#1e1e1e" stroke-width="2" stroke-opacity="1" transform="rotate(180.04144495723804 1735.8146297106803 -144.52129767285106)"/>
<rect x="1725.8419097973185" y="-100.25351212756554" width="6.844420093598759" height="8.262092896930048" rx="1.7111050233996898" ry="1.7111050233996898" fill="#ffffff" fill-opacity="1" stroke="#1e1e1e" stroke-width="2" stroke-opacity="1" transform="rotate(180.04144495723804 1729.2641198441179 -96.12246567910051)"/>
<rect x="1734.7772952649825" y="-46.49445395844343" width="6.844420093598759" height="8.262092896930048" rx="1.7111050233996898" ry="1.7111050233996898" fill="#ffffff" fill-opacity="1" stroke="#1e1e1e" stroke-width="2" stroke-opacity="1" transform="rotate(180.04144495723804 1738.1995053117819 -42.36340750997841)"/>
<rect x="1723.8804225992385" y="-46.00814243024347" width="6.844420093598759" height="8.262092896930048" rx="1.7111050233996898" ry="1.7111050233996898" fill="#ffffff" fill-opacity="1" stroke="#1e1e1e" stroke-width="2" stroke-opacity="1" transform="rotate(180.04144495723804 1727.3026326460379 -41.877095981778446)"/>
<rect x="1761.2758894685262" y="-84.04619034285385" width="6.844420093598759" height="8.262092896930048" rx="1.7111050233996898" ry="1.7111050233996898" fill="#ffffff" fill-opacity="1" stroke="#1e1e1e" stroke-width="2" stroke-opacity="1" transform="rotate(180.04144495723804 1764.6980995153256 -79.91514389438882)"/>
<rect x="1796.7791103263942" y="-42.915079664368506" width="31.629028662001765" height="21.798273897850272" rx="5.449568474462568" ry="5.449568474462568" fill="#ffffff" fill-opacity="1" stroke="#1e1e1e" stroke-width="2" stroke-opacity="1" transform="rotate(269.857017169484 1812.5936246573951 -32.01594271544337)"/>
<rect x="1797.0393835217924" y="-146.14675978013088" width="6.173808271702476" height="7.808071313591046" rx="1.543452067925619" ry="1.543452067925619" fill="#ffffff" fill-opacity="1" stroke="#1e1e1e" stroke-width="2" stroke-opacity="1" transform="rotate(180.04144495723804 1800.1262876576436 -142.24272412333536)"/>
<rect x="1724.0588531246935" y="7.840449804902121" width="6.844420093598759" height="8.262092896930048" rx="1.7111050233996898" ry="1.7111050233996898" fill="#ffffff" fill-opacity="1" stroke="#1e1e1e" stroke-width="2" stroke-opacity="1" transform="rotate(180.04144495723804 1727.481063171493 11.971496253367146)"/>
<rect x="1751.5603951810958" y="-9.39888571515262" width="8.433267404494723" height="42.97734398565357" rx="2.1083168511236807" ry="2.1083168511236807" fill="#ffffff" fill-opacity="1" stroke="#1e1e1e" stroke-width="2" stroke-opacity="1" transform="rotate(269.857017169484 1755.7770288833433 12.089786277674165)"/>
<rect x="1795.4991955461933" y="26.42661655935335" width="6.844420093598759" height="8.262092896930048" rx="1.7111050233996898" ry="1.7111050233996898" fill="#ffffff" fill-opacity="1" stroke="#1e1e1e" stroke-width="2" stroke-opacity="1" transform="rotate(180.04144495723804 1798.9214055929926 30.557663007818373)"/>
<rect x="1742.649855067138" y="-147.69200160455938" width="40.45266835326454" height="27.951170243032188" rx="6.987792560758047" ry="6.987792560758047" fill="#b2f2bb" fill-opacity="1" stroke="#2f9e44" stroke-width="2" stroke-opacity="1" transform="rotate(90.02896651902498 1762.8761892437703 -133.71641648304328)"/>
<rect x="1753.6148324712317" y="-148.46356886647203" width="7.0764395409139444" height="26.197548052443608" rx="1.7691098852284861" ry="1.7691098852284861" fill="#ffffff" fill-opacity="1" stroke="#1e1e1e" stroke-width="2" stroke-opacity="1" transform="rotate(180.59936711449706 1757.1530522416886 -135.36479484025023)"/>
<rect x="1764.8240952081858" y="-148.21738031991455" width="6.570177312332601" height="26.904387562227722" rx="1.6425443280831502" ry="1.6425443280831502" fill="#ffffff" fill-opacity="1" stroke="#1e1e1e" stroke-width="2" stroke-opacity="1" transform="rotate(180.04144495723804 1768.1091838643522 -134.7651865388007)"/>
<rect x="1784.0397587797233" y="-120.03169802236312" width="88.94886232086407" height="25.04077003318316" rx="6.26019250829579" ry="6.26019250829579" fill="#b2f2bb" fill-opacity="1" stroke="#2f9e44" stroke-width="2" stroke-opacity="1" transform="rotate(90.02896651902498 1828.5141899401553 -107.51131300577154)"/>
<rect x="1805.7180564977104" y="-119.78695493786718" width="55.81188467544468" height="6.908526907469343" rx="1.7271317268673358" ry="1.7271317268673358" fill="#ffffff" fill-opacity="1" stroke="#1e1e1e" stroke-width="2" stroke-opacity="1" transform="rotate(269.857017169484 1833.6239988354328 -116.33269148413251)"/>
<rect x="1819.3271137403747" y="-80.18529327172571" width="16.872255292180448" height="7.952103509272313" rx="1.9880258773180783" ry="1.9880258773180783" fill="#ffffff" fill-opacity="1" stroke="#1e1e1e" stroke-width="2" stroke-opacity="1" transform="rotate(180.04144495723804 1827.7632413864649 -76.20924151708955)"/>
<rect x="1795.1974958707901" y="-119.45445880598547" width="55.152318771468444" height="6.908526907469343" rx="1.7271317268673358" ry="1.7271317268673358" fill="#ffffff" fill-opacity="1" stroke="#1e1e1e" stroke-width="2" stroke-opacity="1" transform="rotate(269.857017169484 1822.7736552565243 -116.0001953522508)"/>
<rect x="1787.8859989762836" y="-145.78894231933347" width="6.173808271702476" height="7.808071313591046" rx="1.543452067925619" ry="1.543452067925619" fill="#ffffff" fill-opacity="1" stroke="#1e1e1e" stroke-width="2" stroke-opacity="1" transform="rotate(180.04144495723804 1790.9729031121349 -141.88490666253796)"/>
<rect x="1818.0472735386343" y="-35.628404460904065" width="31.142585174216787" height="6.843528507014379" rx="1.7108821267535947" ry="1.7108821267535947" fill="#ffffff" fill-opacity="1" stroke="#1e1e1e" stroke-width="2" stroke-opacity="1" transform="rotate(269.857017169484 1833.6185661257427 -32.20664020739687)"/>
</g>
</svg>