<svg xmlns="http://www.w3.org/2000/svg" viewBox="0 0 200.20243206055898 257.6053896322991" width="200.20243206055898" height="257.6053896322991">
<rect x="0" y="0" width="200.20243206055898" height="257.6053896322991" fill="#ffffff"/>
<g transform="translate(-1925.560864267951 187.70680696695587)">
<rect x="1935.560864267951" y="-177.70680696695587" width="154.7357065652759" height="223.6378232400101" rx="32" ry="32" fill="#d0bfff" fill-opacity="1" stroke="#6741d9" stroke-width="2" stroke-opacity="1" transform="rotate(0.11830246381020917 2012.928717550589 -65.88789534695081)"/>
<rect x="2014.5132136604984" y="-173.13953810743735" width="71.96664391626368" height="105.71873659676066" rx="17.99166097906592" ry="17.99166097906592" fill="#ffec99" fill-opacity="1" stroke="#f08c00" stroke-width="2" stroke-opacity="1" transform="rotate(0.11830246381020917 2050.4965356186303 -120.28016980905701)"/>
<rect x="1940.2835602300822" y="-63.827080758779644" width="145.5508022582296" height="105.01798117184661" rx="26.254495292961654" ry="26.254495292961654" fill="#ffec99" fill-opacity="1" stroke="#f08c00" stroke-width="2" stroke-opacity="1" transform="rotate(0.11830246381020917 2013.058961359197 -11.318090172856337)"/>
<rect x="1939.755852993652" y="-171.76042613897775" width="71.96664391626368" height="102.86069954840272" rx="17.99166097906592" ry="17.99166097906592" fill="#ffec99" fill-opacity="1" stroke="#f08c00" stroke-width="2" stroke-opacity="1" transform="rotate(0.11830246381020917 1975.739174951784 -120.33007636477639)"/>
<rect x="2041.2305495520393" y="-2.349838666240034" width="43.918954184069634" height="32.69392996379262" rx="8.173482490948155" ry="8.173482490948155" fill="#b2f2bb" fill-opacity="1" stroke="#2f9e44" stroke-width="2" stroke-opacity="1" transform="rotate(90.02896651902498 2063.190026644074 13.997126315656276)"/>
<rect x="1945.130441682242" y="-50.86680277375995" width="40.590756988618516" height="30.353906571663614" rx="7.588476642915904" ry="7.588476642915904" fill="#b2f2bb" fill-opacity="1" stroke="#2f9e44" stroke-width="2" stroke-opacity="1" transform="rotate(90.02896651902498 1965.4258201765513 -35.68984948792814)"/>
<rect x="2011.6909702402138" y="-81.33187758785596" width="45.84894296950732" height="94.1212344689502" rx="11.46223574237683" ry="11.46223574237683" fill="#b2f2bb" fill-opacity="1" stroke="#2f9e44" stroke-width="2" stroke-opacity="1" transform="rotate(90.02896651902498 2034.6154417249675 -34.27126035338085)"/>
<rect x="1990.4043009136303" y="-133.43116391636642" width="90.636531852691" height="27.139999389648438" rx="6.784999847412109" ry="6.784999847412109" fill="#b2f2bb" fill-opacity="1" stroke="#2f9e44" stroke-width="2" stroke-opacity="1" transform="rotate(90.02896651902498 2035.7225668399758 -119.8611642215422)"/>
<rect x="1939.9192422693043" y="-157.6893785747286" width="40.45266835326454" height="27.951170243032188" rx="6.987792560758047" ry="6.987792560758047" fill="#b2f2bb" fill-opacity="1" stroke="#2f9e44" stroke-width="2" stroke-opacity="1" transform="rotate(90.02896651902498 1960.1455764459365 -143.7137934532125)"/>
<rect x="1975.0440035896338" y="-30.08240286102398" width="44.35852201033958" height="89.98098552636716" rx="11.089630502584894" ry="11.089630502584894" fill="#b2f2bb" fill-opacity="1" stroke="#2f9e44" stroke-width="2" stroke-opacity="1" transform="rotate(90.02896651902498 1997.2232645948036 14.908089902159603)"/>
<rect x="1997.0211279488187" y="-54.151601807267895" width="31.315972241884133" height="40.636970278454164" rx="7.828993060471033" ry="7.828993060471033" fill="#ffffff" fill-opacity="1" stroke="#1e1e1e" stroke-width="2" stroke-opacity="1" transform="rotate(269.857017169484 2012.6791140697608 -33.833116668040816)"/>
<rect x="1988.0304515096288" y="-7.746073578816151" width="8.29862542147409" height="65.66108584051008" rx="2.0746563553685227" ry="2.0746563553685227" fill="#ffffff" fill-opacity="1" stroke="#1e1e1e" stroke-width="2" stroke-opacity="1" transform="rotate(269.857017169484 1992.179764220366 25.08446934143889)"/>
<rect x="1952.0841193371273" y="-138.5920935690212" width="16.901883185024694" height="8.262092896930048" rx="2.065523224232512" ry="2.065523224232512" fill="#ffffff" fill-opacity="1" stroke="#1e1e1e" stroke-width="2" stroke-opacity="1" transform="rotate(180.04144495723804 1960.5350609296397 -134.46104712055617)"/>
<rect x="2005.5423729442093" y="-119.88967989332713" width="59.89404858459308" height="16.434200717883094" rx="4.1085501794707735" ry="4.1085501794707735" fill="#ffffff" fill-opacity="1" stroke="#1e1e1e" stroke-width="2" stroke-opacity="1" transform="rotate(269.857017169484 2035.489397236506 -111.67257953438558)"/>
<rect x="2051.769952682198" y="0.10188277922834033" width="23.19567342388752" height="28.273013023031762" rx="5.79891835597188" ry="5.79891835597188" fill="#ffffff" fill-opacity="1" stroke="#1e1e1e" stroke-width="2" stroke-opacity="1" transform="rotate(180.04144495723804 2063.3677893941417 14.238389290744221)"/>
<rect x="1952.157386984931" y="-157.25243637879652" width="6.844420093598759" height="8.262092896930048" rx="1.7111050233996898" ry="1.7111050233996898" fill="#ffffff" fill-opacity="1" stroke="#1e1e1e" stroke-width="2" stroke-opacity="1" transform="rotate(180.04144495723804 1955.5795970317304 -153.1213899303315)"/>
<rect x="1955.3017556211923" y="-31.235797518442283" width="19.635299743886296" height="8.262092896930051" rx="2.0655232242325128" ry="2.0655232242325128" fill="#ffffff" fill-opacity="1" stroke="#1e1e1e" stroke-width="2" stroke-opacity="1" transform="rotate(180.04144495723804 1965.1194054931354 -27.104751069977258)"/>
<rect x="1955.519542119089" y="-125.51057083402978" width="44.0849464272472" height="59.17275804833529" rx="11.0212366068118" ry="11.0212366068118" fill="#b2f2bb" fill-opacity="1" stroke="#2f9e44" stroke-width="2" stroke-opacity="1" transform="rotate(90.02896651902498 1977.5620153327127 -95.92419180986214)"/>
<rect x="1954.7063162941995" y="-91.07581050450592" width="33.06790757513605" height="8.27665778214699" rx="2.0691644455367477" ry="2.0691644455367477" fill="#ffffff" fill-opacity="1" stroke="#1e1e1e" stroke-width="2" stroke-opacity="1" transform="rotate(180.04144495723804 1971.2402700817674 -86.93748161343242)"/>
<rect x="1966.5215215930418" y="-109.65868362945128" width="34.4124155165465" height="8.262092896930048" rx="2.065523224232512" ry="2.065523224232512" fill="#ffffff" fill-opacity="1" stroke="#1e1e1e" stroke-width="2" stroke-opacity="1" transform="rotate(180.04144495723804 1983.727729351315 -105.52763718098625)"/>
<rect x="2022.387501147614" y="-3.983643118737575" width="8.119938058512165" height="23.141092565349716" rx="2.0299845146280413" ry="2.0299845146280413" fill="#ffffff" fill-opacity="1" stroke="#1e1e1e" stroke-width="2" stroke-opacity="1" transform="rotate(269.857017169484 2026.4474701768702 7.586903163937283)"/>
<rect x="1963.0140385642746" y="-157.75449735583152" width="6.844420093598759" height="8.262092896930048" rx="1.7111050233996898" ry="1.7111050233996898" fill="#ffffff" fill-opacity="1" stroke="#1e1e1e" stroke-width="2" stroke-opacity="1" transform="rotate(180.04144495723804 1966.436248611074 -153.6234509073665)"/>
<rect x="1968.1855927547888" y="-48.44684651414198" width="6.844420093598759" height="8.262092896930048" rx="1.7111050233996898" ry="1.7111050233996898" fill="#ffffff" fill-opacity="1" stroke="#1e1e1e" stroke-width="2" stroke-opacity="1" transform="rotate(180.04144495723804 1971.6078028015882 -44.31580006567696)"/>
<rect x="1955.5020414996322" y="-48.110295664758894" width="6.844420093598759" height="8.262092896930048" rx="1.7111050233996898" ry="1.7111050233996898" fill="#ffffff" fill-opacity="1" stroke="#1e1e1e" stroke-width="2" stroke-opacity="1" transform="rotate(180.04144495723804 1958.9242515464316 -43.97924921629387)"/>
<rect x="1993.8018639707107" y="-91.03786170322789" width="6.844420093598759" height="8.262092896930048" rx="1.7111050233996898" ry="1.7111050233996898" fill="#ffffff" fill-opacity="1" stroke="#1e1e1e" stroke-width="2" stroke-opacity="1" transform="rotate(180.04144495723804 1997.22407401751 -86.90681525476286)"/>
<rect x="2034.8651380016722" y="-46.47799176299447" width="31.629028662001488" height="24.727100567431805" rx="6.181775141857951" ry="6.181775141857951" fill="#ffffff" fill-opacity="1" stroke="#1e1e1e" stroke-width="2" stroke-opacity="1" transform="rotate(269.857017169484 2050.679652332673 -34.11444147927857)"/>
<rect x="1958.6804720250873" y="2.7382965703866944" width="6.844420093598759" height="8.262092896930048" rx="1.7111050233996898" ry="1.7111050233996898" fill="#ffffff" fill-opacity="1" stroke="#1e1e1e" stroke-width="2" stroke-opacity="1" transform="rotate(180.04144495723804 1962.1026820718866 6.869343018851718)"/>
<rect x="1986.1820140814896" y="-14.501038949668072" width="8.433267404494723" height="42.97734398565357" rx="2.1083168511236807" ry="2.1083168511236807" fill="#ffffff" fill-opacity="1" stroke="#1e1e1e" stroke-width="2" stroke-opacity="1" transform="rotate(269.857017169484 1990.398647783737 6.987633043158713)"/>
<rect x="2030.120814446587" y="21.324463324837893" width="6.844420093598759" height="8.262092896930048" rx="1.7111050233996898" ry="1.7111050233996898" fill="#ffffff" fill-opacity="1" stroke="#1e1e1e" stroke-width="2" stroke-opacity="1" transform="rotate(180.04144495723804 2033.5430244933864 25.455509773302918)"/>
<rect x="1971.2714739675318" y="-157.7941548390748" width="40.45266835326454" height="27.951170243032188" rx="6.987792560758047" ry="6.987792560758047" fill="#b2f2bb" fill-opacity="1" stroke="#2f9e44" stroke-width="2" stroke-opacity="1" transform="rotate(90.02896651902498 1991.497808144164 -143.8185697175587)"/>
<rect x="1982.2468792965592" y="-158.565776644379" width="7.0764395409139444" height="28.19127433651729" rx="1.7691098852284861" ry="1.7691098852284861" fill="#ffffff" fill-opacity="1" stroke="#1e1e1e" stroke-width="2" stroke-opacity="1" transform="rotate(180.59936711449706 1985.785099067016 -144.47013947612038)"/>
<rect x="1993.7366199116996" y="-158.50945565019694" width="6.570177312332601" height="28.493416341780904" rx="1.6425443280831502" ry="1.6425443280831502" fill="#ffffff" fill-opacity="1" stroke="#1e1e1e" stroke-width="2" stroke-opacity="1" transform="rotate(180.04144495723804 1997.021708567866 -144.26274747930648)"/>
<rect x="2022.3212910389204" y="-132.7930869486499" width="93.44200528958949" height="26.851468392576077" rx="6.712867098144019" ry="6.712867098144019" fill="#b2f2bb" fill-opacity="1" stroke="#2f9e44" stroke-width="2" stroke-opacity="1" transform="rotate(90.02896651902498 2069.0422936837153 -119.36735275236185)"/>
<rect x="2045.0204284102103" y="-133.57314929220553" width="58.44381063111978" height="6.908526907469343" rx="1.7271317268673358" ry="1.7271317268673358" fill="#ffffff" fill-opacity="1" stroke="#1e1e1e" stroke-width="2" stroke-opacity="1" transform="rotate(269.857017169484 2074.24233372577 -130.11888583847085)"/>
<rect x="2059.948732640768" y="-92.28744650624117" width="16.872255292180448" height="7.952103509272313" rx="1.9880258773180783" ry="1.9880258773180783" fill="#ffffff" fill-opacity="1" stroke="#1e1e1e" stroke-width="2" stroke-opacity="1" transform="rotate(180.04144495723804 2068.3848602868584 -88.31139475160501)"/>
<rect x="2033.9027449528398" y="-132.5867225031322" width="58.9755175445983" height="6.908526907469343" rx="1.7271317268673358" ry="1.7271317268673358" fill="#ffffff" fill-opacity="1" stroke="#1e1e1e" stroke-width="2" stroke-opacity="1" transform="rotate(269.857017169484 2063.390503725139 -129.1324590493975)"/>
<rect x="2026.3320432652558" y="-157.6772472429789" width="6.173808271702476" height="7.808071313591046" rx="1.543452067925619" ry="1.543452067925619" fill="#ffffff" fill-opacity="1" stroke="#1e1e1e" stroke-width="2" stroke-opacity="1" transform="rotate(180.04144495723804 2029.418947401107 -153.77321158618338)"/>
<rect x="2057.6688924390282" y="-37.73055769541952" width="31.142585174216787" height="6.843528507014379" rx="1.7108821267535947" ry="1.7108821267535947" fill="#ffffff" fill-opacity="1" stroke="#1e1e1e" stroke-width="2" stroke-opacity="1" transform="rotate(269.857017169484 2073.2401850261367 -34.30879344191233)"/>
<rect x="1953.253783266582" y="-109.89649167500903" width="6.844420093598759" height="8.262092896930048" rx="1.7111050233996898" ry="1.7111050233996898" fill="#ffffff" fill-opacity="1" stroke="#1e1e1e" stroke-width="2" stroke-opacity="1" transform="rotate(180.04144495723804 1956.6759933133815 -105.765445226544)"/>
<rect x="2037.7685824449657" y="-157.73353313568865" width="6.173808271702476" height="7.808071313591046" rx="1.543452067925619" ry="1.543452067925619" fill="#ffffff" fill-opacity="1" stroke="#1e1e1e" stroke-width="2" stroke-opacity="1" transform="rotate(180.04144495723804 2040.855486580817 -153.82949747889313)"/>
</g>
</svg>