<svg xmlns="http://www.w3.org/2000/svg" viewBox="0 0 430.8183137087566 1171.406935976725" width="430.8183137087566" height="1171.406935976725">
<rect x="0" y="0" width="430.8183137087566" height="1171.406935976725" fill="#ffffff"/>
<g transform="translate(250.11381113645302 558.6640625)">
<rect x="-8.59765625" y="-542.6640625" width="37.38671875" height="37.47265625" rx="9.3466796875" ry="9.3466796875" fill="#ffffff" fill-opacity="1" stroke="#1e1e1e" stroke-width="2" stroke-opacity="1"/>
<rect x="-161.82876554980504" y="-538.5512060826678" width="23.236417754601945" height="35.93134758797594" rx="5.809104438650486" ry="5.809104438650486" fill="#b2f2bb" fill-opacity="1" stroke="#1e1e1e" stroke-width="2" stroke-opacity="1" transform="rotate(270.0050673702012 -150.21055667250408 -520.5855322886798)"/>
<rect x="-154.91839760496336" y="-531.8905698135147" width="23.236417754601945" height="35.93134758797594" rx="5.809104438650486" ry="5.809104438650486" fill="#b2f2bb" fill-opacity="1" stroke="#1e1e1e" stroke-width="2" stroke-opacity="1" transform="rotate(179.3004470491393 -143.30018872766237 -513.9248960195267)"/>
<rect x="-204.4766391607344" y="-529.8735118274424" width="23.236417754601945" height="35.3936135654216" rx="5.809104438650486" ry="5.809104438650486" fill="#b2f2bb" fill-opacity="1" stroke="#1e1e1e" stroke-width="2" stroke-opacity="1" transform="rotate(181.23514075350948 -192.85843028343345 -512.1767050447315)"/>
<rect x="-88.06865799761984" y="-533.675579279253" width="37.90625" height="46.30911130031635" rx="9.4765625" ry="9.4765625" fill="#ffffff" fill-opacity="1" stroke="#1e1e1e" stroke-width="2" stroke-opacity="1" transform="rotate(88.88493307663026 -69.11553299761984 -510.5210236290949)"/>
<rect x="-178.17719096774155" y="-494.7457953484859" width="23.236417754601945" height="35.93134758797594" rx="5.809104438650486" ry="5.809104438650486" fill="#b2f2bb" fill-opacity="1" stroke="#1e1e1e" stroke-width="2" stroke-opacity="1" transform="rotate(179.3004470491393 -166.55898209044057 -476.78012155449795)"/>
<rect x="-155.00389133177563" y="-494.8560372593755" width="23.236417754601945" height="35.93134758797594" rx="5.809104438650486" ry="5.809104438650486" fill="#b2f2bb" fill-opacity="1" stroke="#1e1e1e" stroke-width="2" stroke-opacity="1" transform="rotate(179.3004470491393 -143.38568245447465 -476.89036346538757)"/>
<rect x="-162.48121767547786" y="-488.35512459243927" width="23.236417754601945" height="36.959492790985614" rx="5.809104438650486" ry="5.809104438650486" fill="#b2f2bb" fill-opacity="1" stroke="#1e1e1e" stroke-width="2" stroke-opacity="1" transform="rotate(270.0050673702012 -150.8630087981769 -469.8753781969465)"/>
<rect x="-203.49795803113759" y="-496.10919530765045" width="23.236417754601945" height="35.93134758797594" rx="5.809104438650486" ry="5.809104438650486" fill="#b2f2bb" fill-opacity="1" stroke="#1e1e1e" stroke-width="2" stroke-opacity="1" transform="rotate(179.3004470491393 -191.8797491538366 -478.1435215136625)"/>
<rect x="-197.49717952880366" y="-488.02762744441895" width="23.236417754601945" height="36.959492790985614" rx="5.809104438650486" ry="5.809104438650486" fill="#b2f2bb" fill-opacity="1" stroke="#1e1e1e" stroke-width="2" stroke-opacity="1" transform="rotate(270.0050673702012 -185.8789706515027 -469.5478810489262)"/>
<rect x="-200.82374761467275" y="-450.8170512677924" width="23.236417754601945" height="36.959492790985614" rx="5.809104438650486" ry="5.809104438650486" fill="#ffc9c9" fill-opacity="1" stroke="#1e1e1e" stroke-width="2" stroke-opacity="1" transform="rotate(179.82805065045898 -189.2055387373718 -432.3373048722996)"/>
<rect x="-187.95722334808565" y="-438.59865442944437" width="23.236417754601945" height="36.959492790985614" rx="5.809104438650486" ry="5.809104438650486" fill="none" fill-opacity="1" stroke="#1e1e1e" stroke-width="2" stroke-opacity="1" transform="rotate(270.0050673702012 -176.33901447078466 -420.1189080339516)"/>
<rect x="-234.11381113645302" y="-435.06590807969525" width="23.236417754601945" height="36.959492790985614" rx="5.809104438650486" ry="5.809104438650486" fill="#ffc9c9" fill-opacity="1" stroke="#1e1e1e" stroke-width="2" stroke-opacity="1" transform="rotate(179.82805065045898 -222.49560225915207 -416.58616168420247)"/>
<rect x="-141.76361285044894" y="-393.094879086116" width="23.236417754601945" height="35.93134758797594" rx="5.809104438650486" ry="5.809104438650486" fill="#ffffff" fill-opacity="1" stroke="#1e1e1e" stroke-width="2" stroke-opacity="1" transform="rotate(178.32299054258164 -130.14540397314795 -375.12920529212806)"/>
<rect x="-134.9882350005741" y="-360.131704042048" width="23.236417754601945" height="35.93134758797594" rx="5.809104438650486" ry="5.809104438650486" fill="#ffffff" fill-opacity="1" stroke="#1e1e1e" stroke-width="2" stroke-opacity="1" transform="rotate(178.32299054258164 -123.37002612327312 -342.16603024806005)"/>
<rect x="-177.91169214140825" y="-315.92436606503236" width="23.236417754601945" height="36.959492790985614" rx="5.809104438650486" ry="5.809104438650486" fill="#ffffff" fill-opacity="1" stroke="#1e1e1e" stroke-width="2" stroke-opacity="1" transform="rotate(179.82805065045898 -166.2934832641073 -297.4446196695396)"/>
<rect x="-151.36489478423562" y="-315.92436606503236" width="23.236417754601945" height="36.959492790985614" rx="5.809104438650486" ry="5.809104438650486" fill="#ffffff" fill-opacity="1" stroke="#1e1e1e" stroke-width="2" stroke-opacity="1" transform="rotate(179.82805065045898 -139.74668590693466 -297.4446196695396)"/>
<rect x="-151.06375977237295" y="-277.6820281837791" width="37.90625" height="46.30911130031635" rx="9.4765625" ry="9.4765625" fill="#ffffff" fill-opacity="1" stroke="#1e1e1e" stroke-width="2" stroke-opacity="1" transform="rotate(88.88493307663026 -132.11063477237295 -254.5274725336209)"/>
<rect x="-189.75987562704742" y="118.76256026184411" width="25.62129262488788" height="16.86330522220782" rx="4.215826305551955" ry="4.215826305551955" fill="#ffffff" fill-opacity="1" stroke="#1e1e1e" stroke-width="2" stroke-opacity="1" transform="rotate(179.82805065045898 -176.94922931460349 127.19421287294803)"/>
<rect x="-188.6964105621129" y="142.10644760433198" width="25.62129262488788" height="15.467479063938434" rx="3.8668697659846085" ry="3.8668697659846085" fill="#ffffff" fill-opacity="1" stroke="#1e1e1e" stroke-width="2" stroke-opacity="1" transform="rotate(179.82805065045898 -175.88576424966897 149.84018713630118)"/>
<rect x="141.46808481770165" y="559.7833806857393" width="23.236417754601945" height="36.959492790985614" rx="5.809104438650486" ry="5.809104438650486" fill="#ffffff" fill-opacity="1" stroke="#1e1e1e" stroke-width="2" stroke-opacity="1" transform="rotate(269.857017169484 153.0862936950026 578.2631270812321)"/>
</g>
</svg>