<svg xmlns="http://www.w3.org/2000/svg" viewBox="0 0 235.65833987736266 218.90820545464814" width="235.65833987736266" height="218.90820545464814">
<rect x="0" y="0" width="235.65833987736266" height="218.90820545464814" fill="#ffffff"/>
<g transform="translate(376.7975417881629 422.9723098344994)">
<rect x="-362.48349873081804" y="-410.9723098344994" width="165.27902794021205" height="194.90820545464814" rx="32" ry="32" fill="#d0bfff" fill-opacity="1" stroke="#9c36b5" stroke-width="1" stroke-opacity="1" transform="rotate(270.0050673702012 -279.84398476071203 -313.51820710717533)"/>
<rect x="-364.7975417881629" y="-403.06789415487543" width="77.04512220713926" height="90.12542474759523" rx="19.261280551784814" ry="19.261280551784814" fill="#ffec99" fill-opacity="1" stroke="#f08c00" stroke-width="1" stroke-opacity="1" transform="rotate(270.0050673702012 -326.2749806845933 -358.0051817810778)"/>
<rect x="-362.53547892549545" y="-395.74317072589645" width="31.531106255017434" height="37.071450919861725" rx="7.8827765637543585" ry="7.8827765637543585" fill="#b2f2bb" fill-opacity="1" stroke="#2f9e44" stroke-width="1" stroke-opacity="1" transform="rotate(270.0050673702012 -346.76992579798673 -377.2074452659656)"/>
<rect x="-357.09020403476" y="-386.88146648068414" width="6.684236084470386" height="9.598549875396312" rx="1.6710590211175964" ry="1.6710590211175964" fill="#ffffff" fill-opacity="1" stroke="#1e1e1e" stroke-width="0.5" stroke-opacity="1" transform="rotate(270.48383081458024 -353.7480859925248 -382.082191542986)"/>
<rect x="-357.3336619154907" y="-376.38885730563845" width="6.684236084470386" height="9.598549875396312" rx="1.6710590211175964" ry="1.6710590211175964" fill="#ffffff" fill-opacity="1" stroke="#1e1e1e" stroke-width="0.5" stroke-opacity="1" transform="rotate(270.48383081458024 -353.9915438732555 -371.5895823679403)"/>
<rect x="-348.8597366133507" y="-381.31479660755787" width="17.35121659534942" height="9.598549875396312" rx="2.399637468849078" ry="2.399637468849078" fill="#ffffff" fill-opacity="1" stroke="#1e1e1e" stroke-width="0.5" stroke-opacity="1" transform="rotate(270.48383081458024 -340.184128315676 -376.5155216698597)"/>
<rect x="-362.5262878588212" y="-359.0081893144482" width="31.531106255017434" height="37.071450919861725" rx="7.8827765637543585" ry="7.8827765637543585" fill="#b2f2bb" fill-opacity="1" stroke="#2f9e44" stroke-width="1" stroke-opacity="1" transform="rotate(270.0050673702012 -346.7607347313125 -340.47246385451734)"/>
<rect x="-337.79325275565486" y="-376.62543393890735" width="66.2750723133584" height="37.071450919861725" rx="9.267862729965431" ry="9.267862729965431" fill="#b2f2bb" fill-opacity="1" stroke="#2f9e44" stroke-width="1" stroke-opacity="1" transform="rotate(270.0050673702012 -304.6557165989757 -358.0897084789765)"/>
<rect x="-316.56916501548085" y="-370.2879572823544" width="36.910369568344684" height="11.64228420739521" rx="2.9105710518488026" ry="2.9105710518488026" fill="#ffffff" fill-opacity="1" stroke="#1e1e1e" stroke-width="0.5" stroke-opacity="1" transform="rotate(270.48383081458024 -298.1139802313085 -364.4668151786568)"/>
<rect x="-316.4665090495088" y="-384.49982300070997" width="6.684236084470386" height="9.598549875396312" rx="1.6710590211175964" ry="1.6710590211175964" fill="#ffffff" fill-opacity="1" stroke="#1e1e1e" stroke-width="0.5" stroke-opacity="1" transform="rotate(270.48383081458024 -313.1243910072736 -379.7005480630118)"/>
<rect x="-333.6471771770449" y="-357.13130745389464" width="40.27500469440685" height="9.598549875396312" rx="2.399637468849078" ry="2.399637468849078" fill="#ffffff" fill-opacity="1" stroke="#1e1e1e" stroke-width="0.5" stroke-opacity="1" transform="rotate(270.48383081458024 -313.50967482984146 -352.3320325161965)"/>
<rect x="-301.52243866300483" y="-341.4604318577796" width="6.684236084470386" height="9.598549875396312" rx="1.6710590211175964" ry="1.6710590211175964" fill="#ffffff" fill-opacity="1" stroke="#1e1e1e" stroke-width="0.5" stroke-opacity="1" transform="rotate(270.48383081458024 -298.18032062076963 -336.66115692008145)"/>
<rect x="-350.8718807853814" y="-356.55846818847954" width="6.684236084470386" height="21.774483299547818" rx="1.6710590211175964" ry="1.6710590211175964" fill="#ffffff" fill-opacity="1" stroke="#1e1e1e" stroke-width="0.5" stroke-opacity="1" transform="rotate(270.48383081458024 -347.5297627431462 -345.67122653870564)"/>
<rect x="-350.1739053080776" y="-344.8177866516181" width="5.976634196285932" height="22.196586437261956" rx="1.494158549071483" ry="1.494158549071483" fill="#ffffff" fill-opacity="1" stroke="#1e1e1e" stroke-width="0.5" stroke-opacity="1" transform="rotate(270.48383081458024 -347.1855882099347 -333.7194934329871)"/>
<rect x="-364.4627255216918" y="-321.4698274508839" width="77.04512220713926" height="90.12542474759523" rx="19.261280551784814" ry="19.261280551784814" fill="#ffec99" fill-opacity="1" stroke="#f08c00" stroke-width="1" stroke-opacity="1" transform="rotate(270.0050673702012 -325.9401644181222 -276.40711507708625)"/>
<rect x="-340.8766962021174" y="-331.3816013222812" width="31.531106255017434" height="79.03007730463041" rx="7.8827765637543585" ry="7.8827765637543585" fill="#b2f2bb" fill-opacity="1" stroke="#2f9e44" stroke-width="1" stroke-opacity="1" transform="rotate(270.0050673702012 -325.11114307460866 -291.866562669966)"/>
<rect x="-341.5620373238963" y="-296.13574228909823" width="31.531106255017434" height="79.03007730463041" rx="7.8827765637543585" ry="7.8827765637543585" fill="#b2f2bb" fill-opacity="1" stroke="#2f9e44" stroke-width="1" stroke-opacity="1" transform="rotate(270.0050673702012 -325.79648419638755 -256.62070363678305)"/>
<rect x="-355.2505920096688" y="-303.25360945007566" width="6.684236084470386" height="9.598549875396312" rx="1.6710590211175964" ry="1.6710590211175964" fill="#ffffff" fill-opacity="1" stroke="#1e1e1e" stroke-width="0.5" stroke-opacity="1" transform="rotate(270.48383081458024 -351.9084739674336 -298.4543345123775)"/>
<rect x="-355.34889952980325" y="-290.848987818589" width="6.684236084470386" height="9.598549875396312" rx="1.6710590211175964" ry="1.6710590211175964" fill="#ffffff" fill-opacity="1" stroke="#1e1e1e" stroke-width="0.5" stroke-opacity="1" transform="rotate(270.48383081458024 -352.00678148756805 -286.04971288089087)"/>
<rect x="-339.02353767423097" y="-286.01800624603493" width="6.684236084470386" height="46.64398792029611" rx="1.6710590211175964" ry="1.6710590211175964" fill="#ffffff" fill-opacity="1" stroke="#1e1e1e" stroke-width="0.5" stroke-opacity="1" transform="rotate(270.48383081458024 -335.68141963199577 -262.69601228588687)"/>
<rect x="-339.35269855305296" y="-274.84522247900435" width="6.684236084470386" height="47.517369713876846" rx="1.6710590211175964" ry="1.6710590211175964" fill="#ffffff" fill-opacity="1" stroke="#1e1e1e" stroke-width="0.5" stroke-opacity="1" transform="rotate(270.48383081458024 -336.01058051081776 -251.08653762206592)"/>
<rect x="-327.9221926599259" y="-318.25178120633194" width="19.756423254169494" height="51.547220043382175" rx="4.9391058135423735" ry="4.9391058135423735" fill="#ffffff" fill-opacity="1" stroke="#1e1e1e" stroke-width="0.5" stroke-opacity="1" transform="rotate(270.48383081458024 -318.04398103284115 -292.47817118464087)"/>
<rect x="-308.5299066214302" y="-261.08449556870744" width="17.35121659534942" height="9.598549875396312" rx="2.399637468849078" ry="2.399637468849078" fill="#ffffff" fill-opacity="1" stroke="#1e1e1e" stroke-width="0.5" stroke-opacity="1" transform="rotate(270.48383081458024 -299.8542983237555 -256.2852206310093)"/>
<rect x="-312.4121917144379" y="-361.2268989414453" width="159.27298980363764" height="90.12542474759523" rx="22.531356186898808" ry="22.531356186898808" fill="#ffec99" fill-opacity="1" stroke="#f08c00" stroke-width="1" stroke-opacity="1" transform="rotate(270.0050673702012 -232.77569681261906 -316.1641865676477)"/>
<rect x="-268.4630219647506" y="-392.1787691836649" width="31.531106255017434" height="37.071450919861725" rx="7.8827765637543585" ry="7.8827765637543585" fill="#b2f2bb" fill-opacity="1" stroke="#2f9e44" stroke-width="1" stroke-opacity="1" transform="rotate(270.0050673702012 -252.6974688372419 -373.643043723734)"/>
<rect x="-263.0177470740151" y="-383.2343507001638" width="6.684236084470386" height="9.598549875396312" rx="1.6710590211175964" ry="1.6710590211175964" fill="#ffffff" fill-opacity="1" stroke="#1e1e1e" stroke-width="0.5" stroke-opacity="1" transform="rotate(270.48383081458024 -259.6756290317799 -378.43507576246566)"/>
<rect x="-263.26120495474595" y="-372.74174152511813" width="6.684236084470386" height="9.598549875396312" rx="1.6710590211175964" ry="1.6710590211175964" fill="#ffffff" fill-opacity="1" stroke="#1e1e1e" stroke-width="0.5" stroke-opacity="1" transform="rotate(270.48383081458024 -259.91908691251075 -367.94246658742)"/>
<rect x="-254.7872796526059" y="-377.6676808270375" width="17.35121659534942" height="9.598549875396312" rx="2.399637468849078" ry="2.399637468849078" fill="#ffffff" fill-opacity="1" stroke="#1e1e1e" stroke-width="0.5" stroke-opacity="1" transform="rotate(270.48383081458024 -246.1116713549312 -372.86840588933933)"/>
<rect x="-309.0898909534614" y="-317.81254656377524" width="110.80471917249474" height="39.0799548746292" rx="9.7699887186573" ry="9.7699887186573" fill="#b2f2bb" fill-opacity="1" stroke="#2f9e44" stroke-width="1" stroke-opacity="1" transform="rotate(270.0050673702012 -253.68753136721404 -298.27256912646067)"/>
<rect x="-265.210029860904" y="-351.4909845655195" width="109.24973966716821" height="37.071450919861725" rx="9.267862729965431" ry="9.267862729965431" fill="#b2f2bb" fill-opacity="1" stroke="#2f9e44" stroke-width="1" stroke-opacity="1" transform="rotate(270.0050673702012 -210.5851600273199 -332.95525910558865)"/>
<rect x="-245.42770229606992" y="-343.98538791094563" width="82.38832670132145" height="11.64228420739521" rx="2.9105710518488026" ry="2.9105710518488026" fill="#ffffff" fill-opacity="1" stroke="#1e1e1e" stroke-width="0.5" stroke-opacity="1" transform="rotate(270.48383081458024 -204.2335389454092 -338.16424580724805)"/>
<rect x="-222.39405208876394" y="-380.85270722018964" width="6.684236084470386" height="9.598549875396312" rx="1.6710590211175964" ry="1.6710590211175964" fill="#ffffff" fill-opacity="1" stroke="#1e1e1e" stroke-width="0.5" stroke-opacity="1" transform="rotate(270.48383081458024 -219.05193404652874 -376.0534322824915)"/>
<rect x="-239.57472021630008" y="-353.48419167337426" width="40.27500469440685" height="9.598549875396312" rx="2.399637468849078" ry="2.399637468849078" fill="#ffffff" fill-opacity="1" stroke="#1e1e1e" stroke-width="0.5" stroke-opacity="1" transform="rotate(270.48383081458024 -219.43721786909666 -348.6849167356761)"/>
<rect x="-207.487833980799" y="-292.19290882038877" width="6.684236084470386" height="9.598549875396312" rx="1.6710590211175964" ry="1.6710590211175964" fill="#ffffff" fill-opacity="1" stroke="#1e1e1e" stroke-width="0.5" stroke-opacity="1" transform="rotate(270.48383081458024 -204.1457159385638 -287.3936338826906)"/>
<rect x="-281.11929839509287" y="-333.391112363903" width="53.359526033960044" height="24.037316051271244" rx="6.009329012817811" ry="6.009329012817811" fill="#ffffff" fill-opacity="1" stroke="#1e1e1e" stroke-width="0.5" stroke-opacity="1" transform="rotate(270.48383081458024 -254.43953537811285 -321.3724543382674)"/>
<rect x="-269.4891410891798" y="-287.3730406256376" width="29.362558049949648" height="24.4766236709855" rx="6.119155917746375" ry="6.119155917746375" fill="#ffffff" fill-opacity="1" stroke="#1e1e1e" stroke-width="0.5" stroke-opacity="1" transform="rotate(270.48383081458024 -254.80786206420495 -275.13472879014483)"/>
<rect x="-225.54896314059727" y="-275.35469812568465" width="31.531106255017434" height="37.071450919861725" rx="7.8827765637543585" ry="7.8827765637543585" fill="#b2f2bb" fill-opacity="1" stroke="#2f9e44" stroke-width="1" stroke-opacity="1" transform="rotate(270.0050673702012 -209.78341001308854 -256.8189726657538)"/>
<rect x="-238.82881524312154" y="-308.17655020634294" width="40.27500469440685" height="9.598549875396312" rx="2.399637468849078" ry="2.399637468849078" fill="#ffffff" fill-opacity="1" stroke="#1e1e1e" stroke-width="0.5" stroke-opacity="1" transform="rotate(270.48383081458024 -218.69131289591812 -303.3772752686448)"/>
<rect x="-258.5827976970381" y="-261.80061805974145" width="5.976634196285932" height="22.196586437261956" rx="1.494158549071483" ry="1.494158549071483" fill="#ffffff" fill-opacity="1" stroke="#1e1e1e" stroke-width="0.5" stroke-opacity="1" transform="rotate(270.48383081458024 -255.5944805988951 -250.70232484111048)"/>
<rect x="-222.2077903061038" y="-269.6722986199158" width="23.841084257374558" height="26.173591658935447" rx="5.960271064343639" ry="5.960271064343639" fill="#ffffff" fill-opacity="1" stroke="#1e1e1e" stroke-width="0.5" stroke-opacity="1" transform="rotate(270.48383081458024 -210.2872481774165 -256.58550279044806)"/>
</g>
</svg>