<svg xmlns="http://www.w3.org/2000/svg" viewBox="0 0 233.19293483521372 167.50885574059623" width="233.19293483521372" height="167.50885574059623">
<rect x="0" y="0" width="233.19293483521372" height="167.50885574059623" fill="#ffffff"/>
<g transform="translate(186.16491649029433 -657.4345602908933)">
<rect x="-176.16491649029433" y="667.4345602908933" width="213.19293483521372" height="147.50885574059626" rx="32" ry="32" fill="#d0bfff" fill-opacity="1" stroke="#6741d9" stroke-width="2" stroke-opacity="1" transform="rotate(0.11830246381020917 -69.56844907268747 741.1889881611914)"/>
<rect x="-169.46181239040538" y="674.6980700693123" width="203.9072620659946" height="130.74963911545288" rx="32" ry="32" fill="#ffec99" fill-opacity="1" stroke="#f08c00" stroke-width="2" stroke-opacity="1" transform="rotate(0.11830246381020917 -67.50818135740809 740.0728896270388)"/>
<rect x="-139.4243594829038" y="731.9957626325945" width="52.509128896855856" height="81.44089850079041" rx="13.127282224213964" ry="13.127282224213964" fill="#b2f2bb" fill-opacity="1" stroke="#2f9e44" stroke-width="2" stroke-opacity="1" transform="rotate(90.02896651902498 -113.16979503447588 772.7162118829897)"/>
<rect x="-142.70096212574276" y="671.3482163197237" width="52.509128896855856" height="81.44089850079041" rx="13.127282224213964" ry="13.127282224213964" fill="#b2f2bb" fill-opacity="1" stroke="#2f9e44" stroke-width="2" stroke-opacity="1" transform="rotate(90.02896651902498 -116.44639767731483 712.0686655701189)"/>
<rect x="-83.81689963487283" y="699.287136198917" width="113.8360560719564" height="81.44089850079052" rx="20.36022462519763" ry="20.36022462519763" fill="#b2f2bb" fill-opacity="1" stroke="#2f9e44" stroke-width="2" stroke-opacity="1" transform="rotate(90.02896651902498 -26.898871598894623 740.0075854493123)"/>
<rect x="-124.55336516883966" y="745.9154922582877" width="23.236417754601945" height="57.98674650138491" rx="5.809104438650486" ry="5.809104438650486" fill="#ffffff" fill-opacity="1" stroke="#1e1e1e" stroke-width="2" stroke-opacity="1" transform="rotate(269.857017169484 -112.93515629153869 774.9088655089802)"/>
<rect x="-86.77268207415842" y="734.7428339146072" width="85.5479784216191" height="17.912322428077687" rx="4.478080607019422" ry="4.478080607019422" fill="#ffffff" fill-opacity="1" stroke="#1e1e1e" stroke-width="2" stroke-opacity="1" transform="rotate(269.857017169484 -43.99869286334887 743.6989951286461)"/>
<rect x="-140.5423963119219" y="700.127789745301" width="17.799356883577758" height="24.221407999641023" rx="4.4498392208944395" ry="4.4498392208944395" fill="#ffffff" fill-opacity="1" stroke="#1e1e1e" stroke-width="2" stroke-opacity="1" transform="rotate(180.04144495723804 -131.64271787013303 712.2384937451216)"/>
<rect x="-108.4104624860402" y="700.7264939588225" width="18.2553284996893" height="23.90239950616301" rx="4.563832124922325" ry="4.563832124922325" fill="#ffffff" fill-opacity="1" stroke="#1e1e1e" stroke-width="2" stroke-opacity="1" transform="rotate(180.04144495723804 -99.28279823619556 712.677693711904)"/>
<rect x="-51.874883750793636" y="734.9448845401006" width="83.19123734839792" height="17.65603906473739" rx="4.414009766184347" ry="4.414009766184347" fill="#ffffff" fill-opacity="1" stroke="#1e1e1e" stroke-width="2" stroke-opacity="1" transform="rotate(269.857017169484 -10.279265076594676 743.7729040724693)"/>
</g>
</svg>