<svg xmlns="http://www.w3.org/2000/svg" viewBox="0 0 271.05926084558473 174.7357065652759" width="271.05926084558473" height="174.7357065652759">
<rect x="0" y="0" width="271.05926084558473" height="174.7357065652759" fill="#ffffff"/>
<g transform="translate(186.96101888855236 -1528.7129688400967)">
<rect x="-176.96101888855236" y="1538.7129688400967" width="223.6378232400101" height="154.7357065652759" rx="32" ry="32" fill="#d0bfff" fill-opacity="1" stroke="#6741d9" stroke-width="2" stroke-opacity="1" transform="rotate(0.11830246381020917 -65.1421072685473 1616.0808221227346)"/>
<rect x="-169.7357061056119" y="1549.2974458903514" width="102.82315095889834" height="138.76660394218683" rx="25.705787739724585" ry="25.705787739724585" fill="#ffec99" fill-opacity="1" stroke="#f08c00" stroke-width="2" stroke-opacity="1" transform="rotate(0.11830246381020917 -118.32413062616274 1618.6807478614448)"/>
<rect x="-61.988707767283444" y="1546.510982013889" width="104.13168672813568" height="138.76660394218683" rx="26.03292168203392" ry="26.03292168203392" fill="#ffec99" fill-opacity="1" stroke="#f08c00" stroke-width="2" stroke-opacity="1" transform="rotate(0.11830246381020917 -9.922864403215605 1615.8942839849824)"/>
<rect x="-94.42982866153828" y="1593.9744434736488" width="119.41318696061725" height="45.84894296950732" rx="11.46223574237683" ry="11.46223574237683" fill="#b2f2bb" fill-opacity="1" stroke="#2f9e44" stroke-width="2" stroke-opacity="1" transform="rotate(90.02896651902498 -34.723235181229654 1616.8989149584024)"/>
<rect x="-143.50249274174342" y="1604.31503129918" width="55.08169065639377" height="88.94886232086407" rx="13.770422664098442" ry="13.770422664098442" fill="#b2f2bb" fill-opacity="1" stroke="#2f9e44" stroke-width="2" stroke-opacity="1" transform="rotate(90.02896651902498 -115.96164741354654 1648.789462459612)"/>
<rect x="-168.83115241060722" y="1567.1646043619937" width="55.08169065639377" height="40.45266835326454" rx="10.113167088316136" ry="10.113167088316136" fill="#b2f2bb" fill-opacity="1" stroke="#2f9e44" stroke-width="2" stroke-opacity="1" transform="rotate(90.02896651902498 -141.29030708241032 1587.390938538626)"/>
<rect x="-45.31494500358491" y="1593.1673732680972" width="119.41318696061725" height="45.84894296950732" rx="11.46223574237683" ry="11.46223574237683" fill="#b2f2bb" fill-opacity="1" stroke="#2f9e44" stroke-width="2" stroke-opacity="1" transform="rotate(90.02896651902498 14.391648476723716 1616.0918447528509)"/>
<rect x="-127.51454773380593" y="1636.1058576476212" width="6.908526907469343" height="52.64711594432751" rx="1.7271317268673358" ry="1.7271317268673358" fill="#ffffff" fill-opacity="1" stroke="#1e1e1e" stroke-width="2" stroke-opacity="1" transform="rotate(269.857017169484 -124.06028428007126 1662.429415619785)"/>
<rect x="-57.85698048551521" y="1599.594502232" width="43.41771296206747" height="24.49406660078743" rx="6.123516650196858" ry="6.123516650196858" fill="#ffffff" fill-opacity="1" stroke="#1e1e1e" stroke-width="2" stroke-opacity="1" transform="rotate(269.857017169484 -36.148124004481474 1611.8415355323937)"/>
<rect x="-15.719360809081365" y="1596.0034077766422" width="77.51008538880846" height="7.905867648262548" rx="1.976466912065637" ry="1.976466912065637" fill="#ffffff" fill-opacity="1" stroke="#1e1e1e" stroke-width="2" stroke-opacity="1" transform="rotate(269.857017169484 23.035681885322866 1599.9563416007736)"/>
<rect x="-137.0529940779429" y="1568.3094056183406" width="8.262092896930048" height="12.127376505462772" rx="2.065523224232512" ry="2.065523224232512" fill="#ffffff" fill-opacity="1" stroke="#1e1e1e" stroke-width="2" stroke-opacity="1" transform="rotate(180.04144495723804 -132.9219476294779 1574.3730938710721)"/>
<rect x="-116.00650497394962" y="1609.8534499968212" width="11.77014644097449" height="54.11312635470635" rx="2.9425366102436223" ry="2.9425366102436223" fill="#ffffff" fill-opacity="1" stroke="#1e1e1e" stroke-width="2" stroke-opacity="1" transform="rotate(269.857017169484 -110.12143175346237 1636.9100131741743)"/>
<rect x="2.096665596262735" y="1654.320402052485" width="25.147112195962578" height="14.131684248525787" rx="3.5329210621314466" ry="3.5329210621314466" fill="#ffffff" fill-opacity="1" stroke="#1e1e1e" stroke-width="2" stroke-opacity="1" transform="rotate(180.04144495723804 14.670221694244024 1661.3862441767478)"/>
<rect x="-88.57762785309602" y="1653.1438655419718" width="8.262092896930048" height="12.127376505462772" rx="2.065523224232512" ry="2.065523224232512" fill="#ffffff" fill-opacity="1" stroke="#1e1e1e" stroke-width="2" stroke-opacity="1" transform="rotate(180.04144495723804 -84.44658140463099 1659.2075537947032)"/>
<rect x="-150.30514905005683" y="1568.7461854305213" width="8.262092896930048" height="6.844420093598759" rx="1.7111050233996898" ry="1.7111050233996898" fill="#ffffff" fill-opacity="1" stroke="#1e1e1e" stroke-width="2" stroke-opacity="1" transform="rotate(180.04144495723804 -146.1741026015918 1572.1683954773207)"/>
<rect x="-31.419865366181526" y="1570.6645034661472" width="8.262092896930048" height="12.127376505462772" rx="2.065523224232512" ry="2.065523224232512" fill="#ffffff" fill-opacity="1" stroke="#1e1e1e" stroke-width="2" stroke-opacity="1" transform="rotate(180.04144495723804 -27.2888189177165 1576.7281917188786)"/>
<rect x="-119.9442622659016" y="1565.906458711759" width="55.08169065639377" height="44.0849464272472" rx="11.0212366068118" ry="11.0212366068118" fill="#b2f2bb" fill-opacity="1" stroke="#2f9e44" stroke-width="2" stroke-opacity="1" transform="rotate(90.02896651902498 -92.40341693770472 1587.9489319253826)"/>
<rect x="-88.5215063613138" y="1569.4824621514188" width="8.27665778214702" height="38.14939877045609" rx="2.069164445536755" ry="2.069164445536755" fill="#ffffff" fill-opacity="1" stroke="#1e1e1e" stroke-width="2" stroke-opacity="1" transform="rotate(180.04144495723804 -84.38317747024028 1588.5571615366468)"/>
<rect x="-104.67541115700934" y="1574.4525830654093" width="8.262092896930048" height="31.741893068680263" rx="2.065523224232512" ry="2.065523224232512" fill="#ffffff" fill-opacity="1" stroke="#1e1e1e" stroke-width="2" stroke-opacity="1" transform="rotate(180.04144495723804 -100.54436470854431 1590.3235295997495)"/>
<rect x="-5.2378550403340896" y="1630.5989069281502" width="23.141092565349716" height="8.119938058512165" rx="2.0299845146280413" ry="2.0299845146280413" fill="#ffffff" fill-opacity="1" stroke="#1e1e1e" stroke-width="2" stroke-opacity="1" transform="rotate(269.857017169484 6.332691242340768 1634.6588759574063)"/>
<rect x="-150.71783536271656" y="1576.233724289099" width="8.262092896930048" height="6.844420093598759" rx="1.7111050233996898" ry="1.7111050233996898" fill="#ffffff" fill-opacity="1" stroke="#1e1e1e" stroke-width="2" stroke-opacity="1" transform="rotate(180.04144495723804 -146.58678891425154 1579.6559343358983)"/>
<rect x="-105.3302986289348" y="1566.3857032753563" width="8.262092896930048" height="6.844420093598759" rx="1.7111050233996898" ry="1.7111050233996898" fill="#ffffff" fill-opacity="1" stroke="#1e1e1e" stroke-width="2" stroke-opacity="1" transform="rotate(180.04144495723804 -101.19925218046977 1569.8079133221556)"/>
<rect x="-47.284944871777554" y="1575.2346496935022" width="8.262092896930048" height="6.844420093598759" rx="1.7111050233996898" ry="1.7111050233996898" fill="#ffffff" fill-opacity="1" stroke="#1e1e1e" stroke-width="2" stroke-opacity="1" transform="rotate(180.04144495723804 -43.15389842331253 1578.6568597403016)"/>
<rect x="-47.35337172803483" y="1567.3932969177133" width="8.262092896930048" height="6.844420093598759" rx="1.7111050233996898" ry="1.7111050233996898" fill="#ffffff" fill-opacity="1" stroke="#1e1e1e" stroke-width="2" stroke-opacity="1" transform="rotate(180.04144495723804 -43.22232527956981 1570.8155069645127)"/>
<rect x="-150.35214303141555" y="1601.1176973838285" width="18.671394676339578" height="5.989226643137509" rx="1.4973066607843772" ry="1.4973066607843772" fill="#ffffff" fill-opacity="1" stroke="#1e1e1e" stroke-width="2" stroke-opacity="1" transform="rotate(180.04144495723804 -141.01644569324577 1604.1123107053972)"/>
<rect x="-150.68789823041956" y="1591.686639052138" width="18.671394676339578" height="5.989226643137509" rx="1.4973066607843772" ry="1.4973066607843772" fill="#ffffff" fill-opacity="1" stroke="#1e1e1e" stroke-width="2" stroke-opacity="1" transform="rotate(180.04144495723804 -141.35220089224978 1594.6812523737067)"/>
<rect x="-89.15514021148579" y="1600.6718527773774" width="8.262092896930048" height="6.844420093598759" rx="1.7111050233996898" ry="1.7111050233996898" fill="#ffffff" fill-opacity="1" stroke="#1e1e1e" stroke-width="2" stroke-opacity="1" transform="rotate(180.04144495723804 -85.02409376302076 1604.0940628241767)"/>
<rect x="-44.57579954068806" y="1634.7687994361256" width="16.477710574731823" height="24.703306546871108" rx="4.119427643682956" ry="4.119427643682956" fill="#ffffff" fill-opacity="1" stroke="#1e1e1e" stroke-width="2" stroke-opacity="1" transform="rotate(269.857017169484 -36.336944253322145 1647.1204527095613)"/>
<rect x="-38.80305675028021" y="1651.0962739858635" width="7.018266253357211" height="24.49406660078743" rx="1.7545665633393028" ry="1.7545665633393028" fill="#ffffff" fill-opacity="1" stroke="#1e1e1e" stroke-width="2" stroke-opacity="1" transform="rotate(269.857017169484 -35.29392362360161 1663.3433072862572)"/>
<rect x="-150.1953236343212" y="1640.8686268842869" width="7.808071313591046" height="6.173808271702476" rx="1.543452067925619" ry="1.543452067925619" fill="#ffffff" fill-opacity="1" stroke="#1e1e1e" stroke-width="2" stroke-opacity="1" transform="rotate(180.04144495723804 -146.29128797752568 1643.955531020138)"/>
<rect x="-127.5729301245475" y="1627.8096685761602" width="6.908526907469343" height="52.64711594432751" rx="1.7271317268673358" ry="1.7271317268673358" fill="#ffffff" fill-opacity="1" stroke="#1e1e1e" stroke-width="2" stroke-opacity="1" transform="rotate(269.857017169484 -124.11866667081283 1654.133226548324)"/>
<rect x="3.4840846487901347" y="1561.8325765972327" width="8.262092896930048" height="6.844420093598759" rx="1.7111050233996898" ry="1.7111050233996898" fill="#ffffff" fill-opacity="1" stroke="#1e1e1e" stroke-width="2" stroke-opacity="1" transform="rotate(180.04144495723804 7.6151310972551585 1565.254786644032)"/>
<rect x="-16.660660956100127" y="1590.4899273057401" width="45.04145067251836" height="8.185131131231651" rx="2.046282782807913" ry="2.046282782807913" fill="#ffffff" fill-opacity="1" stroke="#1e1e1e" stroke-width="2" stroke-opacity="1" transform="rotate(269.857017169484 5.860064380159052 1594.582492871356)"/>
<rect x="19.07025140324136" y="1639.6249450840157" width="8.262092896930048" height="6.844420093598759" rx="1.7111050233996898" ry="1.7111050233996898" fill="#ffffff" fill-opacity="1" stroke="#1e1e1e" stroke-width="2" stroke-opacity="1" transform="rotate(180.04144495723804 23.201297851706386 1643.047155130815)"/>
<rect x="-149.19108052296608" y="1629.8819696069486" width="8.262092896930048" height="6.844420093598759" rx="1.7111050233996898" ry="1.7111050233996898" fill="#ffffff" fill-opacity="1" stroke="#1e1e1e" stroke-width="2" stroke-opacity="1" transform="rotate(180.04144495723804 -145.06003407450106 1633.304179653748)"/>
</g>
</svg>