<svg xmlns="http://www.w3.org/2000/svg" viewBox="0 0 267.0592608455847 174.7357065652759" width="267.0592608455847" height="174.7357065652759">
<rect x="0" y="0" width="267.0592608455847" height="174.7357065652759" fill="#ffffff"/>
<g transform="translate(195.80393467533617 -1363.6024800448001)">
<rect x="-185.80393467533617" y="1373.6024800448001" width="223.6378232400101" height="154.7357065652759" rx="32" ry="32" fill="#d0bfff" fill-opacity="1" stroke="#6741d9" stroke-width="2" stroke-opacity="1" transform="rotate(0.11830246381020917 -73.98502305533111 1450.970333327438)"/>
<rect x="-180.5970405226764" y="1381.2871731451746" width="213.8972206865891" height="138.76660394218683" rx="32" ry="32" fill="#ffec99" fill-opacity="1" stroke="#f08c00" stroke-width="2" stroke-opacity="1" transform="rotate(0.11830246381020917 -73.64843017938185 1450.670475116268)"/>
<rect x="-110.2727444483221" y="1428.8639546783522" width="119.41318696061725" height="45.84894296950732" rx="11.46223574237683" ry="11.46223574237683" fill="#b2f2bb" fill-opacity="1" stroke="#2f9e44" stroke-width="2" stroke-opacity="1" transform="rotate(90.02896651902498 -50.566150968013474 1451.788426163106)"/>
<rect x="-152.34540852852723" y="1439.2045425038832" width="55.08169065639377" height="88.94886232086407" rx="13.770422664098442" ry="13.770422664098442" fill="#b2f2bb" fill-opacity="1" stroke="#2f9e44" stroke-width="2" stroke-opacity="1" transform="rotate(90.02896651902498 -124.80456320033035 1483.6789736643152)"/>
<rect x="-177.67406819739105" y="1402.0541155666972" width="55.08169065639377" height="40.45266835326454" rx="10.113167088316136" ry="10.113167088316136" fill="#b2f2bb" fill-opacity="1" stroke="#2f9e44" stroke-width="2" stroke-opacity="1" transform="rotate(90.02896651902498 -150.13322286919416 1422.2804497433294)"/>
<rect x="-58.15786079036873" y="1428.0568844728007" width="119.41318696061725" height="45.84894296950732" rx="11.46223574237683" ry="11.46223574237683" fill="#b2f2bb" fill-opacity="1" stroke="#2f9e44" stroke-width="2" stroke-opacity="1" transform="rotate(90.02896651902498 1.5487326899398965 1450.9813559575543)"/>
<rect x="-139.6249916278631" y="1467.6647055167834" width="12.689399400282305" height="52.64711594432751" rx="3.1723498500705762" ry="3.1723498500705762" fill="#ffffff" fill-opacity="1" stroke="#1e1e1e" stroke-width="2" stroke-opacity="1" transform="rotate(269.857017169484 -133.28029192772195 1493.9882634889473)"/>
<rect x="-87.98062659661393" y="1452.166384314187" width="74.75609867915527" height="24.49406660078743" rx="6.123516650196858" ry="6.123516650196858" fill="#ffffff" fill-opacity="1" stroke="#1e1e1e" stroke-width="2" stroke-opacity="1" transform="rotate(269.857017169484 -50.602577257036295 1464.4134176145808)"/>
<rect x="-27.461097921123617" y="1436.8058685252774" width="72.7542149551555" height="8.013147843775434" rx="2.0032869609438584" ry="2.0032869609438584" fill="#ffffff" fill-opacity="1" stroke="#1e1e1e" stroke-width="2" stroke-opacity="1" transform="rotate(269.857017169484 8.916009556454135 1440.8124424471653)"/>
<rect x="-145.89590986472672" y="1403.198916823044" width="8.262092896930048" height="12.127376505462772" rx="2.065523224232512" ry="2.065523224232512" fill="#ffffff" fill-opacity="1" stroke="#1e1e1e" stroke-width="2" stroke-opacity="1" transform="rotate(180.04144495723804 -141.7648634162617 1409.2626050757756)"/>
<rect x="-158.1260305970585" y="1426.6840693565612" width="18.671394676339578" height="11.567725686388272" rx="2.891931421597068" ry="2.891931421597068" fill="#ffffff" fill-opacity="1" stroke="#1e1e1e" stroke-width="2" stroke-opacity="1" transform="rotate(180.04144495723804 -148.79033325888872 1432.4679321997553)"/>
<rect x="-122.52762768645844" y="1448.147252605234" width="11.77014644097449" height="54.11312635470635" rx="2.9425366102436223" ry="2.9425366102436223" fill="#ffffff" fill-opacity="1" stroke="#1e1e1e" stroke-width="2" stroke-opacity="1" transform="rotate(269.857017169484 -116.6425544659712 1475.203815782587)"/>
<rect x="-11.907930957229103" y="1484.0738679471704" width="25.147112195962578" height="14.677683081636642" rx="3.6694207704091606" ry="3.6694207704091606" fill="#ffffff" fill-opacity="1" stroke="#1e1e1e" stroke-width="2" stroke-opacity="1" transform="rotate(180.04144495723804 0.6656251407521854 1491.4127094879886)"/>
<rect x="-158.91811504834453" y="1468.816769912449" width="8.262092896930048" height="12.127376505462772" rx="2.065523224232512" ry="2.065523224232512" fill="#ffffff" fill-opacity="1" stroke="#1e1e1e" stroke-width="2" stroke-opacity="1" transform="rotate(180.04144495723804 -154.78706859987952 1474.8804581651805)"/>
<rect x="-97.42054363987984" y="1488.0333767466752" width="8.262092896930048" height="12.127376505462772" rx="2.065523224232512" ry="2.065523224232512" fill="#ffffff" fill-opacity="1" stroke="#1e1e1e" stroke-width="2" stroke-opacity="1" transform="rotate(180.04144495723804 -93.28949719141481 1494.0970649994067)"/>
<rect x="-159.14997555247578" y="1403.6356959441657" width="8.262092896930048" height="12.127376505462772" rx="2.065523224232512" ry="2.065523224232512" fill="#ffffff" fill-opacity="1" stroke="#1e1e1e" stroke-width="2" stroke-opacity="1" transform="rotate(180.04144495723804 -155.01892910401077 1409.6993841968972)"/>
<rect x="-47.47255010967507" y="1405.6962717794238" width="8.262092896930048" height="12.127376505462772" rx="2.065523224232512" ry="2.065523224232512" fill="#ffffff" fill-opacity="1" stroke="#1e1e1e" stroke-width="2" stroke-opacity="1" transform="rotate(180.04144495723804 -43.34150366121005 1411.7599600321553)"/>
<rect x="-128.78717805268542" y="1400.7959699164624" width="55.08169065639377" height="44.0849464272472" rx="11.0212366068118" ry="11.0212366068118" fill="#b2f2bb" fill-opacity="1" stroke="#2f9e44" stroke-width="2" stroke-opacity="1" transform="rotate(90.02896651902498 -101.24633272448854 1422.838443130086)"/>
<rect x="-63.61862233868112" y="1405.8516214369974" width="8.262092896930048" height="12.127376505462772" rx="2.065523224232512" ry="2.065523224232512" fill="#ffffff" fill-opacity="1" stroke="#1e1e1e" stroke-width="2" stroke-opacity="1" transform="rotate(180.04144495723804 -59.4875758902161 1411.915309689729)"/>
<rect x="-97.36442214809762" y="1404.3719733561222" width="8.27665778214702" height="38.14939877045609" rx="2.069164445536755" ry="2.069164445536755" fill="#ffffff" fill-opacity="1" stroke="#1e1e1e" stroke-width="2" stroke-opacity="1" transform="rotate(180.04144495723804 -93.2260932570241 1423.4466727413503)"/>
<rect x="-113.51613766306241" y="1403.2889312832979" width="8.262092896930048" height="37.7950568473044" rx="2.065523224232512" ry="2.065523224232512" fill="#ffffff" fill-opacity="1" stroke="#1e1e1e" stroke-width="2" stroke-opacity="1" transform="rotate(180.04144495723804 -109.38509121459738 1422.18645970695)"/>
<rect x="-42.657837456669206" y="1436.580234329879" width="70.26026564501413" height="8.23832393290038" rx="2.059580983225095" ry="2.059580983225095" fill="#ffffff" fill-opacity="1" stroke="#1e1e1e" stroke-width="2" stroke-opacity="1" transform="rotate(269.857017169484 -7.527704634162141 1440.6993962963293)"/>
</g>
</svg>