<svg xmlns="http://www.w3.org/2000/svg" viewBox="0 0 245.0775517014351 174.7357065652759" width="245.0775517014351" height="174.7357065652759">
<rect x="0" y="0" width="245.0775517014351" height="174.7357065652759" fill="#ffffff"/>
<g transform="translate(181.17251354268052 -1168.554784327841)">
<rect x="-158.0796931182772" y="1190.152042705608" width="17.799356883577758" height="10.851900261054114" rx="2.7129750652635285" ry="2.7129750652635285" fill="#ffffff" fill-opacity="1" stroke="#1e1e1e" stroke-width="2" stroke-opacity="1" transform="rotate(180.04144495723804 -149.18001467648833 1195.577992836135)"/>
<rect x="-171.17251354268052" y="1178.554784327841" width="223.6378232400101" height="154.7357065652759" rx="32" ry="32" fill="#d0bfff" fill-opacity="1" stroke="#6741d9" stroke-width="2" stroke-opacity="1" transform="rotate(0.11830246381020917 -59.353601922675466 1255.922637610479)"/>
<rect x="-164.13934319263652" y="1184.5629619096478" width="213.8972206865891" height="138.76660394218683" rx="32" ry="32" fill="#ffec99" fill-opacity="1" stroke="#f08c00" stroke-width="2" stroke-opacity="1" transform="rotate(0.11830246381020917 -57.19073284934197 1253.9462638807413)"/>
<rect x="-133.5457714986716" y="1244.676415101146" width="55.08169065639377" height="85.43090453492378" rx="13.770422664098442" ry="13.770422664098442" fill="#b2f2bb" fill-opacity="1" stroke="#2f9e44" stroke-width="2" stroke-opacity="1" transform="rotate(90.02896651902498 -106.00492617047472 1287.3918673686078)"/>
<rect x="-134.1442946189053" y="1183.4662751574795" width="55.08169065639377" height="85.43090453492378" rx="13.770422664098442" ry="13.770422664098442" fill="#b2f2bb" fill-opacity="1" stroke="#2f9e44" stroke-width="2" stroke-opacity="1" transform="rotate(90.02896651902498 -106.60344929070841 1226.1817274249413)"/>
<rect x="-65.50814880186266" y="1212.1387704614704" width="119.41318696061725" height="85.4309045349239" rx="21.357726133730974" ry="21.357726133730974" fill="#b2f2bb" fill-opacity="1" stroke="#2f9e44" stroke-width="2" stroke-opacity="1" transform="rotate(90.02896651902498 -5.801555321554034 1254.8542227289322)"/>
<rect x="-116.86963662785378" y="1272.6652248220312" width="12.689399400282305" height="50.076501216584845" rx="3.1723498500705762" ry="3.1723498500705762" fill="#ffffff" fill-opacity="1" stroke="#1e1e1e" stroke-width="2" stroke-opacity="1" transform="rotate(269.857017169484 -110.52493692771263 1297.7034754303236)"/>
<rect x="-64.93339566042394" y="1257.4331489250974" width="74.75609867915527" height="19.87185676015568" rx="4.96796419003892" ry="4.96796419003892" fill="#ffffff" fill-opacity="1" stroke="#1e1e1e" stroke-width="2" stroke-opacity="1" transform="rotate(269.857017169484 -27.555346320846304 1267.3690773051753)"/>
<rect x="-89.22497567636933" y="1206.1602063846965" width="8.27665778214702" height="38.14939877045609" rx="2.069164445536755" ry="2.069164445536755" fill="#ffffff" fill-opacity="1" stroke="#1e1e1e" stroke-width="2" stroke-opacity="1" transform="rotate(180.04144495723804 -85.08664678529581 1225.2349057699246)"/>
<rect x="-33.56036924717292" y="1243.17862767988" width="77.51008538880846" height="8.23832393290038" rx="2.059580983225095" ry="2.059580983225095" fill="#ffffff" fill-opacity="1" stroke="#1e1e1e" stroke-width="2" stroke-opacity="1" transform="rotate(269.857017169484 5.19467344723131 1247.2977896463303)"/>
<rect x="-122.85525150305068" y="1206.9702224644084" width="8.262092896930048" height="12.127376505462772" rx="2.065523224232512" ry="2.065523224232512" fill="#ffffff" fill-opacity="1" stroke="#1e1e1e" stroke-width="2" stroke-opacity="1" transform="rotate(180.04144495723804 -118.72420505458565 1213.0339107171399)"/>
<rect x="-135.0853722353825" y="1230.3960737895347" width="18.671394676339578" height="11.567725686388272" rx="2.891931421597068" ry="2.891931421597068" fill="#ffffff" fill-opacity="1" stroke="#1e1e1e" stroke-width="2" stroke-opacity="1" transform="rotate(180.04144495723804 -125.7496748972127 1236.1799366327289)"/>
<rect x="-107.03193329421148" y="1253.4673825250595" width="11.77014644097449" height="51.02318879436556" rx="2.9425366102436223" ry="2.9425366102436223" fill="#ffffff" fill-opacity="1" stroke="#1e1e1e" stroke-width="2" stroke-opacity="1" transform="rotate(269.857017169484 -101.14686007372424 1278.9789769222423)"/>
<rect x="1.237106842812068" y="1292.9788771499868" width="18.671394676339578" height="11.383563692088082" rx="2.8458909230220204" ry="2.8458909230220204" fill="#ffffff" fill-opacity="1" stroke="#1e1e1e" stroke-width="2" stroke-opacity="1" transform="rotate(180.04144495723804 10.572804180981857 1298.6706589960309)"/>
<rect x="-135.8774566866685" y="1272.5287743454228" width="8.262092896930048" height="12.127376505462772" rx="2.065523224232512" ry="2.065523224232512" fill="#ffffff" fill-opacity="1" stroke="#1e1e1e" stroke-width="2" stroke-opacity="1" transform="rotate(180.04144495723804 -131.74641023820348 1278.5924625981543)"/>
<rect x="-99.40242542311465" y="1206.911481351072" width="8.262092896930048" height="37.7950568473044" rx="2.065523224232512" ry="2.065523224232512" fill="#ffffff" fill-opacity="1" stroke="#1e1e1e" stroke-width="2" stroke-opacity="1" transform="rotate(180.04144495723804 -95.27137897464962 1225.8090097747242)"/>
<rect x="-84.37988527820383" y="1291.745381179649" width="8.262092896930048" height="12.127376505462772" rx="2.065523224232512" ry="2.065523224232512" fill="#ffffff" fill-opacity="1" stroke="#1e1e1e" stroke-width="2" stroke-opacity="1" transform="rotate(180.04144495723804 -80.2488388297388 1297.8090694323805)"/>
<rect x="-132.10931719079974" y="1207.3477003771397" width="8.262092896930048" height="12.127376505462772" rx="2.065523224232512" ry="2.065523224232512" fill="#ffffff" fill-opacity="1" stroke="#1e1e1e" stroke-width="2" stroke-opacity="1" transform="rotate(180.04144495723804 -127.97827074233471 1213.4113886298712)"/>
<rect x="-26.914948858045875" y="1210.428458017761" width="8.262092896930048" height="12.127376505462772" rx="2.065523224232512" ry="2.065523224232512" fill="#ffffff" fill-opacity="1" stroke="#1e1e1e" stroke-width="2" stroke-opacity="1" transform="rotate(180.04144495723804 -22.78390240958085 1216.4921462704924)"/>
<rect x="-36.16901454579494" y="1210.8059359304925" width="8.262092896930048" height="12.127376505462772" rx="2.065523224232512" ry="2.065523224232512" fill="#ffffff" fill-opacity="1" stroke="#1e1e1e" stroke-width="2" stroke-opacity="1" transform="rotate(180.04144495723804 -32.037968097329916 1216.869624183224)"/>
<rect x="-24.906935281480308" y="1242.6942604801782" width="77.51008538880846" height="8.23832393290038" rx="2.059580983225095" ry="2.059580983225095" fill="#ffffff" fill-opacity="1" stroke="#1e1e1e" stroke-width="2" stroke-opacity="1" transform="rotate(269.857017169484 13.848107412923923 1246.8134224466285)"/>
</g>
</svg>