<svg xmlns="http://www.w3.org/2000/svg" viewBox="0 0 257.6053896322991 200.20243206055898" width="257.6053896322991" height="200.20243206055898">
<rect x="0" y="0" width="257.6053896322991" height="200.20243206055898" fill="#ffffff"/>
<g transform="translate(187.70680696695587 -1925.560864267951)">
<rect x="-177.70680696695587" y="1935.560864267951" width="223.6378232400101" height="154.7357065652759" rx="32" ry="32" fill="#d0bfff" fill-opacity="1" stroke="#6741d9" stroke-width="2" stroke-opacity="1" transform="rotate(0.11830246381020917 -65.88789534695081 2012.928717550589)"/>
<rect x="-173.13953810743735" y="2014.5132136604984" width="105.71873659676066" height="71.96664391626368" rx="17.99166097906592" ry="17.99166097906592" fill="#ffec99" fill-opacity="1" stroke="#f08c00" stroke-width="2" stroke-opacity="1" transform="rotate(0.11830246381020917 -120.28016980905701 2050.4965356186303)"/>
<rect x="-63.827080758779644" y="1940.2835602300822" width="105.01798117184661" height="145.5508022582296" rx="26.254495292961654" ry="26.254495292961654" fill="#ffec99" fill-opacity="1" stroke="#f08c00" stroke-width="2" stroke-opacity="1" transform="rotate(0.11830246381020917 -11.318090172856337 2013.058961359197)"/>
<rect x="-171.76042613897775" y="1939.755852993652" width="102.86069954840272" height="71.96664391626368" rx="17.99166097906592" ry="17.99166097906592" fill="#ffec99" fill-opacity="1" stroke="#f08c00" stroke-width="2" stroke-opacity="1" transform="rotate(0.11830246381020917 -120.33007636477639 1975.739174951784)"/>
<rect x="-2.349838666240034" y="2041.2305495520393" width="32.69392996379262" height="43.918954184069634" rx="8.173482490948155" ry="8.173482490948155" fill="#b2f2bb" fill-opacity="1" stroke="#2f9e44" stroke-width="2" stroke-opacity="1" transform="rotate(90.02896651902498 13.997126315656276 2063.190026644074)"/>
<rect x="-50.86680277375995" y="1945.130441682242" width="30.353906571663614" height="40.590756988618516" rx="7.588476642915904" ry="7.588476642915904" fill="#b2f2bb" fill-opacity="1" stroke="#2f9e44" stroke-width="2" stroke-opacity="1" transform="rotate(90.02896651902498 -35.68984948792814 1965.4258201765513)"/>
<rect x="-81.33187758785596" y="2011.6909702402138" width="94.1212344689502" height="45.84894296950732" rx="11.46223574237683" ry="11.46223574237683" fill="#b2f2bb" fill-opacity="1" stroke="#2f9e44" stroke-width="2" stroke-opacity="1" transform="rotate(90.02896651902498 -34.27126035338085 2034.6154417249675)"/>
<rect x="-133.43116391636642" y="1990.4043009136303" width="27.139999389648438" height="90.636531852691" rx="6.784999847412109" ry="6.784999847412109" fill="#b2f2bb" fill-opacity="1" stroke="#2f9e44" stroke-width="2" stroke-opacity="1" transform="rotate(90.02896651902498 -119.8611642215422 2035.7225668399758)"/>
<rect x="-157.6893785747286" y="1939.9192422693043" width="27.951170243032188" height="40.45266835326454" rx="6.987792560758047" ry="6.987792560758047" fill="#b2f2bb" fill-opacity="1" stroke="#2f9e44" stroke-width="2" stroke-opacity="1" transform="rotate(90.02896651902498 -143.7137934532125 1960.1455764459365)"/>
<rect x="-30.08240286102398" y="1975.0440035896338" width="89.98098552636716" height="44.35852201033958" rx="11.089630502584894" ry="11.089630502584894" fill="#b2f2bb" fill-opacity="1" stroke="#2f9e44" stroke-width="2" stroke-opacity="1" transform="rotate(90.02896651902498 14.908089902159603 1997.2232645948036)"/>
<rect x="-54.151601807267895" y="1997.0211279488187" width="40.636970278454164" height="31.315972241884133" rx="7.828993060471033" ry="7.828993060471033" fill="#ffffff" fill-opacity="1" stroke="#1e1e1e" stroke-width="2" stroke-opacity="1" transform="rotate(269.857017169484 -33.833116668040816 2012.6791140697608)"/>
<rect x="-7.746073578816151" y="1988.0304515096288" width="65.66108584051008" height="8.29862542147409" rx="2.0746563553685227" ry="2.0746563553685227" fill="#ffffff" fill-opacity="1" stroke="#1e1e1e" stroke-width="2" stroke-opacity="1" transform="rotate(269.857017169484 25.08446934143889 1992.179764220366)"/>
<rect x="-138.5920935690212" y="1952.0841193371273" width="8.262092896930048" height="16.901883185024694" rx="2.065523224232512" ry="2.065523224232512" fill="#ffffff" fill-opacity="1" stroke="#1e1e1e" stroke-width="2" stroke-opacity="1" transform="rotate(180.04144495723804 -134.46104712055617 1960.5350609296397)"/>
<rect x="-119.88967989332713" y="2005.5423729442093" width="16.434200717883094" height="59.89404858459308" rx="4.1085501794707735" ry="4.1085501794707735" fill="#ffffff" fill-opacity="1" stroke="#1e1e1e" stroke-width="2" stroke-opacity="1" transform="rotate(269.857017169484 -111.67257953438558 2035.489397236506)"/>
<rect x="0.10188277922834033" y="2051.769952682198" width="28.273013023031762" height="23.19567342388752" rx="5.79891835597188" ry="5.79891835597188" fill="#ffffff" fill-opacity="1" stroke="#1e1e1e" stroke-width="2" stroke-opacity="1" transform="rotate(180.04144495723804 14.238389290744221 2063.3677893941417)"/>
<rect x="-157.25243637879652" y="1952.157386984931" width="8.262092896930048" height="6.844420093598759" rx="1.7111050233996898" ry="1.7111050233996898" fill="#ffffff" fill-opacity="1" stroke="#1e1e1e" stroke-width="2" stroke-opacity="1" transform="rotate(180.04144495723804 -153.1213899303315 1955.5795970317304)"/>
<rect x="-31.235797518442283" y="1955.3017556211923" width="8.262092896930051" height="19.635299743886296" rx="2.0655232242325128" ry="2.0655232242325128" fill="#ffffff" fill-opacity="1" stroke="#1e1e1e" stroke-width="2" stroke-opacity="1" transform="rotate(180.04144495723804 -27.104751069977258 1965.1194054931354)"/>
<rect x="-125.51057083402978" y="1955.519542119089" width="59.17275804833529" height="44.0849464272472" rx="11.0212366068118" ry="11.0212366068118" fill="#b2f2bb" fill-opacity="1" stroke="#2f9e44" stroke-width="2" stroke-opacity="1" transform="rotate(90.02896651902498 -95.92419180986214 1977.5620153327127)"/>
<rect x="-91.07581050450592" y="1954.7063162941995" width="8.27665778214699" height="33.06790757513605" rx="2.0691644455367477" ry="2.0691644455367477" fill="#ffffff" fill-opacity="1" stroke="#1e1e1e" stroke-width="2" stroke-opacity="1" transform="rotate(180.04144495723804 -86.93748161343242 1971.2402700817674)"/>
<rect x="-109.65868362945128" y="1966.5215215930418" width="8.262092896930048" height="34.4124155165465" rx="2.065523224232512" ry="2.065523224232512" fill="#ffffff" fill-opacity="1" stroke="#1e1e1e" stroke-width="2" stroke-opacity="1" transform="rotate(180.04144495723804 -105.52763718098625 1983.727729351315)"/>
<rect x="-3.983643118737575" y="2022.387501147614" width="23.141092565349716" height="8.119938058512165" rx="2.0299845146280413" ry="2.0299845146280413" fill="#ffffff" fill-opacity="1" stroke="#1e1e1e" stroke-width="2" stroke-opacity="1" transform="rotate(269.857017169484 7.586903163937283 2026.4474701768702)"/>
<rect x="-157.75449735583152" y="1963.0140385642746" width="8.262092896930048" height="6.844420093598759" rx="1.7111050233996898" ry="1.7111050233996898" fill="#ffffff" fill-opacity="1" stroke="#1e1e1e" stroke-width="2" stroke-opacity="1" transform="rotate(180.04144495723804 -153.6234509073665 1966.436248611074)"/>
<rect x="-48.44684651414198" y="1968.1855927547888" width="8.262092896930048" height="6.844420093598759" rx="1.7111050233996898" ry="1.7111050233996898" fill="#ffffff" fill-opacity="1" stroke="#1e1e1e" stroke-width="2" stroke-opacity="1" transform="rotate(180.04144495723804 -44.31580006567696 1971.6078028015882)"/>
<rect x="-48.110295664758894" y="1955.5020414996322" width="8.262092896930048" height="6.844420093598759" rx="1.7111050233996898" ry="1.7111050233996898" fill="#ffffff" fill-opacity="1" stroke="#1e1e1e" stroke-width="2" stroke-opacity="1" transform="rotate(180.04144495723804 -43.97924921629387 1958.9242515464316)"/>
<rect x="-91.03786170322789" y="1993.8018639707107" width="8.262092896930048" height="6.844420093598759" rx="1.7111050233996898" ry="1.7111050233996898" fill="#ffffff" fill-opacity="1" stroke="#1e1e1e" stroke-width="2" stroke-opacity="1" transform="rotate(180.04144495723804 -86.90681525476286 1997.22407401751)"/>
<rect x="-46.47799176299447" y="2034.8651380016722" width="24.727100567431805" height="31.629028662001488" rx="6.181775141857951" ry="6.181775141857951" fill="#ffffff" fill-opacity="1" stroke="#1e1e1e" stroke-width="2" stroke-opacity="1" transform="rotate(269.857017169484 -34.11444147927857 2050.679652332673)"/>
<rect x="2.7382965703866944" y="1958.6804720250873" width="8.262092896930048" height="6.844420093598759" rx="1.7111050233996898" ry="1.7111050233996898" fill="#ffffff" fill-opacity="1" stroke="#1e1e1e" stroke-width="2" stroke-opacity="1" transform="rotate(180.04144495723804 6.869343018851718 1962.1026820718866)"/>
<rect x="-14.501038949668072" y="1986.1820140814896" width="42.97734398565357" height="8.433267404494723" rx="2.1083168511236807" ry="2.1083168511236807" fill="#ffffff" fill-opacity="1" stroke="#1e1e1e" stroke-width="2" stroke-opacity="1" transform="rotate(269.857017169484 6.987633043158713 1990.398647783737)"/>
<rect x="21.324463324837893" y="2030.120814446587" width="8.262092896930048" height="6.844420093598759" rx="1.7111050233996898" ry="1.7111050233996898" fill="#ffffff" fill-opacity="1" stroke="#1e1e1e" stroke-width="2" stroke-opacity="1" transform="rotate(180.04144495723804 25.455509773302918 2033.5430244933864)"/>
<rect x="-157.7941548390748" y="1971.2714739675318" width="27.951170243032188" height="40.45266835326454" rx="6.987792560758047" ry="6.987792560758047" fill="#b2f2bb" fill-opacity="1" stroke="#2f9e44" stroke-width="2" stroke-opacity="1" transform="rotate(90.02896651902498 -143.8185697175587 1991.497808144164)"/>
<rect x="-158.565776644379" y="1982.2468792965592" width="28.19127433651729" height="7.0764395409139444" rx="1.7691098852284861" ry="1.7691098852284861" fill="#ffffff" fill-opacity="1" stroke="#1e1e1e" stroke-width="2" stroke-opacity="1" transform="rotate(180.59936711449706 -144.47013947612038 1985.785099067016)"/>
<rect x="-158.50945565019694" y="1993.7366199116996" width="28.493416341780904" height="6.570177312332601" rx="1.6425443280831502" ry="1.6425443280831502" fill="#ffffff" fill-opacity="1" stroke="#1e1e1e" stroke-width="2" stroke-opacity="1" transform="rotate(180.04144495723804 -144.26274747930648 1997.021708567866)"/>
<rect x="-132.7930869486499" y="2022.3212910389204" width="26.851468392576077" height="93.44200528958949" rx="6.712867098144019" ry="6.712867098144019" fill="#b2f2bb" fill-opacity="1" stroke="#2f9e44" stroke-width="2" stroke-opacity="1" transform="rotate(90.02896651902498 -119.36735275236185 2069.0422936837153)"/>
<rect x="-133.57314929220553" y="2045.0204284102103" width="6.908526907469343" height="58.44381063111978" rx="1.7271317268673358" ry="1.7271317268673358" fill="#ffffff" fill-opacity="1" stroke="#1e1e1e" stroke-width="2" stroke-opacity="1" transform="rotate(269.857017169484 -130.11888583847085 2074.24233372577)"/>
<rect x="-92.28744650624117" y="2059.948732640768" width="7.952103509272313" height="16.872255292180448" rx="1.9880258773180783" ry="1.9880258773180783" fill="#ffffff" fill-opacity="1" stroke="#1e1e1e" stroke-width="2" stroke-opacity="1" transform="rotate(180.04144495723804 -88.31139475160501 2068.3848602868584)"/>
<rect x="-132.5867225031322" y="2033.9027449528398" width="6.908526907469343" height="58.9755175445983" rx="1.7271317268673358" ry="1.7271317268673358" fill="#ffffff" fill-opacity="1" stroke="#1e1e1e" stroke-width="2" stroke-opacity="1" transform="rotate(269.857017169484 -129.1324590493975 2063.390503725139)"/>
<rect x="-157.6772472429789" y="2026.3320432652558" width="7.808071313591046" height="6.173808271702476" rx="1.543452067925619" ry="1.543452067925619" fill="#ffffff" fill-opacity="1" stroke="#1e1e1e" stroke-width="2" stroke-opacity="1" transform="rotate(180.04144495723804 -153.77321158618338 2029.418947401107)"/>
<rect x="-37.73055769541952" y="2057.6688924390282" width="6.843528507014379" height="31.142585174216787" rx="1.7108821267535947" ry="1.7108821267535947" fill="#ffffff" fill-opacity="1" stroke="#1e1e1e" stroke-width="2" stroke-opacity="1" transform="rotate(269.857017169484 -34.30879344191233 2073.2401850261367)"/>
<rect x="-109.89649167500903" y="1953.253783266582" width="8.262092896930048" height="6.844420093598759" rx="1.7111050233996898" ry="1.7111050233996898" fill="#ffffff" fill-opacity="1" stroke="#1e1e1e" stroke-width="2" stroke-opacity="1" transform="rotate(180.04144495723804 -105.765445226544 1956.6759933133815)"/>
<rect x="-157.73353313568865" y="2037.7685824449657" width="7.808071313591046" height="6.173808271702476" rx="1.543452067925619" ry="1.543452067925619" fill="#ffffff" fill-opacity="1" stroke="#1e1e1e" stroke-width="2" stroke-opacity="1" transform="rotate(180.04144495723804 -153.82949747889313 2040.855486580817)"/>
</g>
</svg>