<svg xmlns="http://www.w3.org/2000/svg" viewBox="0 0 237.18407292737794 167.50885574059623" width="237.18407292737794" height="167.50885574059623">
<rect x="0" y="0" width="237.18407292737794" height="167.50885574059623" fill="#ffffff"/>
<g transform="translate(187.87736081958624 -829.8981303078335)">
<rect x="-177.87736081958624" y="839.8981303078335" width="213.19293483521372" height="147.50885574059626" rx="32" ry="32" fill="#d0bfff" fill-opacity="1" stroke="#6741d9" stroke-width="2" stroke-opacity="1" transform="rotate(0.11830246381020917 -71.28089340197938 913.6525581781317)"/>
<rect x="-171.1742567196973" y="847.1616400862524" width="203.9072620659946" height="130.74963911545288" rx="32" ry="32" fill="#ffec99" fill-opacity="1" stroke="#f08c00" stroke-width="2" stroke-opacity="1" transform="rotate(0.11830246381020917 -69.2206256867 912.5364596439789)"/>
<rect x="-141.13680381219572" y="904.4593326495346" width="52.509128896855856" height="81.44089850079041" rx="13.127282224213964" ry="13.127282224213964" fill="#b2f2bb" fill-opacity="1" stroke="#2f9e44" stroke-width="2" stroke-opacity="1" transform="rotate(90.02896651902498 -114.8822393637678 945.1797818999298)"/>
<rect x="-144.41340645503467" y="843.8117863366638" width="52.509128896855856" height="81.44089850079041" rx="13.127282224213964" ry="13.127282224213964" fill="#b2f2bb" fill-opacity="1" stroke="#2f9e44" stroke-width="2" stroke-opacity="1" transform="rotate(90.02896651902498 -118.15884200660675 884.532235587059)"/>
<rect x="-74.52934396416472" y="871.750706215857" width="113.8360560719564" height="81.44089850079052" rx="20.36022462519763" ry="20.36022462519763" fill="#b2f2bb" fill-opacity="1" stroke="#2f9e44" stroke-width="2" stroke-opacity="1" transform="rotate(90.02896651902498 -17.61131592818652 912.4711554662523)"/>
<rect x="-120.49306831434284" y="924.1374154065825" width="11.71967563093061" height="57.98674650138491" rx="2.9299189077326524" ry="2.9299189077326524" fill="#ffffff" fill-opacity="1" stroke="#1e1e1e" stroke-width="2" stroke-opacity="1" transform="rotate(269.857017169484 -114.63323049887754 953.1307886572749)"/>
<rect x="-70.32564199649168" y="914.3480439498925" width="71.2646539093511" height="17.912322428077687" rx="4.478080607019422" ry="4.478080607019422" fill="#ffffff" fill-opacity="1" stroke="#1e1e1e" stroke-width="2" stroke-opacity="1" transform="rotate(269.857017169484 -34.693315041816135 923.3042051639313)"/>
<rect x="-110.1229068153321" y="873.1900639757628" width="18.2553284996893" height="23.90239950616301" rx="4.563832124922325" ry="4.563832124922325" fill="#ffffff" fill-opacity="1" stroke="#1e1e1e" stroke-width="2" stroke-opacity="1" transform="rotate(180.04144495723804 -100.99524256548744 885.1412637288443)"/>
<rect x="-37.486924128872545" y="903.2181084268212" width="73.8900170998076" height="16.733237169559676" rx="4.183309292389919" ry="4.183309292389919" fill="#ffffff" fill-opacity="1" stroke="#1e1e1e" stroke-width="2" stroke-opacity="1" transform="rotate(269.857017169484 -0.541915578968748 911.5847270116011)"/>
<rect x="-143.79391439721445" y="872.1342409428978" width="17.799356883577758" height="10.851900261054114" rx="2.7129750652635285" ry="2.7129750652635285" fill="#ffffff" fill-opacity="1" stroke="#1e1e1e" stroke-width="2" stroke-opacity="1" transform="rotate(180.04144495723804 -134.8942359554256 877.5601910734249)"/>
<rect x="-143.47565070787948" y="884.318199265127" width="17.799356883577758" height="11.027461065041313" rx="2.7568652662603284" ry="2.7568652662603284" fill="#ffffff" fill-opacity="1" stroke="#1e1e1e" stroke-width="2" stroke-opacity="1" transform="rotate(180.04144495723804 -134.57597226609062 889.8319297976476)"/>
<rect x="-120.27087848028344" y="911.4042075993867" width="11.220427863396708" height="57.98674650138491" rx="2.805106965849177" ry="2.805106965849177" fill="#ffffff" fill-opacity="1" stroke="#1e1e1e" stroke-width="2" stroke-opacity="1" transform="rotate(269.857017169484 -114.66066454858509 940.3975808500792)"/>
<rect x="-44.10626201568897" y="874.5747917325658" width="17.799356883577758" height="10.851900261054114" rx="2.7129750652635285" ry="2.7129750652635285" fill="#ffffff" fill-opacity="1" stroke="#1e1e1e" stroke-width="2" stroke-opacity="1" transform="rotate(180.04144495723804 -35.20658357390009 880.0007418630929)"/>
<rect x="-9.520042226117205" y="948.9781052923421" width="17.799356883577758" height="10.851900261054114" rx="2.7129750652635285" ry="2.7129750652635285" fill="#ffffff" fill-opacity="1" stroke="#1e1e1e" stroke-width="2" stroke-opacity="1" transform="rotate(180.04144495723804 -0.6203637843283261 954.4040554228692)"/>
</g>
</svg>