<svg xmlns="http://www.w3.org/2000/svg" viewBox="0 0 254.60538963229902 192.04937573303005" width="254.60538963229902" height="192.04937573303005">
<rect x="0" y="0" width="254.60538963229902" height="192.04937573303005" fill="#ffffff"/>
<g transform="translate(179.6046537324404 -1690.9392453675573)">
<rect x="-169.6046537324404" y="1700.9392453675573" width="223.6378232400101" height="154.7357065652759" rx="32" ry="32" fill="#d0bfff" fill-opacity="1" stroke="#6741d9" stroke-width="2" stroke-opacity="1" transform="rotate(0.11830246381020917 -57.785742112435344 1778.3070986501953)"/>
<rect x="-56.66903620445537" y="1709.2747841572575" width="105.95135693017522" height="138.76660394218683" rx="26.487839232543806" ry="26.487839232543806" fill="#ffec99" fill-opacity="1" stroke="#f08c00" stroke-width="2" stroke-opacity="1" transform="rotate(0.11830246381020917 -3.6933577393677552 1778.658086128351)"/>
<rect x="-164.45694573776018" y="1708.4531957827412" width="105.95135693017522" height="138.76660394218683" rx="26.487839232543806" ry="26.487839232543806" fill="#ffec99" fill-opacity="1" stroke="#f08c00" stroke-width="2" stroke-opacity="1" transform="rotate(0.11830246381020917 -111.48126727267257 1777.8364977538347)"/>
<rect x="4.341353293626164" y="1805.0206950795034" width="29.51745841356851" height="43.918954184069634" rx="7.379364603392127" ry="7.379364603392127" fill="#b2f2bb" fill-opacity="1" stroke="#2f9e44" stroke-width="2" stroke-opacity="1" transform="rotate(90.02896651902498 19.10008250041042 1826.9801721715382)"/>
<rect x="-49.03680162975489" y="1711.7808373176085" width="30.897935712708858" height="40.590756988618516" rx="7.724483928177214" ry="7.724483928177214" fill="#b2f2bb" fill-opacity="1" stroke="#2f9e44" stroke-width="2" stroke-opacity="1" transform="rotate(90.02896651902498 -33.58783377340046 1732.0762158119178)"/>
<rect x="-77.28035732169124" y="1774.1209695833322" width="90.22447045798378" height="45.84894296950732" rx="11.46223574237683" ry="11.46223574237683" fill="#b2f2bb" fill-opacity="1" stroke="#2f9e44" stroke-width="2" stroke-opacity="1" transform="rotate(90.02896651902498 -32.16812209269935 1797.045441068086)"/>
<rect x="-121.6216312321704" y="1751.041573642979" width="25.04077003318316" height="88.94886232086407" rx="6.26019250829579" ry="6.26019250829579" fill="#b2f2bb" fill-opacity="1" stroke="#2f9e44" stroke-width="2" stroke-opacity="1" transform="rotate(90.02896651902498 -109.10124621557883 1795.516004803411)"/>
<rect x="-149.58722534021317" y="1709.2976233689103" width="27.951170243032188" height="40.45266835326454" rx="6.987792560758047" ry="6.987792560758047" fill="#b2f2bb" fill-opacity="1" stroke="#2f9e44" stroke-width="2" stroke-opacity="1" transform="rotate(90.02896651902498 -135.61164021869706 1729.5239575455425)"/>
<rect x="-24.98024962650855" y="1740.42238468924" width="89.98098552636716" height="44.35852201033958" rx="11.089630502584894" ry="11.089630502584894" fill="#b2f2bb" fill-opacity="1" stroke="#2f9e44" stroke-width="2" stroke-opacity="1" transform="rotate(90.02896651902498 20.010243136675033 1762.6016456944099)"/>
<rect x="-52.04944857275245" y="1760.3995090484248" width="40.636970278454164" height="31.315972241884133" rx="7.828993060471033" ry="7.828993060471033" fill="#ffffff" fill-opacity="1" stroke="#1e1e1e" stroke-width="2" stroke-opacity="1" transform="rotate(269.857017169484 -31.73096343352537 1776.0574951693668)"/>
<rect x="-2.6439203443006978" y="1753.4088326092353" width="65.66108584051008" height="8.29862542147409" rx="2.0746563553685227" ry="2.0746563553685227" fill="#ffffff" fill-opacity="1" stroke="#1e1e1e" stroke-width="2" stroke-opacity="1" transform="rotate(269.857017169484 30.186622575954345 1757.5581453199725)"/>
<rect x="-130.48994033450577" y="1721.4625004367333" width="8.262092896930048" height="16.901883185024694" rx="2.065523224232512" ry="2.065523224232512" fill="#ffffff" fill-opacity="1" stroke="#1e1e1e" stroke-width="2" stroke-opacity="1" transform="rotate(180.04144495723804 -126.35889388604075 1729.9134420292457)"/>
<rect x="-108.29651449544521" y="1767.4822763416405" width="15.083065792122667" height="55.677552481050974" rx="3.770766448030667" ry="3.770766448030667" fill="#ffffff" fill-opacity="1" stroke="#1e1e1e" stroke-width="2" stroke-opacity="1" transform="rotate(269.857017169484 -100.75498159938388 1795.321052582166)"/>
<rect x="4.025111476691698" y="1816.5834650308843" width="28.273013023031762" height="20.239986497875684" rx="5.059996624468921" ry="5.059996624468921" fill="#ffffff" fill-opacity="1" stroke="#1e1e1e" stroke-width="2" stroke-opacity="1" transform="rotate(180.04144495723804 18.16161798820758 1826.7034582798221)"/>
<rect x="-149.15028314428108" y="1721.5357680845375" width="8.262092896930048" height="6.844420093598759" rx="1.7111050233996898" ry="1.7111050233996898" fill="#ffffff" fill-opacity="1" stroke="#1e1e1e" stroke-width="2" stroke-opacity="1" transform="rotate(180.04144495723804 -145.01923669581606 1724.9579781313369)"/>
<rect x="-29.136760105442864" y="1724.8173064888451" width="8.262092896930051" height="15.85933123681303" rx="2.0655232242325128" ry="2.0655232242325128" fill="#ffffff" fill-opacity="1" stroke="#1e1e1e" stroke-width="2" stroke-opacity="1" transform="rotate(180.04144495723804 -25.00571365697784 1732.7469721072516)"/>
<rect x="-114.36391804582595" y="1723.943456653255" width="55.08169065639377" height="44.0849464272472" rx="11.0212366068118" ry="11.0212366068118" fill="#b2f2bb" fill-opacity="1" stroke="#2f9e44" stroke-width="2" stroke-opacity="1" transform="rotate(90.02896651902498 -86.82307271762907 1745.9859298668787)"/>
<rect x="-84.52918953800058" y="1722.471822384227" width="8.276657782147005" height="32.48389869546705" rx="2.0691644455367513" ry="2.0691644455367513" fill="#ffffff" fill-opacity="1" stroke="#1e1e1e" stroke-width="2" stroke-opacity="1" transform="rotate(180.04144495723804 -80.39086064692708 1738.7137717319604)"/>
<rect x="-100.87410318865089" y="1737.580438981452" width="8.262092896930048" height="31.741893068680263" rx="2.065523224232512" ry="2.065523224232512" fill="#ffffff" fill-opacity="1" stroke="#1e1e1e" stroke-width="2" stroke-opacity="1" transform="rotate(180.04144495723804 -96.74305674018586 1753.4513855157923)"/>
<rect x="1.1185101157778803" y="1787.7658822472204" width="23.141092565349716" height="8.119938058512165" rx="2.0299845146280413" ry="2.0299845146280413" fill="#ffffff" fill-opacity="1" stroke="#1e1e1e" stroke-width="2" stroke-opacity="1" transform="rotate(269.857017169484 12.689056398452738 1791.8258512764764)"/>
<rect x="-148.65234412131608" y="1732.392419663881" width="8.262092896930048" height="6.844420093598759" rx="1.7111050233996898" ry="1.7111050233996898" fill="#ffffff" fill-opacity="1" stroke="#1e1e1e" stroke-width="2" stroke-opacity="1" transform="rotate(180.04144495723804 -144.52129767285106 1735.8146297106803)"/>
<rect x="-100.25351212756554" y="1725.8419097973185" width="8.262092896930048" height="6.844420093598759" rx="1.7111050233996898" ry="1.7111050233996898" fill="#ffffff" fill-opacity="1" stroke="#1e1e1e" stroke-width="2" stroke-opacity="1" transform="rotate(180.04144495723804 -96.12246567910051 1729.2641198441179)"/>
<rect x="-46.49445395844343" y="1734.7772952649825" width="8.262092896930048" height="6.844420093598759" rx="1.7111050233996898" ry="1.7111050233996898" fill="#ffffff" fill-opacity="1" stroke="#1e1e1e" stroke-width="2" stroke-opacity="1" transform="rotate(180.04144495723804 -42.36340750997841 1738.1995053117819)"/>
<rect x="-46.00814243024347" y="1723.8804225992385" width="8.262092896930048" height="6.844420093598759" rx="1.7111050233996898" ry="1.7111050233996898" fill="#ffffff" fill-opacity="1" stroke="#1e1e1e" stroke-width="2" stroke-opacity="1" transform="rotate(180.04144495723804 -41.877095981778446 1727.3026326460379)"/>
<rect x="-84.04619034285385" y="1761.2758894685262" width="8.262092896930048" height="6.844420093598759" rx="1.7111050233996898" ry="1.7111050233996898" fill="#ffffff" fill-opacity="1" stroke="#1e1e1e" stroke-width="2" stroke-opacity="1" transform="rotate(180.04144495723804 -79.91514389438882 1764.6980995153256)"/>
<rect x="-42.915079664368506" y="1796.7791103263942" width="21.798273897850272" height="31.629028662001765" rx="5.449568474462568" ry="5.449568474462568" fill="#ffffff" fill-opacity="1" stroke="#1e1e1e" stroke-width="2" stroke-opacity="1" transform="rotate(269.857017169484 -32.01594271544337 1812.5936246573951)"/>
<rect x="-146.14675978013088" y="1797.0393835217924" width="7.808071313591046" height="6.173808271702476" rx="1.543452067925619" ry="1.543452067925619" fill="#ffffff" fill-opacity="1" stroke="#1e1e1e" stroke-width="2" stroke-opacity="1" transform="rotate(180.04144495723804 -142.24272412333536 1800.1262876576436)"/>
<rect x="7.840449804902121" y="1724.0588531246935" width="8.262092896930048" height="6.844420093598759" rx="1.7111050233996898" ry="1.7111050233996898" fill="#ffffff" fill-opacity="1" stroke="#1e1e1e" stroke-width="2" stroke-opacity="1" transform="rotate(180.04144495723804 11.971496253367146 1727.481063171493)"/>
<rect x="-9.39888571515262" y="1751.5603951810958" width="42.97734398565357" height="8.433267404494723" rx="2.1083168511236807" ry="2.1083168511236807" fill="#ffffff" fill-opacity="1" stroke="#1e1e1e" stroke-width="2" stroke-opacity="1" transform="rotate(269.857017169484 12.089786277674165 1755.7770288833433)"/>
<rect x="26.42661655935335" y="1795.4991955461933" width="8.262092896930048" height="6.844420093598759" rx="1.7111050233996898" ry="1.7111050233996898" fill="#ffffff" fill-opacity="1" stroke="#1e1e1e" stroke-width="2" stroke-opacity="1" transform="rotate(180.04144495723804 30.557663007818373 1798.9214055929926)"/>
<rect x="-147.69200160455938" y="1742.649855067138" width="27.951170243032188" height="40.45266835326454" rx="6.987792560758047" ry="6.987792560758047" fill="#b2f2bb" fill-opacity="1" stroke="#2f9e44" stroke-width="2" stroke-opacity="1" transform="rotate(90.02896651902498 -133.71641648304328 1762.8761892437703)"/>
<rect x="-148.46356886647203" y="1753.6148324712317" width="26.197548052443608" height="7.0764395409139444" rx="1.7691098852284861" ry="1.7691098852284861" fill="#ffffff" fill-opacity="1" stroke="#1e1e1e" stroke-width="2" stroke-opacity="1" transform="rotate(180.59936711449706 -135.36479484025023 1757.1530522416886)"/>
<rect x="-148.21738031991455" y="1764.8240952081858" width="26.904387562227722" height="6.570177312332601" rx="1.6425443280831502" ry="1.6425443280831502" fill="#ffffff" fill-opacity="1" stroke="#1e1e1e" stroke-width="2" stroke-opacity="1" transform="rotate(180.04144495723804 -134.7651865388007 1768.1091838643522)"/>
<rect x="-120.03169802236312" y="1784.0397587797233" width="25.04077003318316" height="88.94886232086407" rx="6.26019250829579" ry="6.26019250829579" fill="#b2f2bb" fill-opacity="1" stroke="#2f9e44" stroke-width="2" stroke-opacity="1" transform="rotate(90.02896651902498 -107.51131300577154 1828.5141899401553)"/>
<rect x="-119.78695493786718" y="1805.7180564977104" width="6.908526907469343" height="55.81188467544468" rx="1.7271317268673358" ry="1.7271317268673358" fill="#ffffff" fill-opacity="1" stroke="#1e1e1e" stroke-width="2" stroke-opacity="1" transform="rotate(269.857017169484 -116.33269148413251 1833.6239988354328)"/>
<rect x="-80.18529327172571" y="1819.3271137403747" width="7.952103509272313" height="16.872255292180448" rx="1.9880258773180783" ry="1.9880258773180783" fill="#ffffff" fill-opacity="1" stroke="#1e1e1e" stroke-width="2" stroke-opacity="1" transform="rotate(180.04144495723804 -76.20924151708955 1827.7632413864649)"/>
<rect x="-119.45445880598547" y="1795.1974958707901" width="6.908526907469343" height="55.152318771468444" rx="1.7271317268673358" ry="1.7271317268673358" fill="#ffffff" fill-opacity="1" stroke="#1e1e1e" stroke-width="2" stroke-opacity="1" transform="rotate(269.857017169484 -116.0001953522508 1822.7736552565243)"/>
<rect x="-145.78894231933347" y="1787.8859989762836" width="7.808071313591046" height="6.173808271702476" rx="1.543452067925619" ry="1.543452067925619" fill="#ffffff" fill-opacity="1" stroke="#1e1e1e" stroke-width="2" stroke-opacity="1" transform="rotate(180.04144495723804 -141.88490666253796 1790.9729031121349)"/>
<rect x="-35.628404460904065" y="1818.0472735386343" width="6.843528507014379" height="31.142585174216787" rx="1.7108821267535947" ry="1.7108821267535947" fill="#ffffff" fill-opacity="1" stroke="#1e1e1e" stroke-width="2" stroke-opacity="1" transform="rotate(269.857017169484 -32.20664020739687 1833.6185661257427)"/>
</g>
</svg>