<svg xmlns="http://www.w3.org/2000/svg" viewBox="0 0 234.18407292737794 167.50885574059623" width="234.18407292737794" height="167.50885574059623">
<rect x="0" y="0" width="234.18407292737794" height="167.50885574059623" fill="#ffffff"/>
<g transform="translate(185.03130256038776 -993.4438572478645)">
<rect x="-175.03130256038776" y="1003.4438572478645" width="213.19293483521372" height="147.50885574059626" rx="32" ry="32" fill="#d0bfff" fill-opacity="1" stroke="#6741d9" stroke-width="2" stroke-opacity="1" transform="rotate(0.11830246381020917 -68.4348351427809 1077.1982851181626)"/>
<rect x="-168.3281984604988" y="1010.7073670262834" width="203.9072620659946" height="130.74963911545288" rx="32" ry="32" fill="#ffec99" fill-opacity="1" stroke="#f08c00" stroke-width="2" stroke-opacity="1" transform="rotate(0.11830246381020917 -66.37456742750152 1076.0821865840098)"/>
<rect x="-139.16189796490136" y="1066.4773115912408" width="52.509128896855856" height="81.44089850079041" rx="13.127282224213964" ry="13.127282224213964" fill="#b2f2bb" fill-opacity="1" stroke="#2f9e44" stroke-width="2" stroke-opacity="1" transform="rotate(90.02896651902498 -112.90733351647343 1107.197760841636)"/>
<rect x="-141.5673481958362" y="1007.3575132766947" width="52.509128896855856" height="81.44089850079041" rx="13.127282224213964" ry="13.127282224213964" fill="#b2f2bb" fill-opacity="1" stroke="#2f9e44" stroke-width="2" stroke-opacity="1" transform="rotate(90.02896651902498 -115.31278374740826 1048.07796252709)"/>
<rect x="-74.68328570496624" y="1035.2964331558878" width="113.8360560719564" height="81.44089850079052" rx="20.36022462519763" ry="20.36022462519763" fill="#b2f2bb" fill-opacity="1" stroke="#2f9e44" stroke-width="2" stroke-opacity="1" transform="rotate(90.02896651902498 -17.765257668988035 1076.016882406283)"/>
<rect x="-118.14010813519803" y="1088.021609015015" width="12.096747590585519" height="57.98674650138491" rx="3.0241868976463797" ry="3.0241868976463797" fill="#ffffff" fill-opacity="1" stroke="#1e1e1e" stroke-width="2" stroke-opacity="1" transform="rotate(269.857017169484 -112.09173433990527 1117.0149822657074)"/>
<rect x="-74.1711064530383" y="1080.1240484045659" width="71.2646539093511" height="15.964718539051091" rx="3.991179634762773" ry="3.991179634762773" fill="#ffffff" fill-opacity="1" stroke="#1e1e1e" stroke-width="2" stroke-opacity="1" transform="rotate(269.857017169484 -38.53877949836276 1088.1064076740913)"/>
<rect x="-107.2763082623049" y="1029.756233553977" width="18.2553284996893" height="36.36765091092764" rx="4.563832124922325" ry="4.563832124922325" fill="#ffffff" fill-opacity="1" stroke="#1e1e1e" stroke-width="2" stroke-opacity="1" transform="rotate(180.04144495723804 -98.14864401246024 1047.9400590094408)"/>
<rect x="-39.40643589142637" y="1060.5985579116852" width="73.8900170998076" height="16.733237169559676" rx="4.183309292389919" ry="4.183309292389919" fill="#ffffff" fill-opacity="1" stroke="#1e1e1e" stroke-width="2" stroke-opacity="1" transform="rotate(269.857017169484 -2.4614273415225725 1068.9651764964651)"/>
<rect x="-140.947856138016" y="1030.6799678829288" width="17.799356883577758" height="10.851900261054114" rx="2.7129750652635285" ry="2.7129750652635285" fill="#ffffff" fill-opacity="1" stroke="#1e1e1e" stroke-width="2" stroke-opacity="1" transform="rotate(180.04144495723804 -132.04817769622713 1036.105918013456)"/>
<rect x="-140.62959244868102" y="1052.863926205158" width="17.799356883577758" height="11.027461065041313" rx="2.7568652662603284" ry="2.7568652662603284" fill="#ffffff" fill-opacity="1" stroke="#1e1e1e" stroke-width="2" stroke-opacity="1" transform="rotate(180.04144495723804 -131.72991400689216 1058.3776567376785)"/>
<rect x="-118.55964487635481" y="1070.1960790928547" width="11.220427863396708" height="57.98674650138491" rx="2.805106965849177" ry="2.805106965849177" fill="#ffffff" fill-opacity="1" stroke="#1e1e1e" stroke-width="2" stroke-opacity="1" transform="rotate(269.857017169484 -112.94943094465646 1099.1894523435471)"/>
<rect x="-48.27926988606821" y="1030.8204165621596" width="17.799356883577758" height="10.851900261054114" rx="2.7129750652635285" ry="2.7129750652635285" fill="#ffffff" fill-opacity="1" stroke="#1e1e1e" stroke-width="2" stroke-opacity="1" transform="rotate(180.04144495723804 -39.37959144427933 1036.2463666926867)"/>
</g>
</svg>